{"glyphs":{"0":{"ha":794,"x_min":50,"x_max":743,"o":"m 743 496 q 725 281 743 376 q 665 121 706 187 q 557 21 624 56 q 396 -14 491 -14 q 200 47 277 -14 q 87 222 123 108 q 50 496 50 336 q 84 771 50 656 q 193 946 117 885 q 396 1007 269 1007 q 592 946 515 1007 q 706 771 669 886 q 743 496 743 657 m 258 496 q 271 307 258 382 q 313 193 283 231 q 396 155 343 155 q 478 193 448 155 q 522 306 509 231 q 534 496 534 382 q 522 685 534 609 q 478 799 509 761 q 396 838 448 838 q 313 799 343 838 q 271 685 283 761 q 258 496 258 609 z "},"1":{"ha":794,"x_min":82,"x_max":574,"o":"m 574 0 l 364 0 l 364 574 q 365 632 364 597 q 367 704 366 667 q 370 771 368 741 q 339 741 362 762 q 297 703 317 720 l 183 611 l 82 737 l 401 991 l 574 991 l 574 0 z "},"2":{"ha":794,"x_min":53,"x_max":749,"o":"m 749 0 l 56 0 l 56 146 l 304 397 q 426 527 380 475 q 492 621 471 578 q 513 713 513 664 q 480 801 513 772 q 392 831 447 831 q 280 804 334 831 q 167 729 226 778 l 53 864 q 143 933 96 901 q 255 986 191 966 q 407 1006 318 1006 q 575 970 505 1006 q 683 874 645 935 q 721 737 721 814 q 688 587 721 655 q 594 453 656 519 q 444 306 532 387 l 317 186 l 317 176 l 749 176 l 749 0 z "},"3":{"ha":794,"x_min":53,"x_max":739,"o":"m 710 770 q 682 651 710 701 q 605 569 653 601 q 496 522 556 537 l 496 518 q 677 445 615 503 q 739 289 739 387 q 697 134 739 202 q 566 26 654 65 q 339 -14 478 -14 q 186 0 257 -14 q 53 40 115 13 l 53 218 q 186 169 117 186 q 317 153 256 153 q 474 192 429 153 q 519 301 519 231 q 498 371 519 342 q 426 414 477 399 q 281 429 374 429 l 205 429 l 205 590 l 282 590 q 421 607 374 590 q 487 655 469 625 q 504 724 504 685 q 471 806 504 777 q 363 836 439 836 q 276 824 315 836 q 206 796 237 812 q 151 764 175 779 l 54 908 q 191 978 113 950 q 378 1006 269 1006 q 621 944 531 1006 q 710 770 710 882 z "},"4":{"ha":794,"x_min":24,"x_max":771,"o":"m 771 205 l 652 205 l 652 0 l 447 0 l 447 205 l 24 205 l 24 351 l 458 991 l 652 991 l 652 368 l 771 368 l 771 205 m 447 368 l 447 536 q 448 593 447 560 q 450 658 449 625 q 453 716 452 690 q 456 751 455 741 l 450 751 q 423 697 437 724 q 390 643 409 671 l 208 368 l 447 368 z "},"5":{"ha":794,"x_min":68,"x_max":730,"o":"m 416 633 q 578 599 507 633 q 690 497 649 564 q 730 332 730 430 q 686 147 730 224 q 554 28 642 69 q 335 -14 466 -14 q 188 0 257 -14 q 68 40 119 13 l 68 221 q 192 175 119 194 q 328 157 264 157 q 433 173 390 157 q 497 225 475 190 q 519 314 519 260 q 471 425 519 387 q 321 464 422 464 q 240 456 282 464 q 171 441 199 449 l 87 486 l 125 991 l 663 991 l 663 814 l 309 814 l 290 619 q 340 629 313 624 q 416 633 368 633 z "},"6":{"ha":794,"x_min":49,"x_max":749,"o":"m 49 421 q 61 590 49 507 q 105 748 74 674 q 193 880 136 823 q 336 970 249 937 q 546 1003 422 1003 q 614 1001 575 1003 q 679 993 653 998 l 679 825 q 621 835 652 831 q 559 839 590 839 q 369 800 436 839 q 274 691 301 760 q 241 529 246 621 l 250 529 q 298 588 269 562 q 368 629 327 614 q 465 644 410 644 q 616 607 552 644 q 714 500 680 570 q 749 330 749 431 q 707 146 749 223 q 590 27 666 68 q 411 -14 515 -14 q 269 13 335 -14 q 154 92 203 39 q 77 228 104 146 q 49 421 49 309 m 407 154 q 507 196 469 154 q 546 328 546 238 q 512 442 546 400 q 411 484 479 484 q 330 463 365 484 q 276 411 295 442 q 257 346 257 379 q 267 277 257 311 q 295 216 276 243 q 342 171 314 188 q 407 154 370 154 z "},"7":{"ha":794,"x_min":37,"x_max":749,"o":"m 154 0 l 526 815 l 37 815 l 37 991 l 749 991 l 749 860 l 374 0 l 154 0 z "},"8":{"ha":794,"x_min":49,"x_max":745,"o":"m 397 1004 q 555 978 483 1004 q 671 898 627 951 q 714 765 714 845 q 691 661 714 705 q 627 582 667 616 q 536 524 587 549 q 637 459 589 496 q 714 372 684 422 q 745 257 745 323 q 701 114 745 174 q 578 20 656 53 q 397 -14 500 -14 q 208 18 286 -14 q 90 110 130 50 q 49 252 49 169 q 74 370 49 319 q 143 456 100 420 q 239 518 186 492 q 158 581 195 546 q 101 662 122 616 q 79 766 79 707 q 124 898 79 845 q 241 978 168 951 q 397 1004 313 1004 m 243 264 q 281 175 243 210 q 395 140 319 140 q 511 174 473 140 q 550 262 550 208 q 528 329 550 300 q 473 380 506 357 q 406 422 439 403 l 387 432 q 312 388 344 412 q 261 333 279 363 q 243 264 243 302 m 396 851 q 311 825 345 851 q 277 750 277 798 q 293 691 277 716 q 337 646 310 665 q 397 611 365 627 q 456 644 429 626 q 500 688 483 663 q 517 750 517 714 q 483 825 517 798 q 396 851 448 851 z "},"9":{"ha":794,"x_min":45,"x_max":745,"o":"m 745 568 q 732 399 745 483 q 688 240 720 315 q 601 109 657 166 q 458 19 545 52 q 248 -14 371 -14 q 179 -11 218 -14 q 114 -4 140 -9 l 114 164 q 172 154 141 157 q 233 150 202 150 q 425 189 357 150 q 520 298 492 229 q 551 460 547 368 l 543 460 q 497 401 524 427 q 429 360 470 375 q 323 345 387 345 q 176 381 239 345 q 79 489 113 418 q 45 659 45 559 q 86 843 45 766 q 203 962 127 920 q 382 1003 279 1003 q 524 977 458 1003 q 639 897 589 951 q 717 762 689 844 q 745 568 745 680 m 386 835 q 286 793 325 835 q 248 661 248 751 q 281 547 248 589 q 382 505 314 505 q 463 526 429 505 q 517 578 498 547 q 536 643 536 610 q 527 711 536 677 q 498 773 517 745 q 451 818 479 801 q 386 835 423 835 z "},"\u0000":{"ha":0,"x_min":0,"x_max":0,"o":""},"\r":{"ha":361,"x_min":0,"x_max":0,"o":""}," ":{"ha":361,"x_min":0,"x_max":0,"o":""},"!":{"ha":397,"x_min":79,"x_max":317,"o":"m 282 329 l 117 329 l 82 991 l 317 991 l 282 329 m 79 97 q 114 186 79 161 q 199 212 149 212 q 282 186 247 212 q 317 97 317 161 q 282 9 317 36 q 199 -18 247 -18 q 114 9 149 -18 q 79 97 79 36 z "},"\"":{"ha":656,"x_min":90,"x_max":566,"o":"m 279 991 l 252 633 l 118 633 l 90 991 l 279 991 m 566 991 l 538 633 l 404 633 l 376 991 l 566 991 z "},"#":{"ha":897,"x_min":31,"x_max":867,"o":"m 677 572 l 646 415 l 821 415 l 821 275 l 619 275 l 567 0 l 418 0 l 471 275 l 339 275 l 288 0 l 142 0 l 192 275 l 31 275 l 31 415 l 218 415 l 250 572 l 79 572 l 79 714 l 275 714 l 328 990 l 476 990 l 424 714 l 558 714 l 611 990 l 757 990 l 704 714 l 867 714 l 867 572 l 677 572 m 366 415 l 498 415 l 530 572 l 397 572 l 366 415 z "},"$":{"ha":794,"x_min":60,"x_max":741,"o":"m 351 -81 l 351 56 q 190 73 261 58 q 61 114 119 88 l 61 293 q 199 242 119 265 q 351 215 279 220 l 351 425 q 180 507 244 467 q 88 595 116 547 q 60 711 60 644 q 97 831 60 781 q 199 912 134 882 q 351 950 265 943 l 351 1054 l 444 1054 l 444 953 q 591 935 523 950 q 725 890 659 920 l 661 732 q 550 768 606 755 q 444 785 494 781 l 444 585 q 587 524 519 557 q 698 441 655 492 q 741 310 741 391 q 667 140 741 209 q 444 58 593 72 l 444 -81 l 351 -81 m 444 220 q 514 248 492 228 q 536 300 536 268 q 526 334 536 319 q 495 362 516 349 q 444 389 475 375 l 444 220 m 351 623 l 351 782 q 304 769 323 778 q 274 745 284 760 q 264 711 264 731 q 273 677 264 692 q 301 649 282 662 q 351 623 321 636 z "},"%":{"ha":1251,"x_min":43,"x_max":1208,"o":"m 277 1006 q 454 924 393 1006 q 514 696 514 843 q 457 466 514 549 q 277 383 400 383 q 102 466 162 383 q 43 696 43 549 q 99 924 43 843 q 277 1006 155 1006 m 278 864 q 229 822 245 864 q 214 694 214 780 q 229 566 214 609 q 278 524 245 524 q 327 566 311 524 q 343 694 343 608 q 327 822 343 780 q 278 864 311 864 m 981 991 l 431 0 l 268 0 l 818 991 l 981 991 m 971 610 q 1148 528 1088 610 q 1208 300 1208 447 q 1152 71 1208 153 q 971 -12 1095 -12 q 797 71 857 -12 q 737 300 737 153 q 793 528 737 447 q 971 610 849 610 m 972 468 q 924 426 939 468 q 908 298 908 384 q 924 170 908 213 q 972 127 939 127 q 1022 170 1006 127 q 1038 298 1038 212 q 1022 426 1038 384 q 972 468 1006 468 z "},"&":{"ha":1042,"x_min":56,"x_max":1042,"o":"m 431 1006 q 573 981 511 1006 q 672 907 635 956 q 708 790 708 859 q 651 629 708 694 q 510 515 595 564 l 703 328 q 751 427 731 374 q 786 532 771 479 l 1002 532 q 940 365 981 454 q 838 199 900 277 l 1042 0 l 786 0 l 708 77 q 622 28 668 49 q 525 -3 576 8 q 415 -14 473 -14 q 222 22 302 -14 q 98 120 141 57 q 56 268 56 184 q 77 389 56 338 q 140 478 99 439 q 237 549 180 516 q 180 627 201 591 q 150 700 159 664 q 140 777 140 736 q 177 898 140 847 q 280 978 214 949 q 431 1006 345 1006 m 358 425 q 313 385 332 406 q 283 340 294 363 q 273 288 273 316 q 318 194 273 228 q 429 160 363 160 q 513 171 474 160 q 583 201 551 182 l 358 425 m 429 846 q 363 828 395 846 q 332 762 332 810 q 349 696 332 728 q 396 631 367 664 q 486 695 454 663 q 517 768 517 727 q 489 828 517 810 q 429 846 460 846 z "},"'":{"ha":370,"x_min":90,"x_max":279,"o":"m 279 991 l 252 633 l 118 633 l 90 991 l 279 991 z "},"(":{"ha":471,"x_min":56,"x_max":429,"o":"m 56 380 q 77 602 56 494 q 144 809 99 710 q 260 991 190 907 l 429 991 q 285 704 334 861 q 236 382 236 547 q 258 169 236 275 q 322 -36 279 62 q 428 -220 366 -134 l 260 -220 q 144 -42 190 -138 q 77 162 99 55 q 56 380 56 269 z "},")":{"ha":471,"x_min":41,"x_max":415,"o":"m 415 380 q 393 162 415 269 q 327 -42 372 55 q 211 -220 281 -138 l 43 -220 q 149 -36 106 -134 q 213 169 191 62 q 235 382 235 275 q 213 599 235 492 q 148 805 191 706 q 41 991 105 905 l 211 991 q 327 809 281 907 q 393 602 372 710 q 415 380 415 494 z "},"*":{"ha":757,"x_min":43,"x_max":714,"o":"m 467 1055 l 439 806 l 692 876 l 714 705 l 484 689 l 635 488 l 481 406 l 375 618 l 282 407 l 122 488 l 272 689 l 43 707 l 69 876 l 317 806 l 289 1055 l 467 1055 z "},"+":{"ha":794,"x_min":60,"x_max":733,"o":"m 471 564 l 733 564 l 733 415 l 471 415 l 471 154 l 322 154 l 322 415 l 60 415 l 60 564 l 322 564 l 322 828 l 471 828 l 471 564 z "},",":{"ha":396,"x_min":43,"x_max":311,"o":"m 301 161 l 311 146 q 280 41 299 97 q 238 -72 260 -16 q 192 -179 215 -128 l 43 -179 q 69 -64 56 -124 q 93 55 82 -3 q 111 161 104 113 l 301 161 z "},"-":{"ha":447,"x_min":41,"x_max":406,"o":"m 41 288 l 41 457 l 406 457 l 406 288 l 41 288 z "},".":{"ha":396,"x_min":79,"x_max":317,"o":"m 79 97 q 114 186 79 161 q 199 212 149 212 q 282 186 247 212 q 317 97 317 161 q 282 9 317 36 q 199 -18 247 -18 q 114 9 149 -18 q 79 97 79 36 z "},"/":{"ha":574,"x_min":9,"x_max":567,"o":"m 567 991 l 197 0 l 9 0 l 379 991 l 567 991 z "},":":{"ha":396,"x_min":79,"x_max":317,"o":"m 79 97 q 114 186 79 161 q 199 212 149 212 q 282 186 247 212 q 317 97 317 161 q 282 9 317 36 q 199 -18 247 -18 q 114 9 149 -18 q 79 97 79 36 m 79 657 q 114 747 79 721 q 199 772 149 772 q 282 747 247 772 q 317 657 317 721 q 282 569 317 595 q 199 542 247 542 q 114 569 149 542 q 79 657 79 595 z "},";":{"ha":396,"x_min":43,"x_max":317,"o":"m 301 161 l 311 146 q 280 41 299 97 q 238 -72 260 -16 q 192 -179 215 -128 l 43 -179 q 69 -64 56 -124 q 93 55 82 -3 q 111 161 104 113 l 301 161 m 79 657 q 114 747 79 721 q 199 772 149 772 q 282 747 247 772 q 317 657 317 721 q 282 569 317 595 q 199 542 247 542 q 114 569 149 542 q 79 657 79 595 z "},"<":{"ha":794,"x_min":60,"x_max":733,"o":"m 733 138 l 60 435 l 60 532 l 733 868 l 733 705 l 269 490 l 733 300 l 733 138 z "},"=":{"ha":794,"x_min":60,"x_max":733,"o":"m 60 547 l 60 694 l 733 694 l 733 547 l 60 547 m 60 283 l 60 432 l 733 432 l 733 283 l 60 283 z "},">":{"ha":794,"x_min":60,"x_max":733,"o":"m 60 300 l 524 490 l 60 705 l 60 868 l 733 532 l 733 435 l 60 138 l 60 300 z "},"?":{"ha":663,"x_min":4,"x_max":629,"o":"m 187 329 l 187 379 q 200 461 187 425 q 241 529 213 496 q 317 595 270 561 q 384 648 359 625 q 421 695 410 672 q 433 749 433 719 q 401 816 433 793 q 310 839 368 839 q 194 821 252 839 q 78 772 137 802 l 4 921 q 151 982 72 959 q 325 1006 231 1006 q 550 936 470 1006 q 629 760 629 867 q 611 661 629 703 q 557 584 593 619 q 467 509 521 548 q 404 458 426 479 q 375 418 382 438 q 367 370 367 398 l 367 329 l 187 329 m 165 97 q 200 186 165 161 q 285 212 235 212 q 368 186 333 212 q 403 97 403 161 q 368 9 403 36 q 285 -18 333 -18 q 200 9 235 -18 q 165 97 165 36 z "},"@":{"ha":1246,"x_min":69,"x_max":1177,"o":"m 1177 497 q 1161 370 1177 433 q 1115 257 1146 307 q 1037 176 1084 206 q 925 146 989 146 q 835 170 874 146 q 781 233 796 195 l 770 233 q 695 172 741 199 q 583 146 649 146 q 392 220 459 146 q 325 415 325 294 q 365 580 325 509 q 479 692 405 652 q 653 733 553 733 q 788 721 719 733 q 897 696 858 709 l 884 411 q 882 382 882 397 q 882 364 882 368 q 898 288 882 307 q 933 269 913 269 q 985 300 964 269 q 1017 384 1006 332 q 1028 498 1028 436 q 981 696 1028 614 q 852 821 934 778 q 667 864 770 864 q 474 829 557 864 q 334 732 391 795 q 249 585 277 670 q 220 400 220 500 q 264 189 220 275 q 396 57 309 102 q 610 12 484 12 q 778 30 690 12 q 937 75 865 48 l 937 -56 q 789 -100 871 -83 q 615 -117 707 -117 q 321 -56 443 -117 q 134 120 199 5 q 69 396 69 235 q 111 630 69 522 q 231 820 153 739 q 419 946 309 901 q 665 991 529 991 q 929 931 814 991 q 1111 761 1045 871 q 1177 497 1177 650 m 482 412 q 514 303 482 336 q 599 269 545 269 q 697 320 669 269 q 730 453 726 371 l 739 603 q 704 608 724 606 q 661 610 684 610 q 556 581 595 610 q 499 507 517 552 q 482 412 482 462 z "},"A":{"ha":958,"x_min":0,"x_max":958,"o":"m 732 0 l 660 236 l 298 236 l 227 0 l 0 0 l 350 996 l 607 996 l 958 0 l 732 0 m 610 412 l 538 643 q 520 702 531 666 q 497 776 509 739 q 479 842 486 814 q 461 773 473 814 q 438 695 449 732 q 422 643 427 659 l 351 412 l 610 412 z "},"B":{"ha":933,"x_min":125,"x_max":860,"o":"m 125 991 l 433 991 q 733 936 631 991 q 835 741 835 880 q 817 639 835 684 q 765 564 799 593 q 682 526 731 535 l 682 519 q 772 485 732 509 q 836 413 812 460 q 860 288 860 366 q 816 133 860 197 q 690 34 772 68 q 496 0 608 0 l 125 0 l 125 991 m 335 599 l 457 599 q 584 628 549 599 q 619 713 619 656 q 577 794 619 770 q 446 819 536 819 l 335 819 l 335 599 m 335 432 l 335 174 l 472 174 q 604 210 567 174 q 642 309 642 247 q 625 373 642 345 q 571 416 609 401 q 465 432 532 432 l 335 432 z "},"C":{"ha":885,"x_min":81,"x_max":836,"o":"m 546 831 q 439 807 486 831 q 361 740 393 784 q 313 633 330 696 q 297 493 297 571 q 323 314 297 388 q 404 200 349 239 q 546 161 459 161 q 667 175 606 161 q 799 214 728 189 l 799 37 q 669 -2 733 10 q 526 -14 606 -14 q 274 50 373 -14 q 128 228 176 113 q 81 494 81 342 q 111 701 81 607 q 201 863 142 794 q 347 968 260 931 q 546 1006 433 1006 q 694 987 620 1006 q 836 936 768 968 l 768 765 q 656 811 713 791 q 546 831 600 831 z "},"D":{"ha":1028,"x_min":125,"x_max":947,"o":"m 947 505 q 883 225 947 338 q 698 57 819 113 q 406 0 576 0 l 125 0 l 125 991 l 436 991 q 707 936 592 991 q 884 773 821 881 q 947 505 947 665 m 729 500 q 697 681 729 610 q 602 785 665 751 q 447 819 539 819 l 335 819 l 335 174 l 425 174 q 654 256 579 174 q 729 500 729 338 z "},"E":{"ha":778,"x_min":125,"x_max":696,"o":"m 696 0 l 125 0 l 125 991 l 696 991 l 696 819 l 335 819 l 335 602 l 671 602 l 671 429 l 335 429 l 335 174 l 696 174 l 696 0 z "},"F":{"ha":762,"x_min":125,"x_max":693,"o":"m 332 0 l 125 0 l 125 991 l 693 991 l 693 819 l 332 819 l 332 564 l 668 564 l 668 392 l 332 392 l 332 0 z "},"G":{"ha":1006,"x_min":81,"x_max":895,"o":"m 501 557 l 895 557 l 895 43 q 732 2 817 17 q 542 -14 648 -14 q 291 45 394 -14 q 134 217 188 103 q 81 497 81 331 q 141 767 81 653 q 316 943 201 881 q 599 1006 432 1006 q 754 989 677 1006 q 893 945 831 972 l 823 777 q 720 815 778 800 q 597 831 661 831 q 438 789 506 831 q 334 671 371 747 q 297 493 297 595 q 323 321 297 396 q 407 204 350 246 q 555 161 464 161 q 631 166 600 161 q 689 175 662 170 l 689 382 l 501 382 l 501 557 z "},"H":{"ha":1063,"x_min":125,"x_max":937,"o":"m 937 0 l 728 0 l 728 428 l 335 428 l 335 0 l 125 0 l 125 991 l 335 991 l 335 603 l 728 603 l 728 991 l 937 991 l 937 0 z "},"I":{"ha":460,"x_min":125,"x_max":335,"o":"m 125 0 l 125 991 l 335 991 l 335 0 l 125 0 z "},"J":{"ha":460,"x_min":-103,"x_max":335,"o":"m 21 -292 q -51 -287 -20 -292 q -103 -277 -81 -283 l -103 -102 q -57 -111 -81 -106 q -4 -115 -32 -115 q 62 -101 33 -115 q 108 -49 91 -87 q 125 62 125 -10 l 125 991 l 335 991 l 335 64 q 295 -142 335 -64 q 185 -256 256 -220 q 21 -292 114 -292 z "},"K":{"ha":922,"x_min":125,"x_max":922,"o":"m 922 0 l 684 0 l 424 418 l 335 354 l 335 0 l 125 0 l 125 991 l 335 991 l 335 538 q 376 596 356 567 q 418 654 397 625 l 686 991 l 920 991 l 574 553 l 922 0 z "},"L":{"ha":785,"x_min":125,"x_max":737,"o":"m 125 0 l 125 991 l 335 991 l 335 174 l 737 174 l 737 0 l 125 0 z "},"M":{"ha":1310,"x_min":125,"x_max":1185,"o":"m 545 0 l 306 778 l 300 778 q 304 694 301 750 q 310 575 307 638 q 313 461 313 512 l 313 0 l 125 0 l 125 991 l 411 991 l 646 233 l 650 233 l 899 991 l 1185 991 l 1185 0 l 989 0 l 989 469 q 990 577 989 516 q 995 693 992 638 q 999 777 998 749 l 993 777 l 737 0 l 545 0 z "},"N":{"ha":1129,"x_min":125,"x_max":1004,"o":"m 1004 0 l 737 0 l 306 750 l 300 750 q 304 656 302 703 q 309 561 307 608 q 313 467 311 514 l 313 0 l 125 0 l 125 991 l 390 991 l 821 249 l 825 249 q 822 340 824 295 q 818 431 820 386 q 815 522 817 477 l 815 991 l 1004 991 l 1004 0 z "},"O":{"ha":1105,"x_min":81,"x_max":1025,"o":"m 1025 497 q 996 289 1025 382 q 910 127 968 195 q 763 23 852 59 q 553 -14 674 -14 q 342 23 431 -14 q 196 127 254 59 q 109 289 138 195 q 81 498 81 383 q 131 767 81 652 q 287 944 182 881 q 554 1007 392 1007 q 820 944 715 1007 q 974 766 924 881 q 1025 497 1025 652 m 301 497 q 327 318 301 393 q 409 203 353 243 q 553 163 465 163 q 698 203 642 163 q 779 318 753 243 q 804 497 804 393 q 746 743 804 653 q 554 832 688 832 q 409 792 465 832 q 327 676 353 751 q 301 497 301 602 z "},"P":{"ha":872,"x_min":125,"x_max":810,"o":"m 441 991 q 722 909 633 991 q 810 682 810 827 q 790 558 810 617 q 726 452 770 498 q 608 379 682 406 q 425 353 534 353 l 335 353 l 335 0 l 125 0 l 125 991 l 441 991 m 431 819 l 335 819 l 335 525 l 404 525 q 507 541 463 525 q 574 589 550 556 q 597 675 597 623 q 557 784 597 748 q 431 819 516 819 z "},"Q":{"ha":1105,"x_min":81,"x_max":1025,"o":"m 1025 497 q 999 295 1025 387 q 918 136 972 203 q 781 31 864 68 l 1019 -236 l 750 -236 l 568 -14 q 560 -14 564 -14 q 553 -14 557 -14 q 342 23 431 -14 q 196 127 254 59 q 109 289 138 195 q 81 498 81 383 q 131 767 81 652 q 287 944 182 881 q 554 1007 392 1007 q 820 944 715 1007 q 974 766 924 881 q 1025 497 1025 652 m 301 497 q 327 318 301 393 q 409 203 353 243 q 553 163 465 163 q 698 203 642 163 q 779 318 753 243 q 804 497 804 393 q 746 743 804 653 q 554 832 688 832 q 409 792 465 832 q 327 676 353 751 q 301 497 301 602 z "},"R":{"ha":917,"x_min":125,"x_max":917,"o":"m 414 991 q 636 959 549 991 q 767 861 724 926 q 810 694 810 795 q 784 576 810 627 q 716 490 758 525 q 625 432 674 454 l 917 0 l 684 0 l 447 380 l 335 380 l 335 0 l 125 0 l 125 991 l 414 991 m 399 819 l 335 819 l 335 551 l 403 551 q 552 586 507 551 q 597 689 597 621 q 549 789 597 760 q 399 819 500 819 z "},"S":{"ha":765,"x_min":64,"x_max":710,"o":"m 710 275 q 667 122 710 187 q 543 22 625 57 q 345 -14 461 -14 q 244 -7 293 -14 q 150 13 195 0 q 64 46 104 26 l 64 241 q 210 185 134 210 q 361 160 286 160 q 444 174 412 160 q 490 211 475 187 q 504 265 504 235 q 479 329 504 302 q 410 378 454 355 q 311 428 366 401 q 236 468 277 444 q 159 525 195 491 q 99 607 122 559 q 75 724 75 656 q 116 876 75 812 q 232 972 157 939 q 411 1006 308 1006 q 558 988 488 1006 q 705 936 629 970 l 637 772 q 515 815 569 800 q 404 831 460 831 q 337 818 365 831 q 295 783 309 806 q 281 730 281 760 q 301 671 281 695 q 364 625 322 647 q 468 572 406 602 q 598 497 544 536 q 681 406 652 458 q 710 275 710 353 z "},"T":{"ha":804,"x_min":28,"x_max":777,"o":"m 507 0 l 297 0 l 297 817 l 28 817 l 28 991 l 777 991 l 777 817 l 507 817 l 507 0 z "},"U":{"ha":1050,"x_min":118,"x_max":932,"o":"m 932 991 l 932 350 q 887 165 932 248 q 750 35 842 83 q 521 -14 659 -14 q 221 87 324 -14 q 118 353 118 187 l 118 991 l 328 991 l 328 385 q 378 212 328 262 q 526 163 428 163 q 638 186 595 163 q 702 260 682 210 q 722 386 722 309 l 722 991 l 932 991 z "},"V":{"ha":903,"x_min":0,"x_max":903,"o":"m 903 991 l 566 0 l 336 0 l 0 991 l 212 991 l 399 401 q 414 346 404 387 q 436 259 425 304 q 452 183 448 213 q 466 258 456 213 q 487 345 477 304 q 503 401 498 386 l 690 991 l 903 991 z "},"W":{"ha":1343,"x_min":0,"x_max":1343,"o":"m 1343 991 l 1090 0 l 851 0 l 717 521 q 706 566 713 536 q 692 633 699 597 q 679 702 684 669 q 671 753 673 734 q 663 702 669 734 q 650 634 657 670 q 636 567 643 598 q 625 519 629 536 l 492 0 l 253 0 l 0 991 l 207 991 l 334 450 q 346 392 339 426 q 360 321 353 358 q 373 250 368 284 q 382 191 379 216 q 391 251 385 216 q 402 320 396 285 q 416 387 409 356 q 428 436 422 417 l 572 991 l 771 991 l 916 436 q 927 387 920 418 q 940 320 933 356 q 952 250 947 284 q 961 191 958 216 q 974 273 966 224 q 992 370 983 321 q 1010 450 1002 418 l 1136 991 l 1343 991 z "},"X":{"ha":926,"x_min":0,"x_max":926,"o":"m 926 0 l 686 0 l 456 375 l 225 0 l 0 0 l 329 511 l 21 991 l 253 991 l 467 635 l 676 991 l 903 991 l 591 500 l 926 0 z "},"Y":{"ha":867,"x_min":0,"x_max":867,"o":"m 433 583 l 640 991 l 867 991 l 538 386 l 538 0 l 329 0 l 329 379 l 0 991 l 228 991 l 433 583 z "},"Z":{"ha":804,"x_min":33,"x_max":771,"o":"m 771 0 l 33 0 l 33 136 l 509 818 l 46 818 l 46 991 l 758 991 l 758 856 l 283 174 l 771 174 l 771 0 z "},"[":{"ha":460,"x_min":97,"x_max":425,"o":"m 425 -220 l 97 -220 l 97 991 l 425 991 l 425 848 l 273 848 l 273 -77 l 425 -77 l 425 -220 z "},"\\":{"ha":574,"x_min":8,"x_max":566,"o":"m 196 991 l 566 0 l 378 0 l 8 991 l 196 991 z "},"]":{"ha":460,"x_min":35,"x_max":363,"o":"m 35 -77 l 186 -77 l 186 848 l 35 848 l 35 991 l 363 991 l 363 -220 l 35 -220 l 35 -77 z "},"^":{"ha":794,"x_min":32,"x_max":762,"o":"m 32 353 l 329 997 l 427 997 l 762 353 l 600 353 l 382 789 l 192 353 l 32 353 z "},"_":{"ha":571,"x_min":-3,"x_max":574,"o":"m 574 -220 l -3 -220 l -3 -125 l 574 -125 l 574 -220 z "},"`":{"ha":503,"x_min":56,"x_max":447,"o":"m 288 1064 q 337 995 308 1033 q 395 921 366 957 q 447 860 425 886 l 447 842 l 310 842 q 248 887 283 860 q 176 945 213 915 q 107 1003 139 975 q 56 1050 75 1031 l 56 1064 l 288 1064 z "},"a":{"ha":839,"x_min":58,"x_max":734,"o":"m 419 774 q 653 707 572 774 q 734 505 734 641 l 734 0 l 590 0 l 550 103 l 545 103 q 478 37 512 62 q 400 -1 444 11 q 293 -14 356 -14 q 173 12 226 -14 q 89 91 119 38 q 58 227 58 144 q 143 405 58 347 q 397 468 228 462 l 529 472 l 529 505 q 498 593 529 565 q 411 621 467 621 q 303 605 356 621 q 197 566 250 589 l 129 705 q 264 755 189 737 q 419 774 339 774 m 529 351 l 449 349 q 310 313 349 346 q 271 225 271 279 q 298 158 271 178 q 371 138 326 138 q 483 177 437 138 q 529 289 529 216 l 529 351 z "},"b":{"ha":879,"x_min":109,"x_max":817,"o":"m 315 1055 l 315 810 q 313 725 315 767 q 307 660 311 683 l 315 660 q 397 740 345 707 q 530 772 448 772 q 737 673 658 772 q 817 380 817 573 q 780 163 817 251 q 677 31 743 75 q 525 -14 612 -14 q 393 16 441 -14 q 315 83 345 46 l 301 83 l 267 0 l 109 0 l 109 1055 l 315 1055 m 464 607 q 378 585 410 607 q 331 517 346 562 q 315 404 317 473 l 315 382 q 348 213 315 271 q 467 154 380 154 q 568 213 530 154 q 606 383 606 272 q 568 551 606 494 q 464 607 530 607 z "},"c":{"ha":714,"x_min":62,"x_max":671,"o":"m 416 -14 q 224 27 304 -14 q 104 155 145 68 q 62 375 62 241 q 110 602 62 514 q 240 731 157 690 q 435 772 324 772 q 571 757 513 772 q 671 721 628 742 l 610 561 q 519 593 561 581 q 435 606 477 606 q 345 580 380 606 q 291 504 309 555 q 273 376 273 453 q 292 252 273 301 q 347 178 311 202 q 435 154 383 154 q 549 171 499 154 q 647 220 600 189 l 647 43 q 548 0 600 13 q 416 -14 496 -14 z "},"d":{"ha":879,"x_min":62,"x_max":771,"o":"m 349 -14 q 142 86 222 -14 q 62 378 62 185 q 143 672 62 572 q 354 772 224 772 q 450 758 408 772 q 521 718 491 743 q 572 661 551 692 l 579 661 q 569 725 575 683 q 564 812 564 768 l 564 1055 l 771 1055 l 771 0 l 612 0 l 572 98 l 564 98 q 514 42 544 67 q 444 1 485 16 q 349 -14 404 -14 m 421 151 q 541 202 506 151 q 578 354 576 252 l 578 376 q 544 546 578 487 q 418 604 510 604 q 311 545 349 604 q 272 375 272 486 q 311 208 272 264 q 421 151 350 151 z "},"e":{"ha":821,"x_min":62,"x_max":761,"o":"m 421 772 q 602 732 526 772 q 720 615 678 692 q 761 428 761 538 l 761 328 l 272 328 q 325 190 275 240 q 461 140 374 140 q 594 155 534 140 q 718 200 654 170 l 718 40 q 601 -1 662 12 q 452 -14 539 -14 q 250 28 338 -14 q 112 157 162 71 q 62 374 62 243 q 107 595 62 507 q 233 728 153 684 q 421 772 314 772 m 422 625 q 322 587 362 625 q 277 465 283 548 l 567 465 q 550 547 566 511 q 503 604 534 583 q 422 625 471 625 z "},"f":{"ha":538,"x_min":28,"x_max":600,"o":"m 528 603 l 349 603 l 349 0 l 142 0 l 142 603 l 28 603 l 28 703 l 142 758 l 142 814 q 175 965 142 911 q 268 1041 208 1019 q 410 1063 328 1063 q 519 1053 470 1063 q 600 1031 569 1043 l 547 879 q 496 892 524 886 q 432 899 468 899 q 369 872 389 899 q 349 806 349 846 l 349 758 l 528 758 l 528 603 z "},"g":{"ha":785,"x_min":4,"x_max":768,"o":"m 330 -334 q 88 -278 172 -334 q 4 -123 4 -223 q 47 -9 4 -55 q 172 57 90 37 q 117 101 140 71 q 93 167 93 132 q 118 239 93 210 q 191 296 143 268 q 96 378 131 321 q 61 513 61 435 q 97 653 61 595 q 203 742 134 711 q 372 772 273 772 q 421 770 393 772 q 472 764 449 767 q 504 758 496 760 l 768 758 l 768 653 l 650 623 q 674 569 666 597 q 682 509 682 541 q 597 318 682 387 q 361 250 512 250 q 293 256 325 252 q 269 230 277 243 q 261 201 261 216 q 274 177 261 186 q 312 162 286 167 q 375 157 337 157 l 504 157 q 694 103 629 157 q 760 -54 760 50 q 649 -260 760 -187 q 330 -334 538 -334 m 339 -199 q 466 -185 413 -199 q 548 -145 519 -171 q 576 -85 576 -120 q 560 -40 576 -56 q 510 -16 543 -23 q 424 -9 476 -9 l 317 -9 q 249 -22 279 -9 q 201 -56 218 -34 q 183 -107 183 -78 q 224 -174 183 -150 q 339 -199 265 -199 m 372 376 q 458 412 431 376 q 485 510 485 448 q 457 613 485 578 q 372 647 429 647 q 287 613 315 647 q 258 510 258 578 q 287 412 258 448 q 372 376 315 376 z "},"h":{"ha":913,"x_min":109,"x_max":808,"o":"m 315 1055 l 315 840 q 312 733 315 784 q 306 661 308 682 l 317 661 q 375 725 341 701 q 449 761 408 749 q 536 772 490 772 q 680 744 618 772 q 774 653 741 715 q 808 494 808 592 l 808 0 l 602 0 l 602 443 q 572 566 602 524 q 479 607 542 607 q 381 578 417 607 q 330 493 345 549 q 315 357 315 437 l 315 0 l 109 0 l 109 1055 l 315 1055 z "},"i":{"ha":424,"x_min":100,"x_max":325,"o":"m 315 758 l 315 0 l 109 0 l 109 758 l 315 758 m 212 1055 q 292 1034 258 1055 q 325 954 325 1013 q 292 874 325 897 q 212 852 258 852 q 133 874 165 852 q 100 954 100 897 q 133 1034 100 1013 q 212 1055 165 1055 z "},"j":{"ha":424,"x_min":-89,"x_max":325,"o":"m 47 -334 q -26 -329 12 -334 q -89 -317 -64 -323 l -89 -154 q -42 -164 -64 -161 q 8 -167 -20 -167 q 79 -143 50 -167 q 109 -52 109 -120 l 109 758 l 315 758 l 315 -82 q 289 -209 315 -151 q 203 -300 262 -266 q 47 -334 144 -334 m 100 954 q 133 1034 100 1013 q 212 1055 165 1055 q 292 1034 258 1055 q 325 954 325 1013 q 292 874 325 897 q 212 852 258 852 q 133 874 165 852 q 100 954 100 897 z "},"k":{"ha":861,"x_min":109,"x_max":861,"o":"m 315 1055 l 315 583 q 312 498 315 541 q 304 412 309 455 l 307 412 q 350 471 328 442 q 397 528 372 500 l 610 758 l 843 758 l 542 429 l 861 0 l 623 0 l 404 307 l 315 236 l 315 0 l 109 0 l 109 1055 l 315 1055 z "},"l":{"ha":424,"x_min":109,"x_max":315,"o":"m 315 0 l 109 0 l 109 1055 l 315 1055 l 315 0 z "},"m":{"ha":1364,"x_min":109,"x_max":1260,"o":"m 999 772 q 1194 706 1128 772 q 1260 494 1260 640 l 1260 0 l 1053 0 l 1053 443 q 1025 566 1053 524 q 939 607 997 607 q 822 548 857 607 q 787 380 787 490 l 787 0 l 581 0 l 581 443 q 568 534 581 497 q 531 589 556 570 q 467 607 506 607 q 376 578 409 607 q 329 493 343 549 q 315 357 315 437 l 315 0 l 109 0 l 109 758 l 267 758 l 294 661 l 306 661 q 364 725 329 701 q 441 761 399 749 q 526 772 483 772 q 668 745 610 772 q 757 661 726 718 l 775 661 q 871 746 809 720 q 999 772 933 772 z "},"n":{"ha":913,"x_min":109,"x_max":808,"o":"m 539 772 q 734 706 661 772 q 808 494 808 640 l 808 0 l 602 0 l 602 443 q 572 566 602 524 q 479 607 543 607 q 350 543 385 607 q 315 357 315 478 l 315 0 l 109 0 l 109 758 l 267 758 l 294 661 l 306 661 q 367 725 330 701 q 447 761 403 749 q 539 772 492 772 z "},"o":{"ha":860,"x_min":62,"x_max":798,"o":"m 798 380 q 772 212 798 286 q 698 89 747 139 q 582 12 650 38 q 428 -14 513 -14 q 281 12 348 -14 q 165 89 214 38 q 89 212 116 139 q 62 380 62 286 q 107 594 62 507 q 235 727 152 682 q 432 772 317 772 q 621 727 538 772 q 750 594 703 682 q 798 380 798 507 m 273 380 q 290 255 273 306 q 340 178 306 204 q 431 153 375 153 q 520 178 486 153 q 570 255 554 204 q 586 380 586 306 q 570 506 586 456 q 519 581 554 555 q 429 606 485 606 q 310 549 347 606 q 273 380 273 493 z "},"p":{"ha":879,"x_min":109,"x_max":817,"o":"m 530 772 q 738 673 659 772 q 817 380 817 573 q 779 164 817 252 q 676 31 742 76 q 525 -14 610 -14 q 431 0 470 -14 q 363 36 391 14 q 315 83 336 58 l 304 83 q 313 28 310 56 q 315 -28 315 -1 l 315 -334 l 109 -334 l 109 758 l 277 758 l 306 660 l 315 660 q 365 716 336 690 q 435 757 394 742 q 530 772 476 772 m 464 607 q 378 585 410 607 q 331 517 346 562 q 315 404 317 473 l 315 382 q 329 258 315 309 q 376 180 343 207 q 467 154 409 154 q 545 180 514 154 q 590 258 575 207 q 606 383 606 309 q 571 551 606 494 q 464 607 536 607 z "},"q":{"ha":879,"x_min":62,"x_max":771,"o":"m 564 -334 l 564 -16 q 566 42 564 13 q 572 98 568 71 l 564 98 q 483 19 534 52 q 349 -14 432 -14 q 141 86 220 -14 q 62 378 62 185 q 99 595 62 507 q 201 728 136 683 q 353 772 267 772 q 488 740 436 772 q 572 661 540 708 l 578 661 l 596 758 l 771 758 l 771 -334 l 564 -334 m 422 149 q 513 171 479 149 q 562 238 547 193 q 578 351 576 283 l 578 376 q 544 546 578 487 q 419 604 510 604 q 309 545 345 604 q 273 375 273 486 q 310 205 273 262 q 422 149 347 149 z "},"r":{"ha":631,"x_min":109,"x_max":602,"o":"m 532 772 q 568 771 547 772 q 602 766 589 769 l 586 572 q 557 577 576 576 q 525 579 538 579 q 447 569 485 579 q 380 536 410 559 q 333 476 350 513 q 315 386 315 439 l 315 0 l 109 0 l 109 758 l 265 758 l 296 631 l 306 631 q 362 702 328 669 q 438 753 395 734 q 532 772 481 772 z "},"s":{"ha":690,"x_min":62,"x_max":637,"o":"m 637 225 q 601 95 637 148 q 493 14 565 41 q 314 -14 421 -14 q 178 -3 235 -14 q 64 31 121 7 l 64 201 q 196 156 125 174 q 321 138 267 138 q 407 156 381 138 q 433 203 433 174 q 423 237 433 222 q 378 272 412 252 q 269 322 343 291 q 152 382 198 352 q 84 455 106 413 q 62 561 62 496 q 144 719 62 666 q 363 772 226 772 q 497 758 433 772 q 629 713 562 744 l 567 564 q 461 604 511 588 q 359 619 411 619 q 291 607 314 619 q 268 570 268 595 q 280 537 268 551 q 326 506 292 523 q 427 461 360 488 q 538 406 491 435 q 612 335 586 377 q 637 225 637 292 z "},"t":{"ha":603,"x_min":32,"x_max":558,"o":"m 428 151 q 494 158 462 151 q 558 175 526 165 l 558 21 q 476 -4 525 6 q 368 -14 427 -14 q 247 8 300 -14 q 162 85 193 31 q 131 237 131 140 l 131 603 l 32 603 l 32 690 l 146 760 l 205 920 l 338 920 l 338 758 l 550 758 l 550 603 l 338 603 l 338 237 q 362 173 338 194 q 428 151 387 151 z "},"u":{"ha":913,"x_min":104,"x_max":804,"o":"m 804 758 l 804 0 l 646 0 l 618 97 l 607 97 q 546 34 583 58 q 465 -2 509 9 q 374 -14 421 -14 q 232 15 292 -14 q 138 105 172 44 q 104 264 104 166 l 104 758 l 311 758 l 311 315 q 340 193 311 234 q 433 151 370 151 q 532 180 496 151 q 583 265 568 209 q 597 401 597 321 l 597 758 l 804 758 z "},"v":{"ha":790,"x_min":0,"x_max":790,"o":"m 289 0 l 0 758 l 216 758 l 363 326 q 382 246 375 288 q 392 171 389 204 l 397 171 q 407 248 399 207 q 428 326 415 288 l 574 758 l 790 758 l 501 0 l 289 0 z "},"w":{"ha":1189,"x_min":14,"x_max":1175,"o":"m 732 0 l 673 265 q 658 335 669 289 q 634 435 647 382 q 611 534 622 488 q 596 600 601 579 l 590 600 q 575 534 585 579 q 552 435 565 488 q 529 334 540 381 q 513 262 518 287 l 452 0 l 229 0 l 14 758 l 220 758 l 307 422 q 324 339 316 387 q 339 245 332 290 q 349 174 345 200 l 354 174 q 360 226 355 193 q 370 293 364 258 q 381 356 376 328 q 389 395 386 385 l 482 758 l 710 758 l 799 395 q 811 332 804 375 q 825 244 819 290 q 832 174 831 199 l 838 174 q 847 242 840 197 q 863 337 854 288 q 882 422 872 387 l 972 758 l 1175 758 l 957 0 l 732 0 z "},"x":{"ha":803,"x_min":7,"x_max":796,"o":"m 264 387 l 20 758 l 254 758 l 401 517 l 550 758 l 785 758 l 538 387 l 796 0 l 561 0 l 401 260 l 241 0 l 7 0 l 264 387 z "},"y":{"ha":790,"x_min":0,"x_max":790,"o":"m 0 758 l 227 758 l 370 332 q 381 290 376 311 q 389 247 386 269 q 395 200 393 224 l 399 200 q 410 269 403 237 q 428 332 417 300 l 568 758 l 790 758 l 469 -97 q 393 -228 440 -176 q 286 -307 347 -281 q 153 -334 225 -334 q 92 -330 117 -334 q 47 -322 66 -326 l 47 -158 q 83 -164 62 -161 q 129 -167 105 -167 q 203 -149 172 -167 q 256 -99 235 -130 q 289 -32 277 -68 l 301 5 l 0 758 z "},"z":{"ha":677,"x_min":37,"x_max":636,"o":"m 636 0 l 37 0 l 37 122 l 389 600 l 58 600 l 58 758 l 624 758 l 624 624 l 282 158 l 636 158 l 636 0 z "},"{":{"ha":547,"x_min":21,"x_max":492,"o":"m 492 -220 q 309 -200 373 -220 q 219 -139 244 -181 q 195 -31 195 -97 l 195 183 q 175 254 195 227 q 116 292 155 280 q 21 304 77 304 l 21 467 q 116 478 77 467 q 175 517 155 490 q 195 587 195 544 l 195 803 q 219 911 195 869 q 309 972 244 953 q 492 991 373 991 l 492 839 q 429 830 456 838 q 388 802 402 823 q 374 743 374 782 l 374 541 q 333 439 374 477 q 215 390 292 401 l 215 382 q 333 333 292 371 q 374 232 374 296 l 374 29 q 388 -30 374 -9 q 429 -58 402 -51 q 492 -66 456 -66 l 492 -220 z "},"|":{"ha":765,"x_min":309,"x_max":457,"o":"m 309 1051 l 457 1051 l 457 -315 l 309 -315 l 309 1051 z "},"}":{"ha":547,"x_min":56,"x_max":526,"o":"m 56 -220 l 56 -66 q 118 -58 92 -66 q 159 -30 144 -51 q 174 29 174 -9 l 174 232 q 214 333 174 296 q 332 382 255 371 l 332 390 q 214 439 255 401 q 174 541 174 477 l 174 743 q 159 802 174 782 q 118 830 144 823 q 56 839 92 838 l 56 991 q 239 972 174 991 q 328 911 303 953 q 353 803 353 869 l 353 587 q 373 517 353 544 q 431 478 393 490 q 526 467 470 467 l 526 304 q 431 292 470 304 q 373 254 393 280 q 353 183 353 227 l 353 -31 q 328 -139 353 -97 q 239 -200 303 -181 q 56 -220 174 -220 z "},"~":{"ha":794,"x_min":60,"x_max":733,"o":"m 372 418 q 286 448 321 439 q 218 456 250 456 q 137 432 179 456 q 60 374 94 408 l 60 530 q 137 586 94 567 q 233 604 180 604 q 315 596 274 604 q 421 561 355 589 q 508 531 472 539 q 575 524 545 524 q 657 547 615 524 q 733 606 699 571 l 733 449 q 656 394 699 412 q 559 375 613 375 q 478 383 519 375 q 372 418 438 391 z "}," ":{"ha":361,"x_min":0,"x_max":0,"o":""},"¡":{"ha":397,"x_min":79,"x_max":317,"o":"m 114 411 l 279 411 l 314 -250 l 79 -250 l 114 411 m 317 643 q 282 553 317 579 q 197 528 248 528 q 115 553 150 528 q 79 643 79 579 q 115 731 79 705 q 197 758 150 758 q 282 731 248 758 q 317 643 317 705 z "},"¢":{"ha":794,"x_min":97,"x_max":705,"o":"m 503 1006 l 503 899 q 618 882 568 896 q 705 848 667 867 l 644 689 q 553 721 595 709 q 469 733 511 733 q 379 708 415 733 q 326 631 344 682 q 309 504 309 581 q 328 379 309 429 q 382 306 347 330 q 469 282 418 282 q 581 296 534 282 q 682 334 628 309 l 682 161 q 595 129 639 140 q 503 114 552 117 l 503 -14 l 382 -14 l 382 119 q 229 177 292 132 q 131 302 165 221 q 97 503 97 382 q 133 714 97 633 q 232 838 168 795 q 382 893 296 881 l 382 1006 l 503 1006 z "},"£":{"ha":794,"x_min":56,"x_max":766,"o":"m 475 1006 q 617 989 550 1006 q 739 950 685 973 l 676 794 q 582 826 629 814 q 492 838 534 838 q 414 811 447 838 q 382 721 382 785 l 382 590 l 636 590 l 636 441 l 382 441 l 382 345 q 366 262 382 295 q 327 210 351 230 q 279 176 304 189 l 766 176 l 766 0 l 56 0 l 56 168 q 121 205 94 185 q 163 258 149 225 q 178 343 178 290 l 178 441 l 57 441 l 57 590 l 178 590 l 178 722 q 218 887 178 825 q 326 977 258 949 q 475 1006 393 1006 z "},"¤":{"ha":794,"x_min":77,"x_max":717,"o":"m 127 490 q 137 561 127 527 q 164 624 147 595 l 77 710 l 176 810 l 262 724 q 327 750 292 741 q 396 760 361 760 q 465 750 432 760 q 529 722 498 741 l 615 810 l 717 713 l 629 625 q 656 562 646 597 q 665 490 665 527 q 656 419 665 453 q 629 355 647 386 l 714 271 l 615 172 l 529 257 q 466 232 500 241 q 396 222 432 222 q 325 231 359 222 q 261 257 290 239 l 176 174 l 78 272 l 164 357 q 137 420 146 387 q 127 490 127 454 m 268 490 q 285 426 268 455 q 332 380 302 397 q 396 363 361 363 q 461 380 432 363 q 509 426 491 397 q 526 490 526 455 q 509 555 526 526 q 461 602 491 585 q 396 619 432 619 q 332 602 361 619 q 285 555 302 585 q 268 490 268 526 z "},"¥":{"ha":794,"x_min":4,"x_max":787,"o":"m 396 583 l 575 991 l 787 991 l 528 485 l 660 485 l 660 364 l 493 364 l 493 271 l 660 271 l 660 150 l 493 150 l 493 0 l 298 0 l 298 150 l 131 150 l 131 271 l 298 271 l 298 364 l 131 364 l 131 485 l 260 485 l 4 991 l 218 991 l 396 583 z "},"¦":{"ha":765,"x_min":309,"x_max":457,"o":"m 309 1051 l 457 1051 l 457 498 l 309 498 l 309 1051 m 309 237 l 457 237 l 457 -315 l 309 -315 l 309 237 z "},"§":{"ha":675,"x_min":72,"x_max":607,"o":"m 82 543 q 109 645 82 603 q 172 711 136 686 q 106 778 130 739 q 82 868 82 817 q 158 1009 82 956 q 357 1063 233 1063 q 486 1047 426 1063 q 603 1006 545 1031 l 547 876 q 453 916 502 898 q 353 933 405 933 q 273 918 298 933 q 248 871 248 903 q 262 830 248 848 q 309 795 277 812 q 392 758 341 779 q 505 700 456 732 q 580 626 553 668 q 607 529 607 584 q 584 420 607 461 q 522 354 560 379 q 586 291 564 327 q 607 205 607 256 q 527 46 607 105 q 309 -14 446 -14 q 177 0 235 -14 q 72 40 119 14 l 72 180 q 149 148 108 163 q 232 123 191 132 q 309 114 274 114 q 412 137 385 114 q 440 193 440 160 q 430 233 440 216 q 390 267 420 250 q 300 310 359 285 q 182 369 231 338 q 108 440 134 399 q 82 543 82 481 m 233 558 q 250 507 233 530 q 302 462 267 484 q 390 418 336 440 l 400 414 q 436 452 420 429 q 453 511 453 476 q 440 563 453 539 q 392 608 427 586 q 294 652 358 629 q 252 617 271 642 q 233 558 233 593 z "},"¨":{"ha":843,"x_min":189,"x_max":654,"o":"m 189 953 q 217 1023 189 1001 q 283 1044 244 1044 q 351 1023 322 1044 q 379 953 379 1001 q 351 885 379 907 q 283 863 322 863 q 217 885 244 863 q 189 953 189 907 m 463 953 q 490 1023 463 1001 q 558 1044 517 1044 q 626 1023 597 1044 q 654 953 654 1001 q 626 885 654 907 q 558 863 597 863 q 490 885 517 863 q 463 953 463 907 z "},"©":{"ha":1156,"x_min":68,"x_max":1088,"o":"m 578 -14 q 374 24 467 -14 q 212 130 281 62 q 105 292 143 199 q 68 496 68 385 q 106 694 68 602 q 214 857 144 787 q 376 966 283 926 q 578 1006 469 1006 q 776 968 684 1006 q 939 862 869 930 q 1048 700 1008 793 q 1088 496 1088 607 q 1050 292 1088 385 q 944 130 1013 199 q 782 24 875 62 q 578 -14 689 -14 m 599 178 q 387 265 457 178 q 317 496 317 353 q 350 660 317 589 q 447 773 382 732 q 604 814 511 814 q 692 803 647 814 q 775 772 736 792 l 734 679 q 668 706 701 696 q 606 715 635 715 q 478 657 524 715 q 433 496 433 598 q 473 332 433 389 q 604 275 513 275 q 676 284 636 275 q 750 307 715 294 l 750 211 q 682 187 717 197 q 599 178 648 178 m 578 75 q 738 106 663 75 q 869 193 812 137 q 958 327 926 250 q 990 496 990 404 q 959 659 990 583 q 872 794 928 736 q 741 885 816 852 q 578 918 666 918 q 413 887 489 918 q 281 799 338 856 q 194 665 225 743 q 163 496 163 588 q 193 327 163 404 q 279 193 224 250 q 411 106 335 137 q 578 75 487 75 z "},"ª":{"ha":532,"x_min":32,"x_max":472,"o":"m 278 1003 q 425 953 377 1003 q 472 818 472 903 l 472 518 l 380 518 l 359 593 q 288 532 330 553 q 196 510 246 510 q 110 526 146 510 q 52 576 73 543 q 32 661 32 610 q 60 748 32 715 q 141 796 88 781 q 269 815 195 812 l 336 818 l 336 829 q 315 879 336 861 q 250 897 293 897 q 181 886 219 897 q 103 856 143 874 l 58 947 q 157 986 103 969 q 278 1003 212 1003 m 336 737 l 269 733 q 189 708 208 729 q 171 663 171 686 q 186 625 171 637 q 224 612 202 612 q 306 641 276 612 q 336 713 336 669 l 336 737 z "},"«":{"ha":854,"x_min":56,"x_max":799,"o":"m 56 389 l 307 697 l 456 616 l 267 380 l 456 144 l 307 64 l 56 371 l 56 389 m 399 389 l 650 697 l 799 616 l 610 380 l 799 144 l 650 64 l 399 371 l 399 389 z "},"¬":{"ha":794,"x_min":60,"x_max":733,"o":"m 733 564 l 733 168 l 585 168 l 585 415 l 60 415 l 60 564 l 733 564 z "},"­":{"ha":447,"x_min":41,"x_max":406,"o":"m 41 288 l 41 457 l 406 457 l 406 288 l 41 288 z "},"®":{"ha":1156,"x_min":68,"x_max":1088,"o":"m 380 192 l 380 806 l 566 806 q 732 758 679 806 q 785 619 785 709 q 751 516 785 553 q 676 461 718 478 l 838 192 l 711 192 l 579 425 l 493 425 l 493 192 l 380 192 m 493 518 l 562 518 q 644 546 616 518 q 671 616 671 573 q 646 688 671 666 q 561 710 621 710 l 493 710 l 493 518 m 578 -14 q 374 24 467 -14 q 212 130 281 62 q 105 292 143 199 q 68 496 68 385 q 106 694 68 602 q 214 857 144 787 q 376 966 283 926 q 578 1006 469 1006 q 776 968 684 1006 q 939 862 869 930 q 1048 700 1008 793 q 1088 496 1088 607 q 1050 292 1088 385 q 944 130 1013 199 q 782 24 875 62 q 578 -14 689 -14 m 578 75 q 738 106 663 75 q 869 193 812 137 q 958 327 926 250 q 990 496 990 404 q 959 659 990 583 q 872 794 928 736 q 741 885 816 852 q 578 918 666 918 q 413 887 489 918 q 281 799 338 856 q 194 665 225 743 q 163 496 163 588 q 193 327 163 404 q 279 193 224 250 q 411 106 335 137 q 578 75 487 75 z "},"¯":{"ha":694,"x_min":-4,"x_max":699,"o":"m 699 1055 l -4 1055 l -4 1192 l 699 1192 l 699 1055 z "},"°":{"ha":595,"x_min":54,"x_max":539,"o":"m 297 538 q 171 567 226 538 q 85 650 116 597 q 54 771 54 703 q 85 892 54 839 q 171 975 116 945 q 297 1006 226 1006 q 423 976 369 1006 q 508 892 477 945 q 539 771 539 840 q 508 650 539 703 q 423 567 477 597 q 297 538 369 538 m 297 667 q 372 695 341 667 q 403 771 403 723 q 372 849 403 821 q 297 878 341 878 q 223 849 254 878 q 192 771 192 821 q 223 695 192 723 q 297 667 254 667 z "},"±":{"ha":794,"x_min":60,"x_max":733,"o":"m 60 0 l 60 149 l 733 149 l 733 0 l 60 0 m 471 605 l 733 605 l 733 456 l 471 456 l 471 195 l 322 195 l 322 456 l 60 456 l 60 605 l 322 605 l 322 869 l 471 869 l 471 605 z "},"²":{"ha":526,"x_min":32,"x_max":476,"o":"m 476 578 l 37 578 l 37 692 l 189 840 q 254 908 231 881 q 287 957 277 935 q 297 1003 297 979 q 281 1042 297 1028 q 237 1055 264 1055 q 181 1041 210 1055 q 115 996 151 1027 l 32 1099 q 131 1162 76 1137 q 260 1186 186 1186 q 405 1143 349 1186 q 460 1017 460 1099 q 445 939 460 975 q 396 865 429 903 q 309 778 363 827 l 237 714 l 476 714 l 476 578 z "},"³":{"ha":526,"x_min":40,"x_max":471,"o":"m 256 1185 q 396 1142 340 1185 q 452 1028 452 1100 q 424 947 452 981 q 336 893 397 913 l 336 885 q 438 831 405 870 q 471 743 471 791 q 411 614 471 661 q 225 567 351 567 q 129 578 174 567 q 40 614 84 590 l 40 743 q 130 699 85 716 q 224 682 174 682 q 297 701 274 682 q 321 754 321 719 q 297 804 321 782 q 208 827 274 827 l 132 827 l 132 935 l 195 935 q 286 958 265 935 q 306 1008 306 981 q 289 1051 306 1034 q 237 1068 272 1068 q 177 1055 205 1068 q 110 1015 149 1042 l 41 1111 q 135 1164 83 1143 q 256 1185 186 1185 z "},"´":{"ha":503,"x_min":56,"x_max":447,"o":"m 447 1064 l 447 1050 q 395 1003 427 1031 q 327 945 363 975 q 255 887 290 915 q 193 842 220 860 l 56 842 l 56 860 q 107 921 78 886 q 166 995 137 957 q 215 1064 195 1033 l 447 1064 z "},"µ":{"ha":917,"x_min":109,"x_max":808,"o":"m 808 758 l 808 0 l 652 0 l 623 102 l 612 102 q 570 38 594 64 q 514 -1 545 12 q 443 -14 483 -14 q 368 2 401 -14 q 313 47 334 18 l 309 47 q 312 4 311 33 q 314 -59 313 -26 q 315 -117 315 -92 l 315 -334 l 109 -334 l 109 758 l 315 758 l 315 315 q 345 193 315 234 q 439 151 375 151 q 536 180 500 151 q 587 265 572 209 q 602 401 602 321 l 602 758 l 808 758 z "},"¶":{"ha":909,"x_min":77,"x_max":791,"o":"m 791 -176 l 682 -176 l 682 920 l 570 920 l 570 -176 l 460 -176 l 460 379 q 415 370 439 373 q 361 367 391 367 q 211 399 275 367 q 112 506 147 431 q 77 707 77 580 q 115 916 77 840 q 222 1023 153 991 q 382 1055 291 1055 l 791 1055 l 791 -176 z "},"·":{"ha":396,"x_min":79,"x_max":317,"o":"m 79 489 q 114 578 79 553 q 199 604 149 604 q 282 578 247 604 q 317 489 317 553 q 282 401 317 428 q 199 374 247 374 q 114 401 149 374 q 79 489 79 428 z "},"¸":{"ha":285,"x_min":-25,"x_max":283,"o":"m 283 -170 q 238 -291 283 -248 q 74 -334 193 -334 q 19 -330 43 -334 q -25 -319 -5 -326 l -25 -205 q 23 -215 -5 -210 q 72 -220 52 -220 q 106 -211 92 -220 q 121 -178 121 -201 q 96 -133 121 -153 q 8 -104 71 -113 l 61 0 l 192 0 l 174 -41 q 227 -67 201 -50 q 268 -110 252 -85 q 283 -170 283 -136 z "},"¹":{"ha":526,"x_min":62,"x_max":396,"o":"m 396 1173 l 396 578 l 235 578 l 235 880 q 235 928 235 899 q 237 984 236 958 q 240 1021 239 1010 q 216 994 232 1010 q 189 968 201 977 l 136 926 l 62 1013 l 267 1173 l 396 1173 z "},"º":{"ha":539,"x_min":39,"x_max":500,"o":"m 500 757 q 437 575 500 640 q 268 510 374 510 q 103 575 168 510 q 39 757 39 640 q 101 939 39 875 q 271 1003 163 1003 q 388 974 336 1003 q 470 890 439 945 q 500 757 500 836 m 176 757 q 198 655 176 689 q 269 621 220 621 q 339 655 317 621 q 361 757 361 689 q 339 858 361 825 q 269 892 317 892 q 198 858 220 892 q 176 757 176 825 z "},"»":{"ha":854,"x_min":56,"x_max":799,"o":"m 799 371 l 547 64 l 399 144 l 587 380 l 399 616 l 547 697 l 799 389 l 799 371 m 456 371 l 204 64 l 56 144 l 244 380 l 56 616 l 204 697 l 456 389 l 456 371 z "},"¼":{"ha":1153,"x_min":31,"x_max":1140,"o":"m 216 0 l 766 991 l 929 991 l 379 0 l 216 0 m 203 397 l 203 700 q 203 747 203 718 q 205 803 204 777 q 208 840 207 830 q 184 813 200 829 q 157 787 168 797 l 104 746 l 31 832 l 235 991 l 364 991 l 364 397 l 203 397 m 895 0 l 895 103 l 635 103 l 635 207 l 896 599 l 1055 599 l 1055 216 l 1140 216 l 1140 103 l 1055 103 l 1055 0 l 895 0 m 760 216 l 895 216 l 895 328 q 896 388 895 356 q 899 453 897 420 q 875 399 892 434 q 846 346 859 365 l 760 216 z "},"½":{"ha":1214,"x_min":31,"x_max":1164,"o":"m 216 0 l 766 991 l 929 991 l 379 0 l 216 0 m 203 397 l 203 700 q 203 734 203 713 q 204 776 203 754 q 207 815 205 798 q 208 840 208 832 q 184 813 200 829 q 157 787 168 797 l 104 746 l 31 832 l 235 991 l 364 991 l 364 397 l 203 397 m 725 0 l 725 114 l 876 262 q 942 330 918 303 q 975 379 965 357 q 985 425 985 401 q 968 464 985 450 q 925 478 952 478 q 868 464 898 478 q 803 418 838 450 l 720 521 q 819 584 764 559 q 947 608 873 608 q 1092 565 1037 608 q 1147 439 1147 522 q 1132 361 1147 397 q 1083 288 1117 326 q 996 200 1050 250 l 925 136 l 1164 136 l 1164 0 l 725 0 z "},"¾":{"ha":1174,"x_min":61,"x_max":1161,"o":"m 265 0 l 815 991 l 978 991 l 428 0 l 265 0 m 245 386 q 150 398 195 386 q 61 433 105 410 l 61 562 q 151 518 106 535 q 244 501 195 501 q 318 520 294 501 q 342 574 342 538 q 318 624 342 602 q 229 646 295 646 l 153 646 l 153 754 l 215 754 q 306 777 286 754 q 326 828 326 800 q 310 871 326 854 q 258 888 293 888 q 197 875 226 888 q 131 835 169 862 l 62 930 q 156 983 104 962 q 277 1004 207 1004 q 416 962 361 1004 q 472 847 472 920 q 445 766 472 800 q 357 713 417 732 l 357 704 q 459 650 426 690 q 492 562 492 610 q 432 433 492 480 q 245 386 372 386 m 916 0 l 916 103 l 656 103 l 656 207 l 917 599 l 1076 599 l 1076 216 l 1161 216 l 1161 103 l 1076 103 l 1076 0 l 916 0 m 781 216 l 916 216 l 916 328 q 917 388 916 356 q 920 453 918 420 q 896 399 912 434 q 867 346 880 365 l 781 216 z "},"¿":{"ha":663,"x_min":37,"x_max":663,"o":"m 479 410 l 479 360 q 467 279 479 315 q 426 211 454 243 q 350 144 397 179 q 283 91 309 115 q 245 44 257 68 q 233 -9 233 20 q 266 -76 233 -53 q 357 -100 299 -100 q 472 -81 415 -100 q 589 -33 530 -63 l 663 -182 q 516 -243 595 -219 q 342 -267 437 -267 q 117 -197 197 -267 q 37 -20 37 -127 q 55 78 37 37 q 110 156 73 120 q 200 231 146 191 q 263 281 241 260 q 292 321 284 301 q 300 370 300 341 l 300 410 l 479 410 m 501 642 q 467 553 501 578 q 382 527 432 527 q 299 553 334 527 q 264 642 264 578 q 299 730 264 703 q 382 758 334 758 q 467 730 432 758 q 501 642 501 703 z "},"À":{"ha":958,"x_min":0,"x_max":958,"o":"m 732 0 l 660 236 l 298 236 l 227 0 l 0 0 l 350 996 l 607 996 l 958 0 l 732 0 m 610 412 l 538 643 q 520 702 531 666 q 497 776 509 739 q 479 842 486 814 q 461 773 473 814 q 438 695 449 732 q 422 643 427 659 l 351 412 l 610 412 m 446 1297 q 495 1228 466 1266 q 553 1155 524 1190 q 605 1093 583 1119 l 605 1075 l 468 1075 q 406 1121 441 1093 q 334 1178 371 1148 q 265 1236 297 1208 q 214 1283 233 1264 l 214 1297 l 446 1297 z "},"Á":{"ha":958,"x_min":0,"x_max":958,"o":"m 732 0 l 660 236 l 298 236 l 227 0 l 0 0 l 350 996 l 607 996 l 958 0 l 732 0 m 610 412 l 538 643 q 520 702 531 666 q 497 776 509 739 q 479 842 486 814 q 461 773 473 814 q 438 695 449 732 q 422 643 427 659 l 351 412 l 610 412 m 745 1297 l 745 1283 q 694 1236 726 1264 q 625 1178 662 1208 q 553 1121 589 1148 q 492 1075 518 1093 l 354 1075 l 354 1093 q 406 1155 376 1119 q 465 1228 435 1190 q 513 1297 494 1266 l 745 1297 z "},"Â":{"ha":958,"x_min":0,"x_max":958,"o":"m 732 0 l 660 236 l 298 236 l 227 0 l 0 0 l 350 996 l 607 996 l 958 0 l 732 0 m 610 412 l 538 643 q 520 702 531 666 q 497 776 509 739 q 479 842 486 814 q 461 773 473 814 q 438 695 449 732 q 422 643 427 659 l 351 412 l 610 412 m 602 1297 q 653 1228 621 1266 q 718 1154 684 1190 q 775 1093 751 1118 l 775 1075 l 638 1075 q 558 1127 602 1097 q 479 1194 515 1157 q 401 1127 443 1157 q 324 1075 360 1098 l 186 1075 l 186 1093 q 245 1155 212 1119 q 310 1228 279 1190 q 360 1297 341 1266 l 602 1297 z "},"Ã":{"ha":958,"x_min":0,"x_max":958,"o":"m 732 0 l 660 236 l 298 236 l 227 0 l 0 0 l 350 996 l 607 996 l 958 0 l 732 0 m 610 412 l 538 643 q 520 702 531 666 q 497 776 509 739 q 479 842 486 814 q 461 773 473 814 q 438 695 449 732 q 422 643 427 659 l 351 412 l 610 412 m 197 1074 q 217 1167 201 1128 q 258 1233 233 1207 q 314 1271 283 1258 q 382 1283 346 1283 q 436 1273 410 1283 q 489 1248 463 1262 q 541 1223 515 1234 q 591 1213 566 1213 q 630 1231 611 1213 q 659 1284 650 1249 l 760 1284 q 699 1126 751 1177 q 575 1075 646 1075 q 520 1086 547 1075 q 468 1111 494 1097 q 416 1135 441 1124 q 367 1146 391 1146 q 327 1128 346 1146 q 298 1074 307 1110 l 197 1074 z "},"Ä":{"ha":958,"x_min":0,"x_max":958,"o":"m 732 0 l 660 236 l 298 236 l 227 0 l 0 0 l 350 996 l 607 996 l 958 0 l 732 0 m 610 412 l 538 643 q 520 702 531 666 q 497 776 509 739 q 479 842 486 814 q 461 773 473 814 q 438 695 449 732 q 422 643 427 659 l 351 412 l 610 412 m 246 1186 q 274 1256 246 1234 q 340 1278 301 1278 q 408 1256 379 1278 q 436 1186 436 1234 q 408 1118 436 1141 q 340 1096 379 1096 q 274 1118 301 1096 q 246 1186 246 1141 m 519 1186 q 547 1256 519 1234 q 615 1278 574 1278 q 683 1256 654 1278 q 711 1186 711 1234 q 683 1118 711 1141 q 615 1096 654 1096 q 547 1118 574 1096 q 519 1186 519 1141 z "},"Å":{"ha":958,"x_min":0,"x_max":958,"o":"m 732 0 l 660 236 l 298 236 l 227 0 l 0 0 l 350 996 l 607 996 l 958 0 l 732 0 m 610 412 l 538 643 q 520 702 531 666 q 497 776 509 739 q 479 842 486 814 q 461 773 473 814 q 438 695 449 732 q 422 643 427 659 l 351 412 l 610 412 m 478 900 q 356 943 403 900 q 310 1061 310 986 q 356 1179 310 1136 q 478 1222 403 1222 q 600 1179 550 1222 q 650 1063 650 1137 q 601 943 650 987 q 478 900 551 900 m 478 996 q 525 1013 506 996 q 543 1061 543 1031 q 525 1109 543 1091 q 478 1126 506 1126 q 431 1109 450 1126 q 412 1061 412 1091 q 429 1013 412 1031 q 478 996 446 996 z "},"Æ":{"ha":1322,"x_min":0,"x_max":1240,"o":"m 1240 0 l 648 0 l 648 236 l 315 236 l 214 0 l 0 0 l 444 991 l 1240 991 l 1240 819 l 859 819 l 859 602 l 1215 602 l 1215 429 l 859 429 l 859 174 l 1240 174 l 1240 0 m 392 412 l 648 412 l 648 812 l 562 812 l 392 412 z "},"Ç":{"ha":885,"x_min":81,"x_max":836,"o":"m 546 831 q 439 807 486 831 q 361 740 393 784 q 313 633 330 696 q 297 493 297 571 q 323 314 297 388 q 404 200 349 239 q 546 161 459 161 q 667 175 606 161 q 799 214 728 189 l 799 37 q 669 -2 733 10 q 526 -14 606 -14 q 274 50 373 -14 q 128 228 176 113 q 81 494 81 342 q 111 701 81 607 q 201 863 142 794 q 347 968 260 931 q 546 1006 433 1006 q 694 987 620 1006 q 836 936 768 968 l 768 765 q 656 811 713 791 q 546 831 600 831 m 675 -170 q 630 -291 675 -248 q 466 -334 585 -334 q 411 -330 435 -334 q 367 -319 387 -326 l 367 -205 q 415 -215 387 -210 q 464 -220 444 -220 q 498 -211 484 -220 q 513 -178 513 -201 q 488 -133 513 -153 q 400 -104 463 -113 l 453 0 l 584 0 l 566 -41 q 618 -67 593 -50 q 660 -110 644 -85 q 675 -170 675 -136 z "},"È":{"ha":778,"x_min":125,"x_max":696,"o":"m 696 0 l 125 0 l 125 991 l 696 991 l 696 819 l 335 819 l 335 602 l 671 602 l 671 429 l 335 429 l 335 174 l 696 174 l 696 0 m 385 1297 q 434 1228 405 1266 q 492 1155 463 1190 q 544 1093 522 1119 l 544 1075 l 407 1075 q 345 1121 380 1093 q 273 1178 310 1148 q 204 1236 236 1208 q 153 1283 172 1264 l 153 1297 l 385 1297 z "},"É":{"ha":778,"x_min":125,"x_max":696,"o":"m 696 0 l 125 0 l 125 991 l 696 991 l 696 819 l 335 819 l 335 602 l 671 602 l 671 429 l 335 429 l 335 174 l 696 174 l 696 0 m 684 1297 l 684 1283 q 633 1236 665 1264 q 564 1178 601 1208 q 492 1121 528 1148 q 431 1075 457 1093 l 293 1075 l 293 1093 q 345 1155 315 1119 q 404 1228 374 1190 q 452 1297 433 1266 l 684 1297 z "},"Ê":{"ha":778,"x_min":125,"x_max":713,"o":"m 696 0 l 125 0 l 125 991 l 696 991 l 696 819 l 335 819 l 335 602 l 671 602 l 671 429 l 335 429 l 335 174 l 696 174 l 696 0 m 540 1297 q 591 1228 559 1266 q 656 1154 623 1190 q 713 1093 689 1118 l 713 1075 l 576 1075 q 497 1127 540 1097 q 418 1194 454 1157 q 340 1127 381 1157 q 262 1075 298 1098 l 125 1075 l 125 1093 q 184 1155 151 1119 q 248 1228 217 1190 q 298 1297 279 1266 l 540 1297 z "},"Ë":{"ha":778,"x_min":125,"x_max":696,"o":"m 696 0 l 125 0 l 125 991 l 696 991 l 696 819 l 335 819 l 335 602 l 671 602 l 671 429 l 335 429 l 335 174 l 696 174 l 696 0 m 185 1186 q 213 1256 185 1234 q 279 1278 240 1278 q 347 1256 318 1278 q 375 1186 375 1234 q 347 1118 375 1141 q 279 1096 318 1096 q 213 1118 240 1096 q 185 1186 185 1141 m 458 1186 q 486 1256 458 1234 q 554 1278 513 1278 q 622 1256 593 1278 q 650 1186 650 1234 q 622 1118 650 1141 q 554 1096 593 1096 q 486 1118 513 1096 q 458 1186 458 1141 z "},"Ì":{"ha":460,"x_min":-62,"x_max":335,"o":"m 125 0 l 125 991 l 335 991 l 335 0 l 125 0 m 170 1297 q 219 1228 190 1266 q 277 1155 248 1190 q 329 1093 307 1119 l 329 1075 l 192 1075 q 130 1121 165 1093 q 58 1178 95 1148 q -11 1236 21 1208 q -62 1283 -43 1264 l -62 1297 l 170 1297 z "},"Í":{"ha":460,"x_min":125,"x_max":523,"o":"m 125 0 l 125 991 l 335 991 l 335 0 l 125 0 m 523 1297 l 523 1283 q 471 1236 503 1264 q 403 1178 439 1208 q 331 1121 366 1148 q 269 1075 296 1093 l 132 1075 l 132 1093 q 183 1155 154 1119 q 242 1228 213 1190 q 291 1297 271 1266 l 523 1297 z "},"Î":{"ha":460,"x_min":-64,"x_max":525,"o":"m 125 0 l 125 991 l 335 991 l 335 0 l 125 0 m 351 1297 q 402 1228 371 1266 q 467 1154 434 1190 q 525 1093 500 1118 l 525 1075 l 388 1075 q 308 1127 351 1097 q 229 1194 265 1157 q 151 1127 193 1157 q 74 1075 110 1098 l -64 1075 l -64 1093 q -5 1155 -38 1119 q 60 1228 28 1190 q 110 1297 91 1266 l 351 1297 z "},"Ï":{"ha":460,"x_min":-3,"x_max":463,"o":"m 125 0 l 125 991 l 335 991 l 335 0 l 125 0 m -3 1186 q 25 1256 -3 1234 q 92 1278 52 1278 q 159 1256 130 1278 q 187 1186 187 1234 q 159 1118 187 1141 q 92 1096 130 1096 q 25 1118 52 1096 q -3 1186 -3 1141 m 271 1186 q 298 1256 271 1234 q 366 1278 326 1278 q 434 1256 405 1278 q 463 1186 463 1234 q 434 1118 463 1141 q 366 1096 405 1096 q 298 1118 326 1096 q 271 1186 271 1141 z "},"Ð":{"ha":1028,"x_min":32,"x_max":947,"o":"m 436 991 q 707 936 592 991 q 884 773 821 881 q 947 505 947 665 q 883 225 947 338 q 698 57 819 113 q 406 0 576 0 l 125 0 l 125 404 l 32 404 l 32 576 l 125 576 l 125 991 l 436 991 m 446 819 l 335 819 l 335 576 l 496 576 l 496 404 l 335 404 l 335 174 l 424 174 q 652 256 576 174 q 729 500 729 338 q 696 681 729 610 q 600 785 663 751 q 446 819 536 819 z "},"Ñ":{"ha":1129,"x_min":125,"x_max":1004,"o":"m 1004 0 l 737 0 l 306 750 l 300 750 q 304 656 302 703 q 309 561 307 608 q 313 467 311 514 l 313 0 l 125 0 l 125 991 l 390 991 l 821 249 l 825 249 q 822 340 824 295 q 818 431 820 386 q 815 522 817 477 l 815 991 l 1004 991 l 1004 0 m 283 1074 q 303 1167 288 1128 q 344 1233 319 1207 q 400 1271 369 1258 q 468 1283 432 1283 q 523 1273 496 1283 q 575 1248 549 1262 q 627 1223 602 1234 q 677 1213 652 1213 q 716 1231 697 1213 q 745 1284 736 1249 l 846 1284 q 785 1126 838 1177 q 661 1075 732 1075 q 607 1086 633 1075 q 554 1111 580 1097 q 503 1135 528 1124 q 453 1146 477 1146 q 413 1128 432 1146 q 385 1074 393 1110 l 283 1074 z "},"Ò":{"ha":1105,"x_min":81,"x_max":1025,"o":"m 1025 497 q 996 289 1025 382 q 910 127 968 195 q 763 23 852 59 q 553 -14 674 -14 q 342 23 431 -14 q 196 127 254 59 q 109 289 138 195 q 81 498 81 383 q 131 767 81 652 q 287 944 182 881 q 554 1007 392 1007 q 820 944 715 1007 q 974 766 924 881 q 1025 497 1025 652 m 301 497 q 327 318 301 393 q 409 203 353 243 q 553 163 465 163 q 698 203 642 163 q 779 318 753 243 q 804 497 804 393 q 746 743 804 653 q 554 832 688 832 q 409 792 465 832 q 327 676 353 751 q 301 497 301 602 m 519 1297 q 569 1228 540 1266 q 627 1155 597 1190 q 679 1093 657 1119 l 679 1075 l 542 1075 q 480 1121 515 1093 q 408 1178 445 1148 q 339 1236 371 1208 q 288 1283 307 1264 l 288 1297 l 519 1297 z "},"Ó":{"ha":1105,"x_min":81,"x_max":1025,"o":"m 1025 497 q 996 289 1025 382 q 910 127 968 195 q 763 23 852 59 q 553 -14 674 -14 q 342 23 431 -14 q 196 127 254 59 q 109 289 138 195 q 81 498 81 383 q 131 767 81 652 q 287 944 182 881 q 554 1007 392 1007 q 820 944 715 1007 q 974 766 924 881 q 1025 497 1025 652 m 301 497 q 327 318 301 393 q 409 203 353 243 q 553 163 465 163 q 698 203 642 163 q 779 318 753 243 q 804 497 804 393 q 746 743 804 653 q 554 832 688 832 q 409 792 465 832 q 327 676 353 751 q 301 497 301 602 m 819 1297 l 819 1283 q 768 1236 800 1264 q 699 1178 736 1208 q 627 1121 663 1148 q 566 1075 592 1093 l 428 1075 l 428 1093 q 480 1155 450 1119 q 538 1228 509 1190 q 587 1297 568 1266 l 819 1297 z "},"Ô":{"ha":1105,"x_min":81,"x_max":1025,"o":"m 1025 497 q 996 289 1025 382 q 910 127 968 195 q 763 23 852 59 q 553 -14 674 -14 q 342 23 431 -14 q 196 127 254 59 q 109 289 138 195 q 81 498 81 383 q 131 767 81 652 q 287 944 182 881 q 554 1007 392 1007 q 820 944 715 1007 q 974 766 924 881 q 1025 497 1025 652 m 301 497 q 327 318 301 393 q 409 203 353 243 q 553 163 465 163 q 698 203 642 163 q 779 318 753 243 q 804 497 804 393 q 746 743 804 653 q 554 832 688 832 q 409 792 465 832 q 327 676 353 751 q 301 497 301 602 m 675 1297 q 726 1228 694 1266 q 791 1154 758 1190 q 848 1093 824 1118 l 848 1075 l 711 1075 q 632 1127 675 1097 q 553 1194 589 1157 q 475 1127 516 1157 q 397 1075 433 1098 l 260 1075 l 260 1093 q 319 1155 286 1119 q 383 1228 352 1190 q 433 1297 414 1266 l 675 1297 z "},"Õ":{"ha":1105,"x_min":81,"x_max":1025,"o":"m 1025 497 q 996 289 1025 382 q 910 127 968 195 q 763 23 852 59 q 553 -14 674 -14 q 342 23 431 -14 q 196 127 254 59 q 109 289 138 195 q 81 498 81 383 q 131 767 81 652 q 287 944 182 881 q 554 1007 392 1007 q 820 944 715 1007 q 974 766 924 881 q 1025 497 1025 652 m 301 497 q 327 318 301 393 q 409 203 353 243 q 553 163 465 163 q 698 203 642 163 q 779 318 753 243 q 804 497 804 393 q 746 743 804 653 q 554 832 688 832 q 409 792 465 832 q 327 676 353 751 q 301 497 301 602 m 271 1074 q 290 1167 275 1128 q 331 1233 306 1207 q 388 1271 356 1258 q 455 1283 419 1283 q 510 1273 483 1283 q 563 1248 536 1262 q 614 1223 589 1234 q 664 1213 640 1213 q 704 1231 684 1213 q 732 1284 723 1249 l 833 1284 q 772 1126 825 1177 q 648 1075 719 1075 q 594 1086 621 1075 q 541 1111 567 1097 q 490 1135 515 1124 q 440 1146 465 1146 q 400 1128 419 1146 q 372 1074 380 1110 l 271 1074 z "},"Ö":{"ha":1105,"x_min":81,"x_max":1025,"o":"m 1025 497 q 996 289 1025 382 q 910 127 968 195 q 763 23 852 59 q 553 -14 674 -14 q 342 23 431 -14 q 196 127 254 59 q 109 289 138 195 q 81 498 81 383 q 131 767 81 652 q 287 944 182 881 q 554 1007 392 1007 q 820 944 715 1007 q 974 766 924 881 q 1025 497 1025 652 m 301 497 q 327 318 301 393 q 409 203 353 243 q 553 163 465 163 q 698 203 642 163 q 779 318 753 243 q 804 497 804 393 q 746 743 804 653 q 554 832 688 832 q 409 792 465 832 q 327 676 353 751 q 301 497 301 602 m 320 1186 q 348 1256 320 1234 q 414 1278 375 1278 q 481 1256 453 1278 q 510 1186 510 1234 q 481 1118 510 1141 q 414 1096 453 1096 q 348 1118 375 1096 q 320 1186 320 1141 m 593 1186 q 621 1256 593 1234 q 689 1278 648 1278 q 756 1256 728 1278 q 785 1186 785 1234 q 756 1118 785 1141 q 689 1096 728 1096 q 621 1118 648 1096 q 593 1186 593 1141 z "},"×":{"ha":794,"x_min":87,"x_max":705,"o":"m 602 799 l 705 697 l 498 490 l 703 285 l 602 182 l 395 386 l 191 183 l 89 286 l 290 490 l 87 694 l 191 799 l 395 596 l 602 799 z "},"Ø":{"ha":1105,"x_min":81,"x_max":1025,"o":"m 1025 497 q 996 289 1025 382 q 910 127 968 195 q 763 23 852 59 q 553 -14 674 -14 q 429 -2 486 -14 q 325 31 372 9 l 264 -61 l 154 12 l 215 104 q 114 272 146 172 q 81 498 81 372 q 131 767 81 652 q 287 944 182 881 q 554 1007 392 1007 q 681 995 623 1007 q 787 960 740 983 l 844 1044 l 953 974 l 893 885 q 992 720 960 819 q 1025 497 1025 621 m 804 497 q 796 608 804 557 q 770 699 787 659 l 431 189 q 486 170 456 176 q 553 163 516 163 q 698 203 642 163 q 779 318 753 243 q 804 497 804 393 m 301 497 q 310 382 301 435 q 339 289 319 330 l 682 802 q 624 824 656 816 q 554 832 592 832 q 409 792 465 832 q 327 676 353 751 q 301 497 301 602 z "},"Ù":{"ha":1050,"x_min":118,"x_max":932,"o":"m 932 991 l 932 350 q 887 165 932 248 q 750 35 842 83 q 521 -14 659 -14 q 221 87 324 -14 q 118 353 118 187 l 118 991 l 328 991 l 328 385 q 378 212 328 262 q 526 163 428 163 q 638 186 595 163 q 702 260 682 210 q 722 386 722 309 l 722 991 l 932 991 m 492 1297 q 541 1228 512 1266 q 600 1155 570 1190 q 651 1093 629 1119 l 651 1075 l 514 1075 q 452 1121 488 1093 q 380 1178 417 1148 q 311 1236 343 1208 q 260 1283 279 1264 l 260 1297 l 492 1297 z "},"Ú":{"ha":1050,"x_min":118,"x_max":932,"o":"m 932 991 l 932 350 q 887 165 932 248 q 750 35 842 83 q 521 -14 659 -14 q 221 87 324 -14 q 118 353 118 187 l 118 991 l 328 991 l 328 385 q 378 212 328 262 q 526 163 428 163 q 638 186 595 163 q 702 260 682 210 q 722 386 722 309 l 722 991 l 932 991 m 791 1297 l 791 1283 q 740 1236 772 1264 q 671 1178 708 1208 q 600 1121 635 1148 q 538 1075 564 1093 l 400 1075 l 400 1093 q 452 1155 422 1119 q 511 1228 481 1190 q 559 1297 540 1266 l 791 1297 z "},"Û":{"ha":1050,"x_min":118,"x_max":932,"o":"m 932 991 l 932 350 q 887 165 932 248 q 750 35 842 83 q 521 -14 659 -14 q 221 87 324 -14 q 118 353 118 187 l 118 991 l 328 991 l 328 385 q 378 212 328 262 q 526 163 428 163 q 638 186 595 163 q 702 260 682 210 q 722 386 722 309 l 722 991 l 932 991 m 647 1297 q 698 1228 667 1266 q 763 1154 730 1190 q 821 1093 796 1118 l 821 1075 l 684 1075 q 604 1127 647 1097 q 525 1194 561 1157 q 447 1127 488 1157 q 370 1075 406 1098 l 232 1075 l 232 1093 q 291 1155 258 1119 q 355 1228 324 1190 q 406 1297 387 1266 l 647 1297 z "},"Ü":{"ha":1050,"x_min":118,"x_max":932,"o":"m 932 991 l 932 350 q 887 165 932 248 q 750 35 842 83 q 521 -14 659 -14 q 221 87 324 -14 q 118 353 118 187 l 118 991 l 328 991 l 328 385 q 378 212 328 262 q 526 163 428 163 q 638 186 595 163 q 702 260 682 210 q 722 386 722 309 l 722 991 l 932 991 m 292 1186 q 320 1256 292 1234 q 387 1278 347 1278 q 454 1256 425 1278 q 482 1186 482 1234 q 454 1118 482 1141 q 387 1096 425 1096 q 320 1118 347 1096 q 292 1186 292 1141 m 566 1186 q 593 1256 566 1234 q 661 1278 621 1278 q 729 1256 700 1278 q 758 1186 758 1234 q 729 1118 758 1141 q 661 1096 700 1096 q 593 1118 621 1096 q 566 1186 566 1141 z "},"Ý":{"ha":867,"x_min":0,"x_max":867,"o":"m 433 583 l 640 991 l 867 991 l 538 386 l 538 0 l 329 0 l 329 379 l 0 991 l 228 991 l 433 583 m 700 1297 l 700 1283 q 648 1236 680 1264 q 580 1178 616 1208 q 508 1121 543 1148 q 446 1075 473 1093 l 309 1075 l 309 1093 q 360 1155 331 1119 q 419 1228 390 1190 q 468 1297 448 1266 l 700 1297 z "},"Þ":{"ha":872,"x_min":125,"x_max":810,"o":"m 810 522 q 791 400 810 458 q 729 297 772 342 q 614 225 686 252 q 439 199 543 199 l 335 199 l 335 0 l 125 0 l 125 991 l 335 991 l 335 836 l 456 836 q 724 751 639 836 q 810 522 810 665 m 335 368 l 403 368 q 511 384 468 368 q 576 433 554 399 q 597 522 597 467 q 554 630 597 595 q 419 665 511 665 l 335 665 l 335 368 z "},"ß":{"ha":987,"x_min":109,"x_max":939,"o":"m 847 842 q 827 752 847 790 q 779 687 808 715 q 721 639 750 660 q 673 601 692 618 q 653 566 653 583 q 667 533 653 548 q 711 499 680 519 q 794 446 743 479 q 872 386 840 417 q 921 316 904 355 q 939 221 939 276 q 903 92 939 144 q 798 13 867 39 q 627 -14 729 -14 q 511 -4 560 -14 q 421 29 461 6 l 421 193 q 476 165 443 179 q 545 143 509 152 q 612 135 581 135 q 696 156 667 135 q 726 218 726 177 q 717 260 726 243 q 680 298 707 278 q 599 350 653 319 q 509 411 542 382 q 461 468 475 439 q 447 534 447 498 q 466 608 447 578 q 513 661 485 638 q 570 704 542 684 q 617 749 598 725 q 636 806 636 772 q 592 875 636 848 q 482 901 548 901 q 396 887 433 901 q 337 842 358 872 q 315 765 315 812 l 315 0 l 109 0 l 109 772 q 158 936 109 871 q 291 1031 207 1000 q 482 1063 376 1063 q 669 1037 587 1063 q 799 962 751 1011 q 847 842 847 913 z "},"à":{"ha":839,"x_min":58,"x_max":734,"o":"m 419 774 q 653 707 572 774 q 734 505 734 641 l 734 0 l 590 0 l 550 103 l 545 103 q 478 37 512 62 q 400 -1 444 11 q 293 -14 356 -14 q 173 12 226 -14 q 89 91 119 38 q 58 227 58 144 q 143 405 58 347 q 397 468 228 462 l 529 472 l 529 505 q 498 593 529 565 q 411 621 467 621 q 303 605 356 621 q 197 566 250 589 l 129 705 q 264 755 189 737 q 419 774 339 774 m 529 351 l 449 349 q 310 313 349 346 q 271 225 271 279 q 298 158 271 178 q 371 138 326 138 q 483 177 437 138 q 529 289 529 216 l 529 351 m 386 1064 q 435 995 406 1033 q 494 921 464 957 q 545 860 524 886 l 545 842 l 408 842 q 347 887 382 860 q 274 945 311 915 q 205 1003 237 975 q 154 1050 174 1031 l 154 1064 l 386 1064 z "},"á":{"ha":839,"x_min":58,"x_max":734,"o":"m 419 774 q 653 707 572 774 q 734 505 734 641 l 734 0 l 590 0 l 550 103 l 545 103 q 478 37 512 62 q 400 -1 444 11 q 293 -14 356 -14 q 173 12 226 -14 q 89 91 119 38 q 58 227 58 144 q 143 405 58 347 q 397 468 228 462 l 529 472 l 529 505 q 498 593 529 565 q 411 621 467 621 q 303 605 356 621 q 197 566 250 589 l 129 705 q 264 755 189 737 q 419 774 339 774 m 529 351 l 449 349 q 310 313 349 346 q 271 225 271 279 q 298 158 271 178 q 371 138 326 138 q 483 177 437 138 q 529 289 529 216 l 529 351 m 686 1064 l 686 1050 q 634 1003 666 1031 q 566 945 602 975 q 494 887 529 915 q 432 842 458 860 l 294 842 l 294 860 q 346 921 317 886 q 405 995 376 957 q 454 1064 434 1033 l 686 1064 z "},"â":{"ha":839,"x_min":58,"x_max":734,"o":"m 419 774 q 653 707 572 774 q 734 505 734 641 l 734 0 l 590 0 l 550 103 l 545 103 q 478 37 512 62 q 400 -1 444 11 q 293 -14 356 -14 q 173 12 226 -14 q 89 91 119 38 q 58 227 58 144 q 143 405 58 347 q 397 468 228 462 l 529 472 l 529 505 q 498 593 529 565 q 411 621 467 621 q 303 605 356 621 q 197 566 250 589 l 129 705 q 264 755 189 737 q 419 774 339 774 m 529 351 l 449 349 q 310 313 349 346 q 271 225 271 279 q 298 158 271 178 q 371 138 326 138 q 483 177 437 138 q 529 289 529 216 l 529 351 m 541 1064 q 592 995 561 1033 q 657 921 624 957 q 715 860 690 885 l 715 842 l 578 842 q 498 893 541 863 q 419 961 455 924 q 341 894 382 924 q 264 842 300 865 l 126 842 l 126 860 q 185 921 152 886 q 250 995 218 957 q 300 1064 281 1033 l 541 1064 z "},"ã":{"ha":839,"x_min":58,"x_max":734,"o":"m 419 774 q 653 707 572 774 q 734 505 734 641 l 734 0 l 590 0 l 550 103 l 545 103 q 478 37 512 62 q 400 -1 444 11 q 293 -14 356 -14 q 173 12 226 -14 q 89 91 119 38 q 58 227 58 144 q 143 405 58 347 q 397 468 228 462 l 529 472 l 529 505 q 498 593 529 565 q 411 621 467 621 q 303 605 356 621 q 197 566 250 589 l 129 705 q 264 755 189 737 q 419 774 339 774 m 529 351 l 449 349 q 310 313 349 346 q 271 225 271 279 q 298 158 271 178 q 371 138 326 138 q 483 177 437 138 q 529 289 529 216 l 529 351 m 138 840 q 157 934 142 895 q 198 999 173 974 q 255 1037 223 1025 q 322 1050 286 1050 q 377 1039 350 1050 q 430 1015 404 1029 q 481 990 456 1000 q 531 979 507 979 q 571 997 551 979 q 599 1051 590 1015 l 700 1051 q 639 893 692 944 q 515 842 586 842 q 461 852 488 842 q 408 877 434 863 q 357 902 382 891 q 307 913 332 913 q 267 895 286 913 q 239 840 248 877 l 138 840 z "},"ä":{"ha":839,"x_min":58,"x_max":734,"o":"m 419 774 q 653 707 572 774 q 734 505 734 641 l 734 0 l 590 0 l 550 103 l 545 103 q 478 37 512 62 q 400 -1 444 11 q 293 -14 356 -14 q 173 12 226 -14 q 89 91 119 38 q 58 227 58 144 q 143 405 58 347 q 397 468 228 462 l 529 472 l 529 505 q 498 593 529 565 q 411 621 467 621 q 303 605 356 621 q 197 566 250 589 l 129 705 q 264 755 189 737 q 419 774 339 774 m 529 351 l 449 349 q 310 313 349 346 q 271 225 271 279 q 298 158 271 178 q 371 138 326 138 q 483 177 437 138 q 529 289 529 216 l 529 351 m 186 953 q 214 1023 186 1001 q 281 1044 241 1044 q 348 1023 319 1044 q 376 953 376 1001 q 348 885 376 907 q 281 863 319 863 q 214 885 241 863 q 186 953 186 907 m 460 953 q 487 1023 460 1001 q 555 1044 515 1044 q 623 1023 594 1044 q 652 953 652 1001 q 623 885 652 907 q 555 863 594 863 q 487 885 515 863 q 460 953 460 907 z "},"å":{"ha":839,"x_min":58,"x_max":734,"o":"m 419 774 q 653 707 572 774 q 734 505 734 641 l 734 0 l 590 0 l 550 103 l 545 103 q 478 37 512 62 q 400 -1 444 11 q 293 -14 356 -14 q 173 12 226 -14 q 89 91 119 38 q 58 227 58 144 q 143 405 58 347 q 397 468 228 462 l 529 472 l 529 505 q 498 593 529 565 q 411 621 467 621 q 303 605 356 621 q 197 566 250 589 l 129 705 q 264 755 189 737 q 419 774 339 774 m 529 351 l 449 349 q 310 313 349 346 q 271 225 271 279 q 298 158 271 178 q 371 138 326 138 q 483 177 437 138 q 529 289 529 216 l 529 351 m 421 840 q 299 883 346 840 q 253 1002 253 926 q 299 1119 253 1076 q 421 1162 346 1162 q 543 1120 493 1162 q 593 1003 593 1077 q 544 884 593 927 q 421 840 494 840 m 421 936 q 468 954 449 936 q 486 1002 486 971 q 468 1049 486 1031 q 421 1067 449 1067 q 374 1049 393 1067 q 355 1002 355 1031 q 372 954 355 971 q 421 936 389 936 z "},"æ":{"ha":1274,"x_min":58,"x_max":1214,"o":"m 890 772 q 1059 732 986 772 q 1173 615 1132 692 q 1214 428 1214 538 l 1214 328 l 724 328 q 776 190 727 240 q 913 140 825 140 q 1044 155 981 140 q 1171 200 1107 170 l 1171 40 q 1052 -1 1114 12 q 901 -14 991 -14 q 785 2 840 -14 q 685 48 730 17 q 607 126 640 79 q 526 47 566 78 q 432 1 485 16 q 300 -14 378 -14 q 180 12 235 -14 q 92 91 125 38 q 58 227 58 144 q 95 359 58 307 q 204 437 132 411 q 386 468 277 464 l 515 472 l 515 529 q 485 598 515 576 q 403 621 455 621 q 298 606 349 621 q 196 568 247 592 l 129 705 q 262 755 189 737 q 415 774 336 774 q 550 752 492 774 q 647 685 608 730 q 750 751 692 729 q 890 772 809 772 m 515 351 l 439 349 q 308 313 345 346 q 271 225 271 279 q 297 158 271 178 q 366 138 323 138 q 442 155 408 138 q 496 207 476 173 q 515 289 515 241 l 515 351 m 886 625 q 775 587 817 625 q 728 465 734 548 l 1019 465 q 1003 547 1019 511 q 959 604 988 583 q 886 625 930 625 z "},"ç":{"ha":714,"x_min":62,"x_max":671,"o":"m 416 -14 q 224 27 304 -14 q 104 155 145 68 q 62 375 62 241 q 110 602 62 514 q 240 731 157 690 q 435 772 324 772 q 571 757 513 772 q 671 721 628 742 l 610 561 q 519 593 561 581 q 435 606 477 606 q 345 580 380 606 q 291 504 309 555 q 273 376 273 453 q 292 252 273 301 q 347 178 311 202 q 435 154 383 154 q 549 171 499 154 q 647 220 600 189 l 647 43 q 548 0 600 13 q 416 -14 496 -14 m 566 -170 q 520 -291 566 -248 q 356 -334 475 -334 q 301 -330 326 -334 q 257 -319 277 -326 l 257 -205 q 305 -215 277 -210 q 354 -220 334 -220 q 388 -211 374 -220 q 403 -178 403 -201 q 378 -133 403 -153 q 290 -104 353 -113 l 343 0 l 474 0 l 456 -41 q 509 -67 484 -50 q 550 -110 534 -85 q 566 -170 566 -136 z "},"è":{"ha":821,"x_min":62,"x_max":761,"o":"m 421 772 q 602 732 526 772 q 720 615 678 692 q 761 428 761 538 l 761 328 l 272 328 q 325 190 275 240 q 461 140 374 140 q 594 155 534 140 q 718 200 654 170 l 718 40 q 601 -1 662 12 q 452 -14 539 -14 q 250 28 338 -14 q 112 157 162 71 q 62 374 62 243 q 107 595 62 507 q 233 728 153 684 q 421 772 314 772 m 422 625 q 322 587 362 625 q 277 465 283 548 l 567 465 q 550 547 566 511 q 503 604 534 583 q 422 625 471 625 m 378 1064 q 427 995 398 1033 q 486 921 456 957 q 537 860 515 886 l 537 842 l 400 842 q 338 887 374 860 q 266 945 303 915 q 197 1003 229 975 q 146 1050 165 1031 l 146 1064 l 378 1064 z "},"é":{"ha":821,"x_min":62,"x_max":761,"o":"m 421 772 q 602 732 526 772 q 720 615 678 692 q 761 428 761 538 l 761 328 l 272 328 q 325 190 275 240 q 461 140 374 140 q 594 155 534 140 q 718 200 654 170 l 718 40 q 601 -1 662 12 q 452 -14 539 -14 q 250 28 338 -14 q 112 157 162 71 q 62 374 62 243 q 107 595 62 507 q 233 728 153 684 q 421 772 314 772 m 422 625 q 322 587 362 625 q 277 465 283 548 l 567 465 q 550 547 566 511 q 503 604 534 583 q 422 625 471 625 m 677 1064 l 677 1050 q 626 1003 658 1031 q 557 945 594 975 q 486 887 521 915 q 424 842 450 860 l 286 842 l 286 860 q 338 921 309 886 q 397 995 368 957 q 446 1064 426 1033 l 677 1064 z "},"ê":{"ha":821,"x_min":62,"x_max":761,"o":"m 421 772 q 602 732 526 772 q 720 615 678 692 q 761 428 761 538 l 761 328 l 272 328 q 325 190 275 240 q 461 140 374 140 q 594 155 534 140 q 718 200 654 170 l 718 40 q 601 -1 662 12 q 452 -14 539 -14 q 250 28 338 -14 q 112 157 162 71 q 62 374 62 243 q 107 595 62 507 q 233 728 153 684 q 421 772 314 772 m 422 625 q 322 587 362 625 q 277 465 283 548 l 567 465 q 550 547 566 511 q 503 604 534 583 q 422 625 471 625 m 533 1064 q 584 995 553 1033 q 649 921 616 957 q 707 860 682 885 l 707 842 l 570 842 q 490 893 533 863 q 411 961 447 924 q 333 894 374 924 q 256 842 292 865 l 118 842 l 118 860 q 177 921 144 886 q 241 995 210 957 q 292 1064 273 1033 l 533 1064 z "},"ë":{"ha":821,"x_min":62,"x_max":761,"o":"m 421 772 q 602 732 526 772 q 720 615 678 692 q 761 428 761 538 l 761 328 l 272 328 q 325 190 275 240 q 461 140 374 140 q 594 155 534 140 q 718 200 654 170 l 718 40 q 601 -1 662 12 q 452 -14 539 -14 q 250 28 338 -14 q 112 157 162 71 q 62 374 62 243 q 107 595 62 507 q 233 728 153 684 q 421 772 314 772 m 422 625 q 322 587 362 625 q 277 465 283 548 l 567 465 q 550 547 566 511 q 503 604 534 583 q 422 625 471 625 m 178 953 q 206 1023 178 1001 q 273 1044 233 1044 q 340 1023 311 1044 q 368 953 368 1001 q 340 885 368 907 q 273 863 311 863 q 206 885 233 863 q 178 953 178 907 m 452 953 q 479 1023 452 1001 q 547 1044 507 1044 q 615 1023 586 1044 q 644 953 644 1001 q 615 885 644 907 q 547 863 586 863 q 479 885 507 863 q 452 953 452 907 z "},"ì":{"ha":424,"x_min":-53,"x_max":338,"o":"m 315 0 l 109 0 l 109 758 l 315 758 l 315 0 m 179 1064 q 228 995 199 1033 q 287 921 257 957 q 338 860 317 886 l 338 842 l 201 842 q 140 887 175 860 q 67 945 104 915 q -1 1003 31 975 q -53 1050 -33 1031 l -53 1064 l 179 1064 z "},"í":{"ha":424,"x_min":87,"x_max":479,"o":"m 315 0 l 109 0 l 109 758 l 315 758 l 315 0 m 479 1064 l 479 1050 q 427 1003 459 1031 q 359 945 395 975 q 287 887 322 915 q 225 842 252 860 l 87 842 l 87 860 q 139 921 110 886 q 198 995 169 957 q 247 1064 227 1033 l 479 1064 z "},"î":{"ha":424,"x_min":-81,"x_max":508,"o":"m 315 0 l 109 0 l 109 758 l 315 758 l 315 0 m 334 1064 q 386 995 354 1033 q 450 921 417 957 q 508 860 484 885 l 508 842 l 371 842 q 291 893 334 863 q 212 961 248 924 q 134 894 176 924 q 57 842 93 865 l -81 842 l -81 860 q -22 921 -55 886 q 43 995 12 957 q 93 1064 74 1033 l 334 1064 z "},"ï":{"ha":424,"x_min":-20,"x_max":445,"o":"m 315 0 l 109 0 l 109 758 l 315 758 l 315 0 m -20 953 q 7 1023 -20 1001 q 74 1044 35 1044 q 141 1023 113 1044 q 170 953 170 1001 q 141 885 170 907 q 74 863 113 863 q 7 885 35 863 q -20 953 -20 907 m 253 953 q 280 1023 253 1001 q 349 1044 308 1044 q 416 1023 387 1044 q 445 953 445 1001 q 416 885 445 907 q 349 863 387 863 q 280 885 308 863 q 253 953 253 907 z "},"ð":{"ha":860,"x_min":62,"x_max":798,"o":"m 311 1063 q 404 1017 359 1041 q 486 966 448 993 l 639 1061 l 707 957 l 591 886 q 705 751 659 825 q 774 588 751 677 q 798 389 798 498 q 752 171 798 260 q 624 34 707 81 q 428 -14 541 -14 q 239 27 321 -14 q 110 144 157 67 q 62 332 62 222 q 104 518 62 441 q 219 635 146 595 q 389 675 293 675 q 471 667 435 675 q 533 645 507 660 q 575 608 559 631 l 581 611 q 526 712 557 667 q 450 799 494 758 l 294 703 l 227 808 l 346 880 q 297 912 322 896 q 243 943 271 928 l 311 1063 m 431 522 q 340 501 374 522 q 289 437 305 479 q 273 330 273 395 q 290 230 273 273 q 340 163 306 187 q 431 139 375 139 q 550 195 514 139 q 586 361 586 250 q 577 421 586 393 q 549 473 568 450 q 500 509 530 496 q 431 522 471 522 z "},"ñ":{"ha":913,"x_min":109,"x_max":808,"o":"m 539 772 q 734 706 661 772 q 808 494 808 640 l 808 0 l 602 0 l 602 443 q 572 566 602 524 q 479 607 543 607 q 350 543 385 607 q 315 357 315 478 l 315 0 l 109 0 l 109 758 l 267 758 l 294 661 l 306 661 q 367 725 330 701 q 447 761 403 749 q 539 772 492 772 m 175 840 q 195 934 179 895 q 235 999 210 974 q 292 1037 260 1025 q 359 1050 323 1050 q 414 1039 387 1050 q 467 1015 441 1029 q 518 990 493 1000 q 568 979 544 979 q 608 997 589 979 q 636 1051 627 1015 l 737 1051 q 676 893 729 944 q 553 842 623 842 q 498 852 525 842 q 445 877 471 863 q 394 902 419 891 q 345 913 369 913 q 304 895 323 913 q 276 840 285 877 l 175 840 z "},"ò":{"ha":860,"x_min":62,"x_max":798,"o":"m 798 380 q 772 212 798 286 q 698 89 747 139 q 582 12 650 38 q 428 -14 513 -14 q 281 12 348 -14 q 165 89 214 38 q 89 212 116 139 q 62 380 62 286 q 107 594 62 507 q 235 727 152 682 q 432 772 317 772 q 621 727 538 772 q 750 594 703 682 q 798 380 798 507 m 273 380 q 290 255 273 306 q 340 178 306 204 q 431 153 375 153 q 520 178 486 153 q 570 255 554 204 q 586 380 586 306 q 570 506 586 456 q 519 581 554 555 q 429 606 485 606 q 310 549 347 606 q 273 380 273 493 m 397 1064 q 447 995 418 1033 q 505 921 475 957 q 557 860 535 886 l 557 842 l 420 842 q 358 887 393 860 q 286 945 323 915 q 217 1003 249 975 q 165 1050 185 1031 l 165 1064 l 397 1064 z "},"ó":{"ha":860,"x_min":62,"x_max":798,"o":"m 798 380 q 772 212 798 286 q 698 89 747 139 q 582 12 650 38 q 428 -14 513 -14 q 281 12 348 -14 q 165 89 214 38 q 89 212 116 139 q 62 380 62 286 q 107 594 62 507 q 235 727 152 682 q 432 772 317 772 q 621 727 538 772 q 750 594 703 682 q 798 380 798 507 m 273 380 q 290 255 273 306 q 340 178 306 204 q 431 153 375 153 q 520 178 486 153 q 570 255 554 204 q 586 380 586 306 q 570 506 586 456 q 519 581 554 555 q 429 606 485 606 q 310 549 347 606 q 273 380 273 493 m 697 1064 l 697 1050 q 646 1003 677 1031 q 577 945 614 975 q 505 887 541 915 q 444 842 470 860 l 306 842 l 306 860 q 358 921 328 886 q 416 995 387 957 q 465 1064 446 1033 l 697 1064 z "},"ô":{"ha":860,"x_min":62,"x_max":798,"o":"m 798 380 q 772 212 798 286 q 698 89 747 139 q 582 12 650 38 q 428 -14 513 -14 q 281 12 348 -14 q 165 89 214 38 q 89 212 116 139 q 62 380 62 286 q 107 594 62 507 q 235 727 152 682 q 432 772 317 772 q 621 727 538 772 q 750 594 703 682 q 798 380 798 507 m 273 380 q 290 255 273 306 q 340 178 306 204 q 431 153 375 153 q 520 178 486 153 q 570 255 554 204 q 586 380 586 306 q 570 506 586 456 q 519 581 554 555 q 429 606 485 606 q 310 549 347 606 q 273 380 273 493 m 553 1064 q 604 995 572 1033 q 669 921 635 957 q 726 860 702 885 l 726 842 l 589 842 q 510 893 553 863 q 431 961 467 924 q 353 894 394 924 q 275 842 311 865 l 138 842 l 138 860 q 197 921 163 886 q 261 995 230 957 q 311 1064 292 1033 l 553 1064 z "},"õ":{"ha":860,"x_min":62,"x_max":798,"o":"m 798 380 q 772 212 798 286 q 698 89 747 139 q 582 12 650 38 q 428 -14 513 -14 q 281 12 348 -14 q 165 89 214 38 q 89 212 116 139 q 62 380 62 286 q 107 594 62 507 q 235 727 152 682 q 432 772 317 772 q 621 727 538 772 q 750 594 703 682 q 798 380 798 507 m 273 380 q 290 255 273 306 q 340 178 306 204 q 431 153 375 153 q 520 178 486 153 q 570 255 554 204 q 586 380 586 306 q 570 506 586 456 q 519 581 554 555 q 429 606 485 606 q 310 549 347 606 q 273 380 273 493 m 149 840 q 168 934 153 895 q 209 999 184 974 q 266 1037 234 1025 q 333 1050 297 1050 q 388 1039 361 1050 q 440 1015 414 1029 q 492 990 467 1000 q 542 979 517 979 q 582 997 562 979 q 610 1051 601 1015 l 711 1051 q 650 893 703 944 q 526 842 597 842 q 472 852 498 842 q 419 877 445 863 q 368 902 393 891 q 318 913 342 913 q 278 895 297 913 q 250 840 258 877 l 149 840 z "},"ö":{"ha":860,"x_min":62,"x_max":798,"o":"m 798 380 q 772 212 798 286 q 698 89 747 139 q 582 12 650 38 q 428 -14 513 -14 q 281 12 348 -14 q 165 89 214 38 q 89 212 116 139 q 62 380 62 286 q 107 594 62 507 q 235 727 152 682 q 432 772 317 772 q 621 727 538 772 q 750 594 703 682 q 798 380 798 507 m 273 380 q 290 255 273 306 q 340 178 306 204 q 431 153 375 153 q 520 178 486 153 q 570 255 554 204 q 586 380 586 306 q 570 506 586 456 q 519 581 554 555 q 429 606 485 606 q 310 549 347 606 q 273 380 273 493 m 197 953 q 225 1023 197 1001 q 292 1044 252 1044 q 359 1023 330 1044 q 387 953 387 1001 q 359 885 387 907 q 292 863 330 863 q 225 885 252 863 q 197 953 197 907 m 471 953 q 498 1023 471 1001 q 566 1044 526 1044 q 634 1023 605 1044 q 663 953 663 1001 q 634 885 663 907 q 566 863 605 863 q 498 885 526 863 q 471 953 471 907 z "},"÷":{"ha":794,"x_min":60,"x_max":733,"o":"m 60 415 l 60 564 l 733 564 l 733 415 l 60 415 m 396 150 q 329 174 357 150 q 301 253 301 199 q 329 333 301 310 q 396 355 357 355 q 462 333 433 355 q 490 253 490 310 q 462 174 490 199 q 396 150 433 150 m 396 624 q 329 648 357 624 q 301 726 301 673 q 329 807 301 784 q 396 829 357 829 q 462 807 433 829 q 490 726 490 784 q 462 648 490 673 q 396 624 433 624 z "},"ø":{"ha":860,"x_min":62,"x_max":798,"o":"m 798 380 q 753 166 798 254 q 625 32 708 78 q 428 -14 542 -14 q 345 -6 385 -14 q 269 17 305 2 l 224 -52 l 119 20 l 165 87 q 89 212 116 138 q 62 380 62 285 q 161 671 62 569 q 432 772 260 772 q 520 763 478 772 q 600 737 563 754 l 637 793 l 741 720 l 701 663 q 772 542 747 613 q 798 380 798 471 m 273 380 q 277 319 273 347 q 286 268 280 291 l 501 590 q 469 602 487 597 q 429 606 450 606 q 310 549 347 606 q 273 380 273 493 m 586 380 q 584 432 586 408 q 578 476 582 456 l 368 163 q 397 155 382 157 q 431 153 413 153 q 520 178 486 153 q 570 255 554 204 q 586 380 586 306 z "},"ù":{"ha":913,"x_min":104,"x_max":804,"o":"m 804 758 l 804 0 l 646 0 l 618 97 l 607 97 q 546 34 583 58 q 465 -2 509 9 q 374 -14 421 -14 q 232 15 292 -14 q 138 105 172 44 q 104 264 104 166 l 104 758 l 311 758 l 311 315 q 340 193 311 234 q 433 151 370 151 q 532 180 496 151 q 583 265 568 209 q 597 401 597 321 l 597 758 l 804 758 m 424 1064 q 473 995 444 1033 q 532 921 502 957 q 583 860 562 886 l 583 842 l 446 842 q 385 887 420 860 q 312 945 349 915 q 243 1003 275 975 q 192 1050 212 1031 l 192 1064 l 424 1064 z "},"ú":{"ha":913,"x_min":104,"x_max":804,"o":"m 804 758 l 804 0 l 646 0 l 618 97 l 607 97 q 546 34 583 58 q 465 -2 509 9 q 374 -14 421 -14 q 232 15 292 -14 q 138 105 172 44 q 104 264 104 166 l 104 758 l 311 758 l 311 315 q 340 193 311 234 q 433 151 370 151 q 532 180 496 151 q 583 265 568 209 q 597 401 597 321 l 597 758 l 804 758 m 724 1064 l 724 1050 q 672 1003 704 1031 q 604 945 640 975 q 532 887 567 915 q 470 842 496 860 l 332 842 l 332 860 q 384 921 355 886 q 443 995 414 957 q 492 1064 472 1033 l 724 1064 z "},"û":{"ha":913,"x_min":104,"x_max":804,"o":"m 804 758 l 804 0 l 646 0 l 618 97 l 607 97 q 546 34 583 58 q 465 -2 509 9 q 374 -14 421 -14 q 232 15 292 -14 q 138 105 172 44 q 104 264 104 166 l 104 758 l 311 758 l 311 315 q 340 193 311 234 q 433 151 370 151 q 532 180 496 151 q 583 265 568 209 q 597 401 597 321 l 597 758 l 804 758 m 579 1064 q 630 995 599 1033 q 695 921 662 957 q 753 860 728 885 l 753 842 l 616 842 q 536 893 579 863 q 457 961 493 924 q 379 894 420 924 q 302 842 338 865 l 164 842 l 164 860 q 223 921 190 886 q 288 995 256 957 q 338 1064 319 1033 l 579 1064 z "},"ü":{"ha":913,"x_min":104,"x_max":804,"o":"m 804 758 l 804 0 l 646 0 l 618 97 l 607 97 q 546 34 583 58 q 465 -2 509 9 q 374 -14 421 -14 q 232 15 292 -14 q 138 105 172 44 q 104 264 104 166 l 104 758 l 311 758 l 311 315 q 340 193 311 234 q 433 151 370 151 q 532 180 496 151 q 583 265 568 209 q 597 401 597 321 l 597 758 l 804 758 m 224 953 q 251 1023 224 1001 q 318 1044 279 1044 q 385 1023 357 1044 q 414 953 414 1001 q 385 885 414 907 q 318 863 357 863 q 251 885 279 863 q 224 953 224 907 m 497 953 q 525 1023 497 1001 q 593 1044 552 1044 q 660 1023 631 1044 q 689 953 689 1001 q 660 885 689 907 q 593 863 631 863 q 525 885 552 863 q 497 953 497 907 z "},"ý":{"ha":790,"x_min":0,"x_max":790,"o":"m 0 758 l 227 758 l 370 332 q 381 290 376 311 q 389 247 386 269 q 395 200 393 224 l 399 200 q 410 269 403 237 q 428 332 417 300 l 568 758 l 790 758 l 469 -97 q 393 -228 440 -176 q 286 -307 347 -281 q 153 -334 225 -334 q 92 -330 117 -334 q 47 -322 66 -326 l 47 -158 q 83 -164 62 -161 q 129 -167 105 -167 q 203 -149 172 -167 q 256 -99 235 -130 q 289 -32 277 -68 l 301 5 l 0 758 m 662 1064 l 662 1050 q 610 1003 642 1031 q 542 945 578 975 q 470 887 505 915 q 408 842 435 860 l 271 842 l 271 860 q 322 921 293 886 q 381 995 352 957 q 430 1064 410 1033 l 662 1064 z "},"þ":{"ha":879,"x_min":109,"x_max":817,"o":"m 817 380 q 781 164 817 252 q 680 31 745 76 q 530 -14 616 -14 q 435 -1 476 -14 q 365 33 394 12 q 315 79 336 54 l 306 79 q 311 46 309 66 q 314 8 313 27 q 315 -26 315 -12 l 315 -334 l 109 -334 l 109 1055 l 315 1055 l 315 790 q 312 719 315 757 q 306 660 309 681 l 315 660 q 365 716 335 691 q 435 757 394 742 q 530 772 477 772 q 737 673 658 772 q 817 380 817 573 m 606 383 q 571 551 606 494 q 464 607 536 607 q 350 557 382 607 q 315 404 317 507 l 315 382 q 348 213 315 271 q 467 154 380 154 q 545 180 514 154 q 590 258 575 207 q 606 383 606 309 z "},"ÿ":{"ha":790,"x_min":0,"x_max":790,"o":"m 0 758 l 227 758 l 370 332 q 381 290 376 311 q 389 247 386 269 q 395 200 393 224 l 399 200 q 410 269 403 237 q 428 332 417 300 l 568 758 l 790 758 l 469 -97 q 393 -228 440 -176 q 286 -307 347 -281 q 153 -334 225 -334 q 92 -330 117 -334 q 47 -322 66 -326 l 47 -158 q 83 -164 62 -161 q 129 -167 105 -167 q 203 -149 172 -167 q 256 -99 235 -130 q 289 -32 277 -68 l 301 5 l 0 758 m 163 953 q 190 1023 163 1001 q 257 1044 218 1044 q 324 1023 296 1044 q 353 953 353 1001 q 324 885 353 907 q 257 863 296 863 q 190 885 218 863 q 163 953 163 907 m 436 953 q 464 1023 436 1001 q 532 1044 491 1044 q 599 1023 570 1044 q 628 953 628 1001 q 599 885 628 907 q 532 863 570 863 q 464 885 491 863 q 436 953 436 907 z "},"Ā":{"ha":958,"x_min":0,"x_max":958,"o":"m 732 0 l 660 236 l 298 236 l 227 0 l 0 0 l 350 996 l 607 996 l 958 0 l 732 0 m 610 412 l 538 643 q 520 702 531 666 q 497 776 509 739 q 479 842 486 814 q 461 773 473 814 q 438 695 449 732 q 422 643 427 659 l 351 412 l 610 412 m 710 1218 l 710 1075 l 250 1075 l 250 1218 l 710 1218 z "},"ā":{"ha":839,"x_min":58,"x_max":734,"o":"m 419 774 q 653 707 572 774 q 734 505 734 641 l 734 0 l 590 0 l 550 103 l 545 103 q 478 37 512 62 q 400 -1 444 11 q 293 -14 356 -14 q 173 12 226 -14 q 89 91 119 38 q 58 227 58 144 q 143 405 58 347 q 397 468 228 462 l 529 472 l 529 505 q 498 593 529 565 q 411 621 467 621 q 303 605 356 621 q 197 566 250 589 l 129 705 q 264 755 189 737 q 419 774 339 774 m 529 351 l 449 349 q 310 313 349 346 q 271 225 271 279 q 298 158 271 178 q 371 138 326 138 q 483 177 437 138 q 529 289 529 216 l 529 351 m 650 985 l 650 842 l 191 842 l 191 985 l 650 985 z "},"Ă":{"ha":958,"x_min":0,"x_max":958,"o":"m 732 0 l 660 236 l 298 236 l 227 0 l 0 0 l 350 996 l 607 996 l 958 0 l 732 0 m 610 412 l 538 643 q 520 702 531 666 q 497 776 509 739 q 479 842 486 814 q 461 773 473 814 q 438 695 449 732 q 422 643 427 659 l 351 412 l 610 412 m 750 1304 q 710 1185 745 1237 q 617 1104 675 1133 q 481 1075 558 1075 q 292 1137 361 1075 q 217 1304 222 1200 l 332 1304 q 356 1247 336 1265 q 410 1224 377 1230 q 482 1219 443 1219 q 548 1225 515 1219 q 605 1250 581 1232 q 632 1304 628 1268 l 750 1304 z "},"ă":{"ha":839,"x_min":58,"x_max":734,"o":"m 419 774 q 653 707 572 774 q 734 505 734 641 l 734 0 l 590 0 l 550 103 l 545 103 q 478 37 512 62 q 400 -1 444 11 q 293 -14 356 -14 q 173 12 226 -14 q 89 91 119 38 q 58 227 58 144 q 143 405 58 347 q 397 468 228 462 l 529 472 l 529 505 q 498 593 529 565 q 411 621 467 621 q 303 605 356 621 q 197 566 250 589 l 129 705 q 264 755 189 737 q 419 774 339 774 m 529 351 l 449 349 q 310 313 349 346 q 271 225 271 279 q 298 158 271 178 q 371 138 326 138 q 483 177 437 138 q 529 289 529 216 l 529 351 m 690 1071 q 651 952 686 1004 q 557 871 616 900 q 421 842 498 842 q 232 904 302 842 q 157 1071 163 966 l 273 1071 q 297 1014 276 1032 q 350 991 317 996 q 422 986 383 986 q 488 992 455 986 q 545 1017 522 998 q 572 1071 568 1035 l 690 1071 z "},"Ą":{"ha":958,"x_min":0,"x_max":958,"o":"m 732 0 l 660 236 l 298 236 l 227 0 l 0 0 l 350 996 l 607 996 l 958 0 l 732 0 m 610 412 l 538 643 q 520 702 531 666 q 497 776 509 739 q 479 842 486 814 q 461 773 473 814 q 438 695 449 732 q 422 643 427 659 l 351 412 l 610 412 m 799 -154 q 814 -196 799 -182 q 853 -210 829 -210 q 896 -205 875 -210 q 930 -197 918 -201 l 930 -318 q 884 -329 909 -324 q 825 -334 859 -334 q 702 -290 747 -334 q 656 -178 656 -246 q 676 -100 656 -137 q 731 -32 696 -63 q 808 24 766 0 l 899 0 q 825 -82 852 -45 q 799 -154 799 -119 z "},"ą":{"ha":839,"x_min":58,"x_max":749,"o":"m 419 774 q 653 707 572 774 q 734 505 734 641 l 734 0 l 590 0 l 550 103 l 545 103 q 478 37 512 62 q 400 -1 444 11 q 293 -14 356 -14 q 173 12 226 -14 q 89 91 119 38 q 58 227 58 144 q 143 405 58 347 q 397 468 228 462 l 529 472 l 529 505 q 498 593 529 565 q 411 621 467 621 q 303 605 356 621 q 197 566 250 589 l 129 705 q 264 755 189 737 q 419 774 339 774 m 529 351 l 449 349 q 310 313 349 346 q 271 225 271 279 q 298 158 271 178 q 371 138 326 138 q 483 177 437 138 q 529 289 529 216 l 529 351 m 618 -154 q 633 -196 618 -182 q 672 -210 648 -210 q 715 -205 694 -210 q 749 -197 736 -201 l 749 -318 q 703 -329 728 -324 q 644 -334 677 -334 q 520 -290 566 -334 q 475 -178 475 -246 q 495 -100 475 -137 q 550 -32 515 -63 q 627 24 585 0 l 718 0 q 644 -82 671 -45 q 618 -154 618 -119 z "},"Ć":{"ha":885,"x_min":81,"x_max":836,"o":"m 546 831 q 439 807 486 831 q 361 740 393 784 q 313 633 330 696 q 297 493 297 571 q 323 314 297 388 q 404 200 349 239 q 546 161 459 161 q 667 175 606 161 q 799 214 728 189 l 799 37 q 669 -2 733 10 q 526 -14 606 -14 q 274 50 373 -14 q 128 228 176 113 q 81 494 81 342 q 111 701 81 607 q 201 863 142 794 q 347 968 260 931 q 546 1006 433 1006 q 694 987 620 1006 q 836 936 768 968 l 768 765 q 656 811 713 791 q 546 831 600 831 m 790 1297 l 790 1283 q 739 1236 770 1264 q 670 1178 707 1208 q 598 1121 633 1148 q 536 1075 563 1093 l 399 1075 l 399 1093 q 451 1155 421 1119 q 509 1228 480 1190 q 558 1297 538 1266 l 790 1297 z "},"ć":{"ha":714,"x_min":62,"x_max":671,"o":"m 416 -14 q 224 27 304 -14 q 104 155 145 68 q 62 375 62 241 q 110 602 62 514 q 240 731 157 690 q 435 772 324 772 q 571 757 513 772 q 671 721 628 742 l 610 561 q 519 593 561 581 q 435 606 477 606 q 345 580 380 606 q 291 504 309 555 q 273 376 273 453 q 292 252 273 301 q 347 178 311 202 q 435 154 383 154 q 549 171 499 154 q 647 220 600 189 l 647 43 q 548 0 600 13 q 416 -14 496 -14 m 665 1064 l 665 1050 q 614 1003 646 1031 q 545 945 582 975 q 473 887 509 915 q 412 842 438 860 l 274 842 l 274 860 q 326 921 296 886 q 385 995 355 957 q 433 1064 414 1033 l 665 1064 z "},"Ĉ":{"ha":885,"x_min":81,"x_max":836,"o":"m 546 831 q 439 807 486 831 q 361 740 393 784 q 313 633 330 696 q 297 493 297 571 q 323 314 297 388 q 404 200 349 239 q 546 161 459 161 q 667 175 606 161 q 799 214 728 189 l 799 37 q 669 -2 733 10 q 526 -14 606 -14 q 274 50 373 -14 q 128 228 176 113 q 81 494 81 342 q 111 701 81 607 q 201 863 142 794 q 347 968 260 931 q 546 1006 433 1006 q 694 987 620 1006 q 836 936 768 968 l 768 765 q 656 811 713 791 q 546 831 600 831 m 646 1297 q 697 1228 665 1266 q 762 1154 728 1190 q 819 1093 795 1118 l 819 1075 l 682 1075 q 603 1127 646 1097 q 524 1194 559 1157 q 446 1127 487 1157 q 368 1075 404 1098 l 231 1075 l 231 1093 q 290 1155 256 1119 q 354 1228 323 1190 q 404 1297 385 1266 l 646 1297 z "},"ĉ":{"ha":714,"x_min":62,"x_max":694,"o":"m 416 -14 q 224 27 304 -14 q 104 155 145 68 q 62 375 62 241 q 110 602 62 514 q 240 731 157 690 q 435 772 324 772 q 571 757 513 772 q 671 721 628 742 l 610 561 q 519 593 561 581 q 435 606 477 606 q 345 580 380 606 q 291 504 309 555 q 273 376 273 453 q 292 252 273 301 q 347 178 311 202 q 435 154 383 154 q 549 171 499 154 q 647 220 600 189 l 647 43 q 548 0 600 13 q 416 -14 496 -14 m 521 1064 q 572 995 541 1033 q 637 921 604 957 q 694 860 670 885 l 694 842 l 557 842 q 478 893 521 863 q 399 961 435 924 q 321 894 362 924 q 243 842 279 865 l 106 842 l 106 860 q 165 921 132 886 q 229 995 198 957 q 279 1064 260 1033 l 521 1064 z "},"Ċ":{"ha":885,"x_min":81,"x_max":836,"o":"m 546 831 q 439 807 486 831 q 361 740 393 784 q 313 633 330 696 q 297 493 297 571 q 323 314 297 388 q 404 200 349 239 q 546 161 459 161 q 667 175 606 161 q 799 214 728 189 l 799 37 q 669 -2 733 10 q 526 -14 606 -14 q 274 50 373 -14 q 128 228 176 113 q 81 494 81 342 q 111 701 81 607 q 201 863 142 794 q 347 968 260 931 q 546 1006 433 1006 q 694 987 620 1006 q 836 936 768 968 l 768 765 q 656 811 713 791 q 546 831 600 831 m 526 1289 q 606 1267 572 1289 q 639 1187 639 1246 q 606 1108 639 1130 q 526 1086 572 1086 q 447 1108 479 1086 q 414 1187 414 1130 q 447 1267 414 1246 q 526 1289 479 1289 z "},"ċ":{"ha":714,"x_min":62,"x_max":671,"o":"m 416 -14 q 224 27 304 -14 q 104 155 145 68 q 62 375 62 241 q 110 602 62 514 q 240 731 157 690 q 435 772 324 772 q 571 757 513 772 q 671 721 628 742 l 610 561 q 519 593 561 581 q 435 606 477 606 q 345 580 380 606 q 291 504 309 555 q 273 376 273 453 q 292 252 273 301 q 347 178 311 202 q 435 154 383 154 q 549 171 499 154 q 647 220 600 189 l 647 43 q 548 0 600 13 q 416 -14 496 -14 m 401 1055 q 481 1034 448 1055 q 514 954 514 1013 q 481 874 514 897 q 401 852 448 852 q 322 874 355 852 q 289 954 289 897 q 322 1034 289 1013 q 401 1055 355 1055 z "},"Č":{"ha":885,"x_min":81,"x_max":836,"o":"m 546 831 q 439 807 486 831 q 361 740 393 784 q 313 633 330 696 q 297 493 297 571 q 323 314 297 388 q 404 200 349 239 q 546 161 459 161 q 667 175 606 161 q 799 214 728 189 l 799 37 q 669 -2 733 10 q 526 -14 606 -14 q 274 50 373 -14 q 128 228 176 113 q 81 494 81 342 q 111 701 81 607 q 201 863 142 794 q 347 968 260 931 q 546 1006 433 1006 q 694 987 620 1006 q 836 936 768 968 l 768 765 q 656 811 713 791 q 546 831 600 831 m 406 1075 q 355 1144 387 1106 q 291 1217 324 1181 q 232 1279 258 1253 l 232 1297 l 370 1297 q 447 1245 406 1274 q 525 1178 488 1215 q 604 1245 561 1215 q 684 1297 647 1276 l 821 1297 l 821 1279 q 763 1218 796 1254 q 698 1144 730 1182 q 647 1075 667 1106 l 406 1075 z "},"č":{"ha":714,"x_min":62,"x_max":696,"o":"m 416 -14 q 224 27 304 -14 q 104 155 145 68 q 62 375 62 241 q 110 602 62 514 q 240 731 157 690 q 435 772 324 772 q 571 757 513 772 q 671 721 628 742 l 610 561 q 519 593 561 581 q 435 606 477 606 q 345 580 380 606 q 291 504 309 555 q 273 376 273 453 q 292 252 273 301 q 347 178 311 202 q 435 154 383 154 q 549 171 499 154 q 647 220 600 189 l 647 43 q 548 0 600 13 q 416 -14 496 -14 m 281 842 q 231 910 262 873 q 166 984 199 948 q 107 1046 133 1020 l 107 1064 l 245 1064 q 322 1011 281 1041 q 400 945 363 982 q 479 1012 436 982 q 559 1064 522 1042 l 696 1064 l 696 1046 q 638 985 671 1021 q 573 911 605 949 q 522 842 542 873 l 281 842 z "},"Ď":{"ha":1028,"x_min":125,"x_max":947,"o":"m 947 505 q 883 225 947 338 q 698 57 819 113 q 406 0 576 0 l 125 0 l 125 991 l 436 991 q 707 936 592 991 q 884 773 821 881 q 947 505 947 665 m 729 500 q 697 681 729 610 q 602 785 665 751 q 447 819 539 819 l 335 819 l 335 174 l 425 174 q 654 256 579 174 q 729 500 729 338 m 396 1075 q 346 1144 377 1106 q 281 1217 315 1181 q 222 1279 248 1253 l 222 1297 l 360 1297 q 437 1245 396 1274 q 515 1178 479 1215 q 594 1245 551 1215 q 674 1297 637 1276 l 811 1297 l 811 1279 q 753 1218 787 1254 q 689 1144 720 1182 q 637 1075 657 1106 l 396 1075 z "},"ď":{"ha":879,"x_min":62,"x_max":1051,"o":"m 349 -14 q 142 86 222 -14 q 62 378 62 185 q 143 672 62 572 q 354 772 224 772 q 450 758 408 772 q 521 718 491 743 q 572 661 551 692 l 579 661 q 569 725 575 683 q 564 812 564 768 l 564 1055 l 771 1055 l 771 0 l 612 0 l 572 98 l 564 98 q 514 42 544 67 q 444 1 485 16 q 349 -14 404 -14 m 421 151 q 541 202 506 151 q 578 354 576 252 l 578 376 q 544 546 578 487 q 418 604 510 604 q 311 545 349 604 q 272 375 272 486 q 311 208 272 264 q 421 151 350 151 m 1051 1055 l 1051 1042 q 1020 977 1038 1011 q 983 906 1003 943 q 939 833 962 870 l 818 833 l 818 851 q 830 897 824 871 q 842 951 836 923 q 852 1006 848 979 q 860 1055 857 1033 l 1051 1055 z "},"Đ":{"ha":1028,"x_min":32,"x_max":947,"o":"m 436 991 q 707 936 592 991 q 884 773 821 881 q 947 505 947 665 q 883 225 947 338 q 698 57 819 113 q 406 0 576 0 l 125 0 l 125 404 l 32 404 l 32 576 l 125 576 l 125 991 l 436 991 m 446 819 l 335 819 l 335 576 l 496 576 l 496 404 l 335 404 l 335 174 l 424 174 q 652 256 576 174 q 729 500 729 338 q 696 681 729 610 q 600 785 663 751 q 446 819 536 819 z "},"đ":{"ha":901,"x_min":62,"x_max":876,"o":"m 349 -14 q 142 81 222 -14 q 62 357 62 175 q 143 636 62 541 q 354 730 224 730 q 450 716 408 730 q 521 676 491 701 q 572 619 551 651 l 579 619 q 569 695 574 649 q 564 777 564 741 l 564 811 l 350 811 l 350 946 l 564 946 l 564 1055 l 771 1055 l 771 946 l 876 946 l 876 811 l 771 811 l 771 0 l 612 0 l 572 98 l 564 98 q 514 42 544 67 q 444 1 485 16 q 349 -14 404 -14 m 421 151 q 541 197 506 151 q 578 336 576 243 l 578 355 q 544 509 578 456 q 418 562 510 562 q 311 509 349 562 q 272 354 272 455 q 311 202 272 254 q 421 151 350 151 z "},"Ē":{"ha":778,"x_min":125,"x_max":696,"o":"m 696 0 l 125 0 l 125 991 l 696 991 l 696 819 l 335 819 l 335 602 l 671 602 l 671 429 l 335 429 l 335 174 l 696 174 l 696 0 m 649 1218 l 649 1075 l 189 1075 l 189 1218 l 649 1218 z "},"ē":{"ha":821,"x_min":62,"x_max":761,"o":"m 421 772 q 602 732 526 772 q 720 615 678 692 q 761 428 761 538 l 761 328 l 272 328 q 325 190 275 240 q 461 140 374 140 q 594 155 534 140 q 718 200 654 170 l 718 40 q 601 -1 662 12 q 452 -14 539 -14 q 250 28 338 -14 q 112 157 162 71 q 62 374 62 243 q 107 595 62 507 q 233 728 153 684 q 421 772 314 772 m 422 625 q 322 587 362 625 q 277 465 283 548 l 567 465 q 550 547 566 511 q 503 604 534 583 q 422 625 471 625 m 642 985 l 642 842 l 182 842 l 182 985 l 642 985 z "},"Ĕ":{"ha":778,"x_min":125,"x_max":696,"o":"m 696 0 l 125 0 l 125 991 l 696 991 l 696 819 l 335 819 l 335 602 l 671 602 l 671 429 l 335 429 l 335 174 l 696 174 l 696 0 m 688 1304 q 649 1185 684 1237 q 555 1104 614 1133 q 419 1075 496 1075 q 230 1137 300 1075 q 155 1304 161 1200 l 271 1304 q 295 1247 274 1265 q 348 1224 315 1230 q 420 1219 381 1219 q 486 1225 453 1219 q 543 1250 519 1232 q 570 1304 566 1268 l 688 1304 z "},"ĕ":{"ha":821,"x_min":62,"x_max":761,"o":"m 421 772 q 602 732 526 772 q 720 615 678 692 q 761 428 761 538 l 761 328 l 272 328 q 325 190 275 240 q 461 140 374 140 q 594 155 534 140 q 718 200 654 170 l 718 40 q 601 -1 662 12 q 452 -14 539 -14 q 250 28 338 -14 q 112 157 162 71 q 62 374 62 243 q 107 595 62 507 q 233 728 153 684 q 421 772 314 772 m 422 625 q 322 587 362 625 q 277 465 283 548 l 567 465 q 550 547 566 511 q 503 604 534 583 q 422 625 471 625 m 682 1071 q 642 952 677 1004 q 548 871 607 900 q 412 842 490 842 q 223 904 293 842 q 149 1071 154 966 l 264 1071 q 288 1014 267 1032 q 341 991 309 996 q 414 986 374 986 q 479 992 446 986 q 536 1017 513 998 q 564 1071 559 1035 l 682 1071 z "},"Ė":{"ha":778,"x_min":125,"x_max":696,"o":"m 696 0 l 125 0 l 125 991 l 696 991 l 696 819 l 335 819 l 335 602 l 671 602 l 671 429 l 335 429 l 335 174 l 696 174 l 696 0 m 421 1289 q 500 1267 467 1289 q 534 1187 534 1246 q 500 1108 534 1130 q 421 1086 467 1086 q 341 1108 374 1086 q 309 1187 309 1130 q 341 1267 309 1246 q 421 1289 374 1289 z "},"ė":{"ha":821,"x_min":62,"x_max":761,"o":"m 421 772 q 602 732 526 772 q 720 615 678 692 q 761 428 761 538 l 761 328 l 272 328 q 325 190 275 240 q 461 140 374 140 q 594 155 534 140 q 718 200 654 170 l 718 40 q 601 -1 662 12 q 452 -14 539 -14 q 250 28 338 -14 q 112 157 162 71 q 62 374 62 243 q 107 595 62 507 q 233 728 153 684 q 421 772 314 772 m 422 625 q 322 587 362 625 q 277 465 283 548 l 567 465 q 550 547 566 511 q 503 604 534 583 q 422 625 471 625 m 414 1055 q 493 1034 460 1055 q 526 954 526 1013 q 493 874 526 897 q 414 852 460 852 q 334 874 367 852 q 301 954 301 897 q 334 1034 301 1013 q 414 1055 367 1055 z "},"Ę":{"ha":778,"x_min":125,"x_max":696,"o":"m 696 0 l 125 0 l 125 991 l 696 991 l 696 819 l 335 819 l 335 602 l 671 602 l 671 429 l 335 429 l 335 174 l 696 174 l 696 0 m 564 -154 q 579 -196 564 -182 q 618 -210 595 -210 q 662 -205 640 -210 q 696 -197 683 -201 l 696 -318 q 649 -329 674 -324 q 591 -334 624 -334 q 467 -290 513 -334 q 421 -178 421 -246 q 441 -100 421 -137 q 496 -32 462 -63 q 574 24 531 0 l 664 0 q 591 -82 617 -45 q 564 -154 564 -119 z "},"ę":{"ha":821,"x_min":62,"x_max":761,"o":"m 574 -154 q 589 -196 574 -182 q 628 -210 604 -210 q 671 -205 650 -210 q 705 -197 692 -201 l 705 -318 q 659 -329 684 -324 q 600 -334 633 -334 q 476 -290 522 -334 q 431 -178 431 -246 q 451 -100 431 -137 q 506 -32 471 -63 q 583 24 541 0 l 718 40 q 631 -44 663 -9 q 587 -104 600 -79 q 574 -154 574 -130 m 421 772 q 602 732 526 772 q 720 615 678 692 q 761 428 761 538 l 761 328 l 272 328 q 325 190 275 240 q 461 140 374 140 q 594 155 534 140 q 718 200 654 170 l 718 40 q 601 -1 662 12 q 452 -14 539 -14 q 250 28 338 -14 q 112 157 162 71 q 62 374 62 243 q 107 595 62 507 q 233 728 153 684 q 421 772 314 772 m 422 625 q 322 587 362 625 q 277 465 283 548 l 567 465 q 550 547 566 511 q 503 604 534 583 q 422 625 471 625 z "},"Ě":{"ha":778,"x_min":125,"x_max":715,"o":"m 696 0 l 125 0 l 125 991 l 696 991 l 696 819 l 335 819 l 335 602 l 671 602 l 671 429 l 335 429 l 335 174 l 696 174 l 696 0 m 300 1075 q 250 1144 281 1106 q 185 1217 218 1181 q 126 1279 152 1253 l 126 1297 l 264 1297 q 341 1245 300 1274 q 419 1178 382 1215 q 498 1245 455 1215 q 578 1297 541 1276 l 715 1297 l 715 1279 q 657 1218 690 1254 q 592 1144 624 1182 q 541 1075 561 1106 l 300 1075 z "},"ě":{"ha":821,"x_min":62,"x_max":761,"o":"m 421 772 q 602 732 526 772 q 720 615 678 692 q 761 428 761 538 l 761 328 l 272 328 q 325 190 275 240 q 461 140 374 140 q 594 155 534 140 q 718 200 654 170 l 718 40 q 601 -1 662 12 q 452 -14 539 -14 q 250 28 338 -14 q 112 157 162 71 q 62 374 62 243 q 107 595 62 507 q 233 728 153 684 q 421 772 314 772 m 422 625 q 322 587 362 625 q 277 465 283 548 l 567 465 q 550 547 566 511 q 503 604 534 583 q 422 625 471 625 m 293 842 q 243 910 274 873 q 178 984 212 948 q 119 1046 145 1020 l 119 1064 l 257 1064 q 334 1011 293 1041 q 412 945 376 982 q 491 1012 448 982 q 571 1064 534 1042 l 708 1064 l 708 1046 q 650 985 684 1021 q 586 911 617 949 q 534 842 554 873 l 293 842 z "},"Ĝ":{"ha":1006,"x_min":81,"x_max":895,"o":"m 501 557 l 895 557 l 895 43 q 732 2 817 17 q 542 -14 648 -14 q 291 45 394 -14 q 134 217 188 103 q 81 497 81 331 q 141 767 81 653 q 316 943 201 881 q 599 1006 432 1006 q 754 989 677 1006 q 893 945 831 972 l 823 777 q 720 815 778 800 q 597 831 661 831 q 438 789 506 831 q 334 671 371 747 q 297 493 297 595 q 323 321 297 396 q 407 204 350 246 q 555 161 464 161 q 631 166 600 161 q 689 175 662 170 l 689 382 l 501 382 l 501 557 m 677 1297 q 729 1228 697 1266 q 793 1154 760 1190 q 851 1093 827 1118 l 851 1075 l 714 1075 q 634 1127 677 1097 q 555 1194 591 1157 q 477 1127 519 1157 q 400 1075 436 1098 l 262 1075 l 262 1093 q 321 1155 288 1119 q 386 1228 355 1190 q 436 1297 417 1266 l 677 1297 z "},"ĝ":{"ha":785,"x_min":4,"x_max":768,"o":"m 330 -334 q 88 -278 172 -334 q 4 -123 4 -223 q 47 -9 4 -55 q 172 57 90 37 q 117 101 140 71 q 93 167 93 132 q 118 239 93 210 q 191 296 143 268 q 96 378 131 321 q 61 513 61 435 q 97 653 61 595 q 203 742 134 711 q 372 772 273 772 q 421 770 393 772 q 472 764 449 767 q 504 758 496 760 l 768 758 l 768 653 l 650 623 q 674 569 666 597 q 682 509 682 541 q 597 318 682 387 q 361 250 512 250 q 293 256 325 252 q 269 230 277 243 q 261 201 261 216 q 274 177 261 186 q 312 162 286 167 q 375 157 337 157 l 504 157 q 694 103 629 157 q 760 -54 760 50 q 649 -260 760 -187 q 330 -334 538 -334 m 339 -199 q 466 -185 413 -199 q 548 -145 519 -171 q 576 -85 576 -120 q 560 -40 576 -56 q 510 -16 543 -23 q 424 -9 476 -9 l 317 -9 q 249 -22 279 -9 q 201 -56 218 -34 q 183 -107 183 -78 q 224 -174 183 -150 q 339 -199 265 -199 m 372 376 q 458 412 431 376 q 485 510 485 448 q 457 613 485 578 q 372 647 429 647 q 287 613 315 647 q 258 510 258 578 q 287 412 258 448 q 372 376 315 376 m 492 1064 q 544 995 512 1033 q 608 921 575 957 q 666 860 642 885 l 666 842 l 529 842 q 449 893 492 863 q 370 961 406 924 q 292 894 334 924 q 215 842 251 865 l 77 842 l 77 860 q 136 921 103 886 q 201 995 170 957 q 251 1064 232 1033 l 492 1064 z "},"Ğ":{"ha":1006,"x_min":81,"x_max":895,"o":"m 501 557 l 895 557 l 895 43 q 732 2 817 17 q 542 -14 648 -14 q 291 45 394 -14 q 134 217 188 103 q 81 497 81 331 q 141 767 81 653 q 316 943 201 881 q 599 1006 432 1006 q 754 989 677 1006 q 893 945 831 972 l 823 777 q 720 815 778 800 q 597 831 661 831 q 438 789 506 831 q 334 671 371 747 q 297 493 297 595 q 323 321 297 396 q 407 204 350 246 q 555 161 464 161 q 631 166 600 161 q 689 175 662 170 l 689 382 l 501 382 l 501 557 m 826 1304 q 786 1185 821 1237 q 693 1104 751 1133 q 557 1075 634 1075 q 368 1137 437 1075 q 293 1304 298 1200 l 408 1304 q 432 1247 412 1265 q 486 1224 453 1230 q 558 1219 519 1219 q 624 1225 591 1219 q 681 1250 657 1232 q 708 1304 704 1268 l 826 1304 z "},"ğ":{"ha":785,"x_min":4,"x_max":768,"o":"m 330 -334 q 88 -278 172 -334 q 4 -123 4 -223 q 47 -9 4 -55 q 172 57 90 37 q 117 101 140 71 q 93 167 93 132 q 118 239 93 210 q 191 296 143 268 q 96 378 131 321 q 61 513 61 435 q 97 653 61 595 q 203 742 134 711 q 372 772 273 772 q 421 770 393 772 q 472 764 449 767 q 504 758 496 760 l 768 758 l 768 653 l 650 623 q 674 569 666 597 q 682 509 682 541 q 597 318 682 387 q 361 250 512 250 q 293 256 325 252 q 269 230 277 243 q 261 201 261 216 q 274 177 261 186 q 312 162 286 167 q 375 157 337 157 l 504 157 q 694 103 629 157 q 760 -54 760 50 q 649 -260 760 -187 q 330 -334 538 -334 m 339 -199 q 466 -185 413 -199 q 548 -145 519 -171 q 576 -85 576 -120 q 560 -40 576 -56 q 510 -16 543 -23 q 424 -9 476 -9 l 317 -9 q 249 -22 279 -9 q 201 -56 218 -34 q 183 -107 183 -78 q 224 -174 183 -150 q 339 -199 265 -199 m 372 376 q 458 412 431 376 q 485 510 485 448 q 457 613 485 578 q 372 647 429 647 q 287 613 315 647 q 258 510 258 578 q 287 412 258 448 q 372 376 315 376 m 638 1071 q 598 952 633 1004 q 505 871 564 900 q 369 842 446 842 q 180 904 250 842 q 105 1071 111 966 l 220 1071 q 244 1014 224 1032 q 298 991 265 996 q 370 986 331 986 q 436 992 403 986 q 493 1017 469 998 q 520 1071 516 1035 l 638 1071 z "},"Ġ":{"ha":1006,"x_min":81,"x_max":895,"o":"m 501 557 l 895 557 l 895 43 q 732 2 817 17 q 542 -14 648 -14 q 291 45 394 -14 q 134 217 188 103 q 81 497 81 331 q 141 767 81 653 q 316 943 201 881 q 599 1006 432 1006 q 754 989 677 1006 q 893 945 831 972 l 823 777 q 720 815 778 800 q 597 831 661 831 q 438 789 506 831 q 334 671 371 747 q 297 493 297 595 q 323 321 297 396 q 407 204 350 246 q 555 161 464 161 q 631 166 600 161 q 689 175 662 170 l 689 382 l 501 382 l 501 557 m 558 1289 q 637 1267 604 1289 q 671 1187 671 1246 q 637 1108 671 1130 q 558 1086 604 1086 q 478 1108 511 1086 q 446 1187 446 1130 q 478 1267 446 1246 q 558 1289 511 1289 z "},"ġ":{"ha":785,"x_min":4,"x_max":768,"o":"m 330 -334 q 88 -278 172 -334 q 4 -123 4 -223 q 47 -9 4 -55 q 172 57 90 37 q 117 101 140 71 q 93 167 93 132 q 118 239 93 210 q 191 296 143 268 q 96 378 131 321 q 61 513 61 435 q 97 653 61 595 q 203 742 134 711 q 372 772 273 772 q 421 770 393 772 q 472 764 449 767 q 504 758 496 760 l 768 758 l 768 653 l 650 623 q 674 569 666 597 q 682 509 682 541 q 597 318 682 387 q 361 250 512 250 q 293 256 325 252 q 269 230 277 243 q 261 201 261 216 q 274 177 261 186 q 312 162 286 167 q 375 157 337 157 l 504 157 q 694 103 629 157 q 760 -54 760 50 q 649 -260 760 -187 q 330 -334 538 -334 m 339 -199 q 466 -185 413 -199 q 548 -145 519 -171 q 576 -85 576 -120 q 560 -40 576 -56 q 510 -16 543 -23 q 424 -9 476 -9 l 317 -9 q 249 -22 279 -9 q 201 -56 218 -34 q 183 -107 183 -78 q 224 -174 183 -150 q 339 -199 265 -199 m 372 376 q 458 412 431 376 q 485 510 485 448 q 457 613 485 578 q 372 647 429 647 q 287 613 315 647 q 258 510 258 578 q 287 412 258 448 q 372 376 315 376 m 372 1055 q 451 1034 418 1055 q 484 954 484 1013 q 451 874 484 897 q 372 852 418 852 q 292 874 325 852 q 259 954 259 897 q 292 1034 259 1013 q 372 1055 325 1055 z "},"Ģ":{"ha":1006,"x_min":81,"x_max":895,"o":"m 501 557 l 895 557 l 895 43 q 732 2 817 17 q 542 -14 648 -14 q 291 45 394 -14 q 134 217 188 103 q 81 497 81 331 q 141 767 81 653 q 316 943 201 881 q 599 1006 432 1006 q 754 989 677 1006 q 893 945 831 972 l 823 777 q 720 815 778 800 q 597 831 661 831 q 438 789 506 831 q 334 671 371 747 q 297 493 297 595 q 323 321 297 396 q 407 204 350 246 q 555 161 464 161 q 631 166 600 161 q 689 175 662 170 l 689 382 l 501 382 l 501 557 m 658 -85 l 658 -98 q 627 -163 644 -129 q 589 -234 610 -197 q 545 -307 569 -270 l 425 -307 l 425 -289 q 441 -225 433 -262 q 456 -152 449 -189 q 467 -85 463 -115 l 658 -85 z "},"ģ":{"ha":785,"x_min":4,"x_max":768,"o":"m 492 1064 l 492 1046 q 476 982 484 1019 q 460 909 467 946 q 450 842 454 871 l 258 842 l 258 856 q 290 921 273 886 q 327 991 307 955 q 371 1064 347 1027 l 492 1064 m 330 -334 q 88 -278 172 -334 q 4 -123 4 -223 q 47 -9 4 -55 q 172 57 90 37 q 117 101 140 71 q 93 167 93 132 q 118 239 93 210 q 191 296 143 268 q 96 378 131 321 q 61 513 61 435 q 97 653 61 595 q 203 742 134 711 q 372 772 273 772 q 421 770 393 772 q 472 764 449 767 q 504 758 496 760 l 768 758 l 768 653 l 650 623 q 674 569 666 597 q 682 509 682 541 q 597 318 682 387 q 361 250 512 250 q 293 256 325 252 q 269 230 277 243 q 261 201 261 216 q 274 177 261 186 q 312 162 286 167 q 375 157 337 157 l 504 157 q 694 103 629 157 q 760 -54 760 50 q 649 -260 760 -187 q 330 -334 538 -334 m 339 -199 q 466 -185 413 -199 q 548 -145 519 -171 q 576 -85 576 -120 q 560 -40 576 -56 q 510 -16 543 -23 q 424 -9 476 -9 l 317 -9 q 249 -22 279 -9 q 201 -56 218 -34 q 183 -107 183 -78 q 224 -174 183 -150 q 339 -199 265 -199 m 372 376 q 458 412 431 376 q 485 510 485 448 q 457 613 485 578 q 372 647 429 647 q 287 613 315 647 q 258 510 258 578 q 287 412 258 448 q 372 376 315 376 z "},"Ĥ":{"ha":1063,"x_min":125,"x_max":937,"o":"m 937 0 l 728 0 l 728 428 l 335 428 l 335 0 l 125 0 l 125 991 l 335 991 l 335 603 l 728 603 l 728 991 l 937 991 l 937 0 m 654 1297 q 705 1228 673 1266 q 770 1154 736 1190 q 827 1093 803 1118 l 827 1075 l 690 1075 q 611 1127 654 1097 q 532 1194 568 1157 q 454 1127 495 1157 q 376 1075 412 1098 l 239 1075 l 239 1093 q 298 1155 264 1119 q 362 1228 331 1190 q 412 1297 393 1266 l 654 1297 z "},"ĥ":{"ha":913,"x_min":-78,"x_max":808,"o":"m 315 1055 l 315 840 q 312 733 315 784 q 306 661 308 682 l 317 661 q 375 725 341 701 q 449 761 408 749 q 536 772 490 772 q 680 744 618 772 q 774 653 741 715 q 808 494 808 592 l 808 0 l 602 0 l 602 443 q 572 566 602 524 q 479 607 542 607 q 381 578 417 607 q 330 493 345 549 q 315 357 315 437 l 315 0 l 109 0 l 109 1055 l 315 1055 m 337 1361 q 388 1292 357 1330 q 453 1218 420 1254 q 511 1157 486 1182 l 511 1139 l 374 1139 q 294 1191 337 1160 q 215 1258 251 1221 q 137 1191 178 1221 q 60 1139 96 1162 l -78 1139 l -78 1157 q -19 1218 -52 1183 q 45 1292 14 1254 q 96 1361 77 1330 l 337 1361 z "},"Ħ":{"ha":1063,"x_min":0,"x_max":1063,"o":"m 125 0 l 125 725 l 0 725 l 0 860 l 125 860 l 125 991 l 335 991 l 335 860 l 728 860 l 728 991 l 937 991 l 937 860 l 1063 860 l 1063 725 l 937 725 l 937 0 l 728 0 l 728 428 l 335 428 l 335 0 l 125 0 m 335 603 l 728 603 l 728 725 l 335 725 l 335 603 z "},"ħ":{"ha":913,"x_min":3,"x_max":808,"o":"m 315 1055 l 315 946 l 529 946 l 529 811 l 315 811 l 315 799 q 312 691 315 743 q 306 619 308 640 l 318 619 q 376 683 342 659 q 450 719 409 707 q 538 730 490 730 q 681 702 620 730 q 775 611 741 673 q 808 453 808 550 l 808 0 l 602 0 l 602 401 q 572 524 602 483 q 479 566 542 566 q 381 536 417 566 q 330 452 345 507 q 315 315 315 396 l 315 0 l 109 0 l 109 811 l 3 811 l 3 946 l 109 946 l 109 1055 l 315 1055 z "},"Ĩ":{"ha":460,"x_min":-50,"x_max":512,"o":"m 125 0 l 125 991 l 335 991 l 335 0 l 125 0 m -50 1074 q -31 1167 -46 1128 q 10 1233 -15 1207 q 67 1271 35 1258 q 134 1283 98 1283 q 189 1273 162 1283 q 242 1248 216 1262 q 293 1223 268 1234 q 343 1213 319 1213 q 383 1231 363 1213 q 411 1284 402 1249 l 512 1284 q 451 1126 504 1177 q 328 1075 398 1075 q 273 1086 300 1075 q 220 1111 246 1097 q 169 1135 194 1124 q 119 1146 144 1146 q 79 1128 98 1146 q 51 1074 60 1110 l -50 1074 z "},"ĩ":{"ha":424,"x_min":-69,"x_max":493,"o":"m 315 0 l 109 0 l 109 758 l 315 758 l 315 0 m -69 840 q -50 934 -65 895 q -9 999 -34 974 q 48 1037 16 1025 q 115 1050 79 1050 q 170 1039 143 1050 q 223 1015 197 1029 q 274 990 249 1000 q 324 979 300 979 q 364 997 345 979 q 392 1051 383 1015 l 493 1051 q 432 893 485 944 q 309 842 379 842 q 254 852 281 842 q 201 877 227 863 q 150 902 175 891 q 100 913 125 913 q 60 895 79 913 q 32 840 41 877 l -69 840 z "},"Ī":{"ha":460,"x_min":0,"x_max":460,"o":"m 125 0 l 125 991 l 335 991 l 335 0 l 125 0 m 460 1218 l 460 1075 l 0 1075 l 0 1218 l 460 1218 z "},"ī":{"ha":424,"x_min":-16,"x_max":444,"o":"m 315 0 l 109 0 l 109 758 l 315 758 l 315 0 m 444 985 l 444 842 l -16 842 l -16 985 l 444 985 z "},"Ĭ":{"ha":460,"x_min":-36,"x_max":497,"o":"m 125 0 l 125 991 l 335 991 l 335 0 l 125 0 m 497 1304 q 457 1185 492 1237 q 364 1104 422 1133 q 228 1075 305 1075 q 39 1137 109 1075 q -36 1304 -31 1200 l 79 1304 q 103 1247 83 1265 q 157 1224 124 1230 q 229 1219 190 1219 q 295 1225 262 1219 q 352 1250 328 1232 q 379 1304 375 1268 l 497 1304 z "},"ĭ":{"ha":424,"x_min":-50,"x_max":483,"o":"m 315 0 l 109 0 l 109 758 l 315 758 l 315 0 m 483 1071 q 443 952 478 1004 q 350 871 408 900 q 214 842 291 842 q 25 904 94 842 q -50 1071 -45 966 l 65 1071 q 89 1014 68 1032 q 143 991 110 996 q 215 986 176 986 q 281 992 248 986 q 337 1017 314 998 q 365 1071 361 1035 l 483 1071 z "},"Į":{"ha":460,"x_min":92,"x_max":366,"o":"m 125 0 l 125 991 l 335 991 l 335 0 l 125 0 m 235 -154 q 250 -196 235 -182 q 289 -210 265 -210 q 332 -205 311 -210 q 366 -197 353 -201 l 366 -318 q 319 -329 345 -324 q 261 -334 294 -334 q 137 -290 183 -334 q 92 -178 92 -246 q 112 -100 92 -137 q 167 -32 132 -63 q 244 24 201 0 l 334 0 q 261 -82 288 -45 q 235 -154 235 -119 z "},"į":{"ha":424,"x_min":62,"x_max":337,"o":"m 315 758 l 315 0 l 109 0 l 109 758 l 315 758 m 212 1055 q 292 1034 258 1055 q 325 954 325 1013 q 292 874 325 897 q 212 852 258 852 q 133 874 165 852 q 100 954 100 897 q 133 1034 100 1013 q 212 1055 165 1055 m 205 -154 q 221 -196 205 -182 q 260 -210 236 -210 q 303 -205 281 -210 q 337 -197 324 -201 l 337 -318 q 290 -329 315 -324 q 232 -334 265 -334 q 108 -290 154 -334 q 62 -178 62 -246 q 83 -100 62 -137 q 138 -32 103 -63 q 215 24 172 0 l 305 0 q 232 -82 258 -45 q 205 -154 205 -119 z "},"İ":{"ha":460,"x_min":118,"x_max":343,"o":"m 125 0 l 125 991 l 335 991 l 335 0 l 125 0 m 231 1289 q 310 1267 277 1289 q 343 1187 343 1246 q 310 1108 343 1130 q 231 1086 277 1086 q 151 1108 184 1086 q 118 1187 118 1130 q 151 1267 118 1246 q 231 1289 184 1289 z "},"Ĳ":{"ha":920,"x_min":125,"x_max":795,"o":"m 125 0 l 125 991 l 335 991 l 335 0 l 125 0 m 481 -292 q 409 -287 440 -292 q 357 -277 378 -283 l 357 -102 q 403 -111 378 -106 q 456 -115 428 -115 q 522 -101 492 -115 q 568 -49 551 -87 q 585 62 585 -10 l 585 991 l 795 991 l 795 64 q 755 -142 795 -64 q 645 -256 715 -220 q 481 -292 574 -292 z "},"ĳ":{"ha":847,"x_min":100,"x_max":749,"o":"m 315 758 l 315 0 l 109 0 l 109 758 l 315 758 m 212 1055 q 292 1034 258 1055 q 325 954 325 1013 q 292 874 325 897 q 212 852 258 852 q 133 874 165 852 q 100 954 100 897 q 133 1034 100 1013 q 212 1055 165 1055 m 471 -334 q 398 -329 436 -334 q 335 -317 360 -323 l 335 -154 q 382 -164 360 -161 q 432 -167 404 -167 q 503 -143 474 -167 q 532 -52 532 -120 l 532 758 l 739 758 l 739 -82 q 713 -209 739 -151 q 627 -300 686 -266 q 471 -334 568 -334 m 524 954 q 556 1034 524 1013 q 636 1055 589 1055 q 715 1034 682 1055 q 749 954 749 1013 q 715 874 749 897 q 636 852 682 852 q 556 874 589 852 q 524 954 524 897 z "},"Ĵ":{"ha":460,"x_min":-103,"x_max":526,"o":"m 21 -292 q -51 -287 -20 -292 q -103 -277 -81 -283 l -103 -102 q -57 -111 -81 -106 q -4 -115 -32 -115 q 62 -101 33 -115 q 108 -49 91 -87 q 125 62 125 -10 l 125 991 l 335 991 l 335 64 q 295 -142 335 -64 q 185 -256 256 -220 q 21 -292 114 -292 m 353 1297 q 404 1228 372 1266 q 469 1154 435 1190 q 526 1093 502 1118 l 526 1075 l 389 1075 q 310 1127 353 1097 q 231 1194 267 1157 q 153 1127 194 1157 q 75 1075 111 1098 l -62 1075 l -62 1093 q -3 1155 -37 1119 q 61 1228 30 1190 q 111 1297 92 1266 l 353 1297 z "},"ĵ":{"ha":424,"x_min":-89,"x_max":508,"o":"m 47 -334 q -26 -329 12 -334 q -89 -317 -64 -323 l -89 -154 q -42 -164 -64 -161 q 8 -167 -20 -167 q 79 -143 50 -167 q 109 -52 109 -120 l 109 758 l 315 758 l 315 -82 q 289 -209 315 -151 q 203 -300 262 -266 q 47 -334 144 -334 m 334 1064 q 386 995 354 1033 q 450 921 417 957 q 508 860 484 885 l 508 842 l 371 842 q 291 893 334 863 q 212 961 248 924 q 134 894 176 924 q 57 842 93 865 l -81 842 l -81 860 q -22 921 -55 886 q 43 995 12 957 q 93 1064 74 1033 l 334 1064 z "},"Ķ":{"ha":922,"x_min":125,"x_max":922,"o":"m 922 0 l 684 0 l 424 418 l 335 354 l 335 0 l 125 0 l 125 991 l 335 991 l 335 538 q 376 596 356 567 q 418 654 397 625 l 686 991 l 920 991 l 574 553 l 922 0 m 600 -85 l 600 -98 q 569 -163 586 -129 q 531 -234 551 -197 q 487 -307 511 -270 l 366 -307 l 366 -289 q 382 -225 374 -262 q 398 -152 391 -189 q 408 -85 405 -115 l 600 -85 z "},"ķ":{"ha":861,"x_min":109,"x_max":861,"o":"m 315 1055 l 315 583 q 312 498 315 541 q 304 412 309 455 l 307 412 q 350 471 328 442 q 397 528 372 500 l 610 758 l 843 758 l 542 429 l 861 0 l 623 0 l 404 307 l 315 236 l 315 0 l 109 0 l 109 1055 l 315 1055 m 547 -85 l 547 -98 q 516 -163 534 -129 q 479 -234 499 -197 q 435 -307 458 -270 l 314 -307 l 314 -289 q 330 -225 322 -262 q 346 -152 338 -189 q 356 -85 353 -115 l 547 -85 z "},"ĸ":{"ha":861,"x_min":109,"x_max":861,"o":"m 843 758 l 545 411 l 861 0 l 625 0 l 412 289 l 315 228 l 315 0 l 109 0 l 109 758 l 315 758 l 315 559 q 314 477 315 518 q 311 395 313 435 l 314 395 q 361 452 338 424 q 410 510 385 481 l 623 758 l 843 758 z "},"Ĺ":{"ha":785,"x_min":103,"x_max":737,"o":"m 125 0 l 125 991 l 335 991 l 335 174 l 737 174 l 737 0 l 125 0 m 494 1297 l 494 1283 q 443 1236 475 1264 q 374 1178 411 1208 q 302 1121 338 1148 q 241 1075 267 1093 l 103 1075 l 103 1093 q 155 1155 125 1119 q 214 1228 184 1190 q 262 1297 243 1266 l 494 1297 z "},"ĺ":{"ha":424,"x_min":87,"x_max":479,"o":"m 315 0 l 109 0 l 109 1055 l 315 1055 l 315 0 m 479 1361 l 479 1347 q 427 1300 459 1328 q 359 1242 395 1272 q 287 1184 322 1212 q 225 1139 252 1157 l 87 1139 l 87 1157 q 139 1218 110 1183 q 198 1292 169 1254 q 247 1361 227 1330 l 479 1361 z "},"Ļ":{"ha":785,"x_min":125,"x_max":737,"o":"m 125 0 l 125 991 l 335 991 l 335 174 l 737 174 l 737 0 l 125 0 m 545 -85 l 545 -98 q 514 -163 531 -129 q 476 -234 496 -197 q 432 -307 456 -270 l 311 -307 l 311 -289 q 328 -225 319 -262 q 343 -152 336 -189 q 353 -85 350 -115 l 545 -85 z "},"ļ":{"ha":424,"x_min":96,"x_max":329,"o":"m 315 0 l 109 0 l 109 1055 l 315 1055 l 315 0 m 329 -85 l 329 -98 q 298 -163 315 -129 q 260 -234 281 -197 q 216 -307 240 -270 l 96 -307 l 96 -289 q 112 -225 104 -262 q 127 -152 120 -189 q 138 -85 134 -115 l 329 -85 z "},"Ľ":{"ha":785,"x_min":125,"x_max":777,"o":"m 125 0 l 125 991 l 335 991 l 335 174 l 737 174 l 737 0 l 125 0 m 777 991 l 777 978 q 746 913 763 947 q 708 843 728 879 q 664 770 688 806 l 543 770 l 543 787 q 555 833 549 808 q 567 887 562 859 q 578 942 573 916 q 585 991 583 969 l 777 991 z "},"ľ":{"ha":424,"x_min":109,"x_max":586,"o":"m 315 0 l 109 0 l 109 1055 l 315 1055 l 315 0 m 586 1055 l 586 1042 q 555 977 572 1011 q 517 906 538 943 q 473 833 497 870 l 353 833 l 353 851 q 365 897 359 871 q 377 951 371 923 q 387 1006 382 979 q 395 1055 392 1033 l 586 1055 z "},"Ŀ":{"ha":785,"x_min":125,"x_max":737,"o":"m 125 0 l 125 991 l 335 991 l 335 174 l 737 174 l 737 0 l 125 0 m 610 646 q 689 624 656 646 q 722 545 722 603 q 689 465 722 487 q 610 443 656 443 q 530 465 563 443 q 497 545 497 487 q 530 624 497 603 q 610 646 563 646 z "},"ŀ":{"ha":503,"x_min":109,"x_max":575,"o":"m 315 0 l 109 0 l 109 1055 l 315 1055 l 315 0 m 463 626 q 542 605 509 626 q 575 525 575 583 q 542 445 575 467 q 463 423 509 423 q 383 445 416 423 q 350 525 350 467 q 383 605 350 583 q 463 626 416 626 z "},"Ł":{"ha":785,"x_min":1,"x_max":737,"o":"m 125 0 l 125 334 l 78 306 l 1 439 l 125 514 l 125 991 l 335 991 l 335 642 l 432 701 l 511 568 l 335 461 l 335 174 l 737 174 l 737 0 l 125 0 z "},"ł":{"ha":424,"x_min":-17,"x_max":441,"o":"m 109 0 l 109 323 l 60 294 l -17 428 l 109 504 l 109 1055 l 315 1055 l 315 631 l 363 660 l 441 526 l 315 450 l 315 0 l 109 0 z "},"Ń":{"ha":1129,"x_min":125,"x_max":1004,"o":"m 1004 0 l 737 0 l 306 750 l 300 750 q 304 656 302 703 q 309 561 307 608 q 313 467 311 514 l 313 0 l 125 0 l 125 991 l 390 991 l 821 249 l 825 249 q 822 340 824 295 q 818 431 820 386 q 815 522 817 477 l 815 991 l 1004 991 l 1004 0 m 831 1297 l 831 1283 q 780 1236 812 1264 q 711 1178 748 1208 q 640 1121 675 1148 q 578 1075 604 1093 l 440 1075 l 440 1093 q 492 1155 463 1119 q 551 1228 522 1190 q 600 1297 580 1266 l 831 1297 z "},"ń":{"ha":913,"x_min":109,"x_max":808,"o":"m 539 772 q 734 706 661 772 q 808 494 808 640 l 808 0 l 602 0 l 602 443 q 572 566 602 524 q 479 607 543 607 q 350 543 385 607 q 315 357 315 478 l 315 0 l 109 0 l 109 758 l 267 758 l 294 661 l 306 661 q 367 725 330 701 q 447 761 403 749 q 539 772 492 772 m 724 1064 l 724 1050 q 672 1003 704 1031 q 604 945 640 975 q 532 887 567 915 q 470 842 496 860 l 332 842 l 332 860 q 384 921 355 886 q 443 995 414 957 q 492 1064 472 1033 l 724 1064 z "},"Ņ":{"ha":1129,"x_min":125,"x_max":1004,"o":"m 1004 0 l 737 0 l 306 750 l 300 750 q 304 656 302 703 q 309 561 307 608 q 313 467 311 514 l 313 0 l 125 0 l 125 991 l 390 991 l 821 249 l 825 249 q 822 340 824 295 q 818 431 820 386 q 815 522 817 477 l 815 991 l 1004 991 l 1004 0 m 682 -85 l 682 -98 q 651 -163 668 -129 q 613 -234 633 -197 q 569 -307 593 -270 l 448 -307 l 448 -289 q 465 -225 456 -262 q 480 -152 473 -189 q 490 -85 487 -115 l 682 -85 z "},"ņ":{"ha":913,"x_min":109,"x_max":808,"o":"m 539 772 q 734 706 661 772 q 808 494 808 640 l 808 0 l 602 0 l 602 443 q 572 566 602 524 q 479 607 543 607 q 350 543 385 607 q 315 357 315 478 l 315 0 l 109 0 l 109 758 l 267 758 l 294 661 l 306 661 q 367 725 330 701 q 447 761 403 749 q 539 772 492 772 m 574 -85 l 574 -98 q 543 -163 560 -129 q 505 -234 526 -197 q 461 -307 485 -270 l 340 -307 l 340 -289 q 357 -225 349 -262 q 372 -152 365 -189 q 382 -85 379 -115 l 574 -85 z "},"Ň":{"ha":1129,"x_min":125,"x_max":1004,"o":"m 1004 0 l 737 0 l 306 750 l 300 750 q 304 656 302 703 q 309 561 307 608 q 313 467 311 514 l 313 0 l 125 0 l 125 991 l 390 991 l 821 249 l 825 249 q 822 340 824 295 q 818 431 820 386 q 815 522 817 477 l 815 991 l 1004 991 l 1004 0 m 448 1075 q 397 1144 429 1106 q 333 1217 366 1181 q 274 1279 300 1253 l 274 1297 l 412 1297 q 489 1245 448 1274 q 567 1178 530 1215 q 646 1245 603 1215 q 726 1297 689 1276 l 863 1297 l 863 1279 q 805 1218 838 1254 q 740 1144 772 1182 q 689 1075 709 1106 l 448 1075 z "},"ň":{"ha":913,"x_min":109,"x_max":808,"o":"m 539 772 q 734 706 661 772 q 808 494 808 640 l 808 0 l 602 0 l 602 443 q 572 566 602 524 q 479 607 543 607 q 350 543 385 607 q 315 357 315 478 l 315 0 l 109 0 l 109 758 l 267 758 l 294 661 l 306 661 q 367 725 330 701 q 447 761 403 749 q 539 772 492 772 m 339 842 q 289 910 320 873 q 224 984 258 948 q 165 1046 191 1020 l 165 1064 l 303 1064 q 380 1011 339 1041 q 458 945 422 982 q 537 1012 494 982 q 617 1064 581 1042 l 754 1064 l 754 1046 q 696 985 730 1021 q 632 911 663 949 q 581 842 600 873 l 339 842 z "},"ŉ":{"ha":1069,"x_min":3,"x_max":965,"o":"m 696 772 q 891 706 817 772 q 965 494 965 640 l 965 0 l 758 0 l 758 443 q 729 566 758 524 q 636 607 699 607 q 507 543 541 607 q 472 357 472 478 l 472 0 l 265 0 l 265 758 l 423 758 l 451 661 l 463 661 q 523 725 487 701 q 604 761 559 749 q 696 772 648 772 m 262 991 l 271 977 q 240 871 259 927 q 198 759 220 815 q 152 652 175 703 l 3 652 q 23 737 13 692 q 42 827 33 782 q 58 913 51 871 q 71 991 66 956 l 262 991 z "},"Ŋ":{"ha":1129,"x_min":125,"x_max":1004,"o":"m 689 -292 q 612 -287 646 -292 q 555 -277 578 -283 l 555 -113 q 608 -122 581 -117 q 668 -126 636 -126 q 752 -113 720 -126 q 802 -71 785 -100 q 821 3 819 -43 l 306 750 l 300 750 q 306 659 303 711 q 311 555 309 607 q 313 467 313 504 l 313 0 l 125 0 l 125 991 l 390 991 l 821 380 l 825 380 q 821 471 823 420 q 817 571 819 522 q 815 654 815 621 l 815 991 l 1004 991 l 1004 0 q 965 -165 1004 -100 q 854 -261 925 -230 q 689 -292 783 -292 z "},"ŋ":{"ha":913,"x_min":109,"x_max":808,"o":"m 562 -334 q 495 -329 530 -334 q 437 -317 460 -323 l 437 -154 q 477 -164 458 -161 q 518 -167 495 -167 q 577 -143 552 -167 q 602 -52 602 -120 l 602 458 q 571 570 602 532 q 479 607 540 607 q 380 578 416 607 q 330 493 345 549 q 315 357 315 437 l 315 0 l 109 0 l 109 758 l 267 758 l 294 661 l 307 661 q 368 725 332 701 q 448 761 404 749 q 539 772 492 772 q 681 744 621 772 q 775 653 741 715 q 808 494 808 592 l 808 -82 q 784 -209 808 -151 q 706 -300 760 -266 q 562 -334 652 -334 z "},"Ō":{"ha":1105,"x_min":81,"x_max":1025,"o":"m 1025 497 q 996 289 1025 382 q 910 127 968 195 q 763 23 852 59 q 553 -14 674 -14 q 342 23 431 -14 q 196 127 254 59 q 109 289 138 195 q 81 498 81 383 q 131 767 81 652 q 287 944 182 881 q 554 1007 392 1007 q 820 944 715 1007 q 974 766 924 881 q 1025 497 1025 652 m 301 497 q 327 318 301 393 q 409 203 353 243 q 553 163 465 163 q 698 203 642 163 q 779 318 753 243 q 804 497 804 393 q 746 743 804 653 q 554 832 688 832 q 409 792 465 832 q 327 676 353 751 q 301 497 301 602 m 783 1218 l 783 1075 l 323 1075 l 323 1218 l 783 1218 z "},"ō":{"ha":860,"x_min":62,"x_max":798,"o":"m 798 380 q 772 212 798 286 q 698 89 747 139 q 582 12 650 38 q 428 -14 513 -14 q 281 12 348 -14 q 165 89 214 38 q 89 212 116 139 q 62 380 62 286 q 107 594 62 507 q 235 727 152 682 q 432 772 317 772 q 621 727 538 772 q 750 594 703 682 q 798 380 798 507 m 273 380 q 290 255 273 306 q 340 178 306 204 q 431 153 375 153 q 520 178 486 153 q 570 255 554 204 q 586 380 586 306 q 570 506 586 456 q 519 581 554 555 q 429 606 485 606 q 310 549 347 606 q 273 380 273 493 m 661 985 l 661 842 l 201 842 l 201 985 l 661 985 z "},"Ŏ":{"ha":1105,"x_min":81,"x_max":1025,"o":"m 1025 497 q 996 289 1025 382 q 910 127 968 195 q 763 23 852 59 q 553 -14 674 -14 q 342 23 431 -14 q 196 127 254 59 q 109 289 138 195 q 81 498 81 383 q 131 767 81 652 q 287 944 182 881 q 554 1007 392 1007 q 820 944 715 1007 q 974 766 924 881 q 1025 497 1025 652 m 301 497 q 327 318 301 393 q 409 203 353 243 q 553 163 465 163 q 698 203 642 163 q 779 318 753 243 q 804 497 804 393 q 746 743 804 653 q 554 832 688 832 q 409 792 465 832 q 327 676 353 751 q 301 497 301 602 m 823 1304 q 784 1185 819 1237 q 690 1104 749 1133 q 554 1075 631 1075 q 365 1137 435 1075 q 290 1304 296 1200 l 406 1304 q 430 1247 409 1265 q 483 1224 450 1230 q 555 1219 516 1219 q 621 1225 588 1219 q 678 1250 654 1232 q 705 1304 701 1268 l 823 1304 z "},"ŏ":{"ha":860,"x_min":62,"x_max":798,"o":"m 798 380 q 772 212 798 286 q 698 89 747 139 q 582 12 650 38 q 428 -14 513 -14 q 281 12 348 -14 q 165 89 214 38 q 89 212 116 139 q 62 380 62 286 q 107 594 62 507 q 235 727 152 682 q 432 772 317 772 q 621 727 538 772 q 750 594 703 682 q 798 380 798 507 m 273 380 q 290 255 273 306 q 340 178 306 204 q 431 153 375 153 q 520 178 486 153 q 570 255 554 204 q 586 380 586 306 q 570 506 586 456 q 519 581 554 555 q 429 606 485 606 q 310 549 347 606 q 273 380 273 493 m 701 1071 q 662 952 696 1004 q 568 871 627 900 q 432 842 509 842 q 243 904 313 842 q 168 1071 174 966 l 283 1071 q 308 1014 287 1032 q 361 991 328 996 q 433 986 394 986 q 499 992 466 986 q 556 1017 532 998 q 583 1071 579 1035 l 701 1071 z "},"Ő":{"ha":1105,"x_min":81,"x_max":1025,"o":"m 1025 497 q 996 289 1025 382 q 910 127 968 195 q 763 23 852 59 q 553 -14 674 -14 q 342 23 431 -14 q 196 127 254 59 q 109 289 138 195 q 81 498 81 383 q 131 767 81 652 q 287 944 182 881 q 554 1007 392 1007 q 820 944 715 1007 q 974 766 924 881 q 1025 497 1025 652 m 301 497 q 327 318 301 393 q 409 203 353 243 q 553 163 465 163 q 698 203 642 163 q 779 318 753 243 q 804 497 804 393 q 746 743 804 653 q 554 832 688 832 q 409 792 465 832 q 327 676 353 751 q 301 497 301 602 m 960 1297 l 960 1283 q 922 1238 949 1265 q 861 1180 895 1211 q 793 1122 827 1149 q 733 1075 759 1094 l 623 1075 l 623 1093 q 668 1156 643 1120 q 716 1229 692 1192 q 755 1297 740 1266 l 960 1297 m 690 1297 l 690 1283 q 653 1238 680 1265 q 592 1180 626 1211 q 524 1122 557 1149 q 464 1075 490 1094 l 354 1075 l 354 1093 q 398 1156 374 1120 q 446 1229 422 1192 q 486 1297 469 1266 l 690 1297 z "},"ő":{"ha":860,"x_min":62,"x_max":838,"o":"m 798 380 q 772 212 798 286 q 698 89 747 139 q 582 12 650 38 q 428 -14 513 -14 q 281 12 348 -14 q 165 89 214 38 q 89 212 116 139 q 62 380 62 286 q 107 594 62 507 q 235 727 152 682 q 432 772 317 772 q 621 727 538 772 q 750 594 703 682 q 798 380 798 507 m 273 380 q 290 255 273 306 q 340 178 306 204 q 431 153 375 153 q 520 178 486 153 q 570 255 554 204 q 586 380 586 306 q 570 506 586 456 q 519 581 554 555 q 429 606 485 606 q 310 549 347 606 q 273 380 273 493 m 838 1064 l 838 1050 q 800 1004 827 1031 q 739 947 773 977 q 671 888 705 916 q 611 842 637 861 l 501 842 l 501 860 q 546 922 521 886 q 594 996 570 958 q 633 1064 618 1033 l 838 1064 m 568 1064 l 568 1050 q 531 1004 557 1031 q 470 947 504 977 q 401 888 435 916 q 342 842 368 861 l 232 842 l 232 860 q 276 922 252 886 q 323 996 300 958 q 363 1064 347 1033 l 568 1064 z "},"Œ":{"ha":1352,"x_min":81,"x_max":1270,"o":"m 526 1007 q 607 1003 563 1007 q 681 991 650 999 l 1270 991 l 1270 819 l 888 819 l 888 602 l 1244 602 l 1244 429 l 888 429 l 888 174 l 1270 174 l 1270 0 l 677 0 q 604 -10 648 -6 q 525 -14 561 -14 q 275 50 373 -14 q 129 229 176 114 q 81 498 81 345 q 129 767 81 652 q 275 944 176 881 q 526 1007 374 1007 m 526 832 q 424 809 467 832 q 352 743 380 786 q 311 637 324 699 q 297 497 297 575 q 321 318 297 393 q 396 203 346 243 q 525 163 447 163 q 609 170 566 163 q 677 189 652 176 l 677 804 q 610 825 652 818 q 526 832 567 832 z "},"œ":{"ha":1358,"x_min":62,"x_max":1299,"o":"m 949 772 q 1135 732 1057 772 q 1256 615 1213 692 q 1299 428 1299 538 l 1299 328 l 793 328 q 848 189 798 238 q 989 140 899 140 q 1127 155 1065 140 q 1255 200 1190 170 l 1255 40 q 1135 -1 1198 12 q 981 -14 1072 -14 q 821 12 895 -14 q 696 92 748 38 q 580 13 648 39 q 431 -14 512 -14 q 240 32 323 -14 q 110 166 157 78 q 62 380 62 254 q 106 594 62 507 q 231 727 149 682 q 429 772 313 772 q 573 746 505 772 q 689 667 642 719 q 762 725 722 702 q 849 761 802 749 q 949 772 896 772 m 429 606 q 310 549 347 606 q 273 380 273 493 q 290 255 273 306 q 340 178 306 204 q 431 153 375 153 q 520 178 486 153 q 570 255 554 204 q 586 380 586 306 q 570 506 586 456 q 519 581 554 555 q 429 606 485 606 m 953 625 q 847 587 889 625 q 799 465 805 548 l 1104 465 q 1087 547 1103 511 q 1037 604 1070 583 q 953 625 1004 625 z "},"Ŕ":{"ha":917,"x_min":125,"x_max":917,"o":"m 414 991 q 636 959 549 991 q 767 861 724 926 q 810 694 810 795 q 784 576 810 627 q 716 490 758 525 q 625 432 674 454 l 917 0 l 684 0 l 447 380 l 335 380 l 335 0 l 125 0 l 125 991 l 414 991 m 399 819 l 335 819 l 335 551 l 403 551 q 552 586 507 551 q 597 689 597 621 q 549 789 597 760 q 399 819 500 819 m 736 1297 l 736 1283 q 684 1236 716 1264 q 616 1178 652 1208 q 544 1121 579 1148 q 482 1075 509 1093 l 345 1075 l 345 1093 q 396 1155 367 1119 q 455 1228 426 1190 q 504 1297 484 1266 l 736 1297 z "},"ŕ":{"ha":631,"x_min":109,"x_max":619,"o":"m 532 772 q 568 771 547 772 q 602 766 589 769 l 586 572 q 557 577 576 576 q 525 579 538 579 q 447 569 485 579 q 380 536 410 559 q 333 476 350 513 q 315 386 315 439 l 315 0 l 109 0 l 109 758 l 265 758 l 296 631 l 306 631 q 362 702 328 669 q 438 753 395 734 q 532 772 481 772 m 619 1064 l 619 1050 q 568 1003 600 1031 q 499 945 536 975 q 427 887 463 915 q 366 842 392 860 l 228 842 l 228 860 q 280 921 250 886 q 338 995 309 957 q 387 1064 368 1033 l 619 1064 z "},"Ŗ":{"ha":917,"x_min":125,"x_max":917,"o":"m 414 991 q 636 959 549 991 q 767 861 724 926 q 810 694 810 795 q 784 576 810 627 q 716 490 758 525 q 625 432 674 454 l 917 0 l 684 0 l 447 380 l 335 380 l 335 0 l 125 0 l 125 991 l 414 991 m 399 819 l 335 819 l 335 551 l 403 551 q 552 586 507 551 q 597 689 597 621 q 549 789 597 760 q 399 819 500 819 m 614 -85 l 614 -98 q 583 -163 600 -129 q 545 -234 566 -197 q 501 -307 525 -270 l 380 -307 l 380 -289 q 397 -225 389 -262 q 412 -152 405 -189 q 422 -85 419 -115 l 614 -85 z "},"ŗ":{"ha":631,"x_min":100,"x_max":602,"o":"m 532 772 q 568 771 547 772 q 602 766 589 769 l 586 572 q 557 577 576 576 q 525 579 538 579 q 447 569 485 579 q 380 536 410 559 q 333 476 350 513 q 315 386 315 439 l 315 0 l 109 0 l 109 758 l 265 758 l 296 631 l 306 631 q 362 702 328 669 q 438 753 395 734 q 532 772 481 772 m 333 -85 l 333 -98 q 302 -163 319 -129 q 264 -234 285 -197 q 220 -307 244 -270 l 100 -307 l 100 -289 q 116 -225 108 -262 q 131 -152 124 -189 q 142 -85 138 -115 l 333 -85 z "},"Ř":{"ha":917,"x_min":125,"x_max":917,"o":"m 414 991 q 636 959 549 991 q 767 861 724 926 q 810 694 810 795 q 784 576 810 627 q 716 490 758 525 q 625 432 674 454 l 917 0 l 684 0 l 447 380 l 335 380 l 335 0 l 125 0 l 125 991 l 414 991 m 399 819 l 335 819 l 335 551 l 403 551 q 552 586 507 551 q 597 689 597 621 q 549 789 597 760 q 399 819 500 819 m 351 1075 q 301 1144 332 1106 q 237 1217 270 1181 q 178 1279 203 1253 l 178 1297 l 315 1297 q 393 1245 351 1274 q 471 1178 434 1215 q 550 1245 507 1215 q 629 1297 593 1276 l 766 1297 l 766 1279 q 709 1218 742 1254 q 644 1144 675 1182 q 593 1075 612 1106 l 351 1075 z "},"ř":{"ha":631,"x_min":61,"x_max":650,"o":"m 532 772 q 568 771 547 772 q 602 766 589 769 l 586 572 q 557 577 576 576 q 525 579 538 579 q 447 569 485 579 q 380 536 410 559 q 333 476 350 513 q 315 386 315 439 l 315 0 l 109 0 l 109 758 l 265 758 l 296 631 l 306 631 q 362 702 328 669 q 438 753 395 734 q 532 772 481 772 m 235 842 q 184 910 216 873 q 120 984 153 948 q 61 1046 87 1020 l 61 1064 l 199 1064 q 276 1011 235 1041 q 354 945 317 982 q 433 1012 390 982 q 513 1064 476 1042 l 650 1064 l 650 1046 q 592 985 625 1021 q 527 911 559 949 q 476 842 496 873 l 235 842 z "},"Ś":{"ha":765,"x_min":64,"x_max":710,"o":"m 710 275 q 667 122 710 187 q 543 22 625 57 q 345 -14 461 -14 q 244 -7 293 -14 q 150 13 195 0 q 64 46 104 26 l 64 241 q 210 185 134 210 q 361 160 286 160 q 444 174 412 160 q 490 211 475 187 q 504 265 504 235 q 479 329 504 302 q 410 378 454 355 q 311 428 366 401 q 236 468 277 444 q 159 525 195 491 q 99 607 122 559 q 75 724 75 656 q 116 876 75 812 q 232 972 157 939 q 411 1006 308 1006 q 558 988 488 1006 q 705 936 629 970 l 637 772 q 515 815 569 800 q 404 831 460 831 q 337 818 365 831 q 295 783 309 806 q 281 730 281 760 q 301 671 281 695 q 364 625 322 647 q 468 572 406 602 q 598 497 544 536 q 681 406 652 458 q 710 275 710 353 m 661 1297 l 661 1283 q 609 1236 641 1264 q 541 1178 577 1208 q 469 1121 504 1148 q 407 1075 433 1093 l 269 1075 l 269 1093 q 321 1155 292 1119 q 380 1228 351 1190 q 429 1297 409 1266 l 661 1297 z "},"ś":{"ha":690,"x_min":62,"x_max":637,"o":"m 637 225 q 601 95 637 148 q 493 14 565 41 q 314 -14 421 -14 q 178 -3 235 -14 q 64 31 121 7 l 64 201 q 196 156 125 174 q 321 138 267 138 q 407 156 381 138 q 433 203 433 174 q 423 237 433 222 q 378 272 412 252 q 269 322 343 291 q 152 382 198 352 q 84 455 106 413 q 62 561 62 496 q 144 719 62 666 q 363 772 226 772 q 497 758 433 772 q 629 713 562 744 l 567 564 q 461 604 511 588 q 359 619 411 619 q 291 607 314 619 q 268 570 268 595 q 280 537 268 551 q 326 506 292 523 q 427 461 360 488 q 538 406 491 435 q 612 335 586 377 q 637 225 637 292 m 612 1064 l 612 1050 q 561 1003 593 1031 q 492 945 529 975 q 420 887 456 915 q 359 842 385 860 l 221 842 l 221 860 q 273 921 243 886 q 332 995 302 957 q 380 1064 361 1033 l 612 1064 z "},"Ŝ":{"ha":765,"x_min":64,"x_max":710,"o":"m 710 275 q 667 122 710 187 q 543 22 625 57 q 345 -14 461 -14 q 244 -7 293 -14 q 150 13 195 0 q 64 46 104 26 l 64 241 q 210 185 134 210 q 361 160 286 160 q 444 174 412 160 q 490 211 475 187 q 504 265 504 235 q 479 329 504 302 q 410 378 454 355 q 311 428 366 401 q 236 468 277 444 q 159 525 195 491 q 99 607 122 559 q 75 724 75 656 q 116 876 75 812 q 232 972 157 939 q 411 1006 308 1006 q 558 988 488 1006 q 705 936 629 970 l 637 772 q 515 815 569 800 q 404 831 460 831 q 337 818 365 831 q 295 783 309 806 q 281 730 281 760 q 301 671 281 695 q 364 625 322 647 q 468 572 406 602 q 598 497 544 536 q 681 406 652 458 q 710 275 710 353 m 517 1297 q 568 1228 536 1266 q 633 1154 600 1190 q 690 1093 666 1118 l 690 1075 l 553 1075 q 474 1127 517 1097 q 395 1194 431 1157 q 317 1127 358 1157 q 239 1075 275 1098 l 102 1075 l 102 1093 q 161 1155 127 1119 q 225 1228 194 1190 q 275 1297 256 1266 l 517 1297 z "},"ŝ":{"ha":690,"x_min":53,"x_max":642,"o":"m 637 225 q 601 95 637 148 q 493 14 565 41 q 314 -14 421 -14 q 178 -3 235 -14 q 64 31 121 7 l 64 201 q 196 156 125 174 q 321 138 267 138 q 407 156 381 138 q 433 203 433 174 q 423 237 433 222 q 378 272 412 252 q 269 322 343 291 q 152 382 198 352 q 84 455 106 413 q 62 561 62 496 q 144 719 62 666 q 363 772 226 772 q 497 758 433 772 q 629 713 562 744 l 567 564 q 461 604 511 588 q 359 619 411 619 q 291 607 314 619 q 268 570 268 595 q 280 537 268 551 q 326 506 292 523 q 427 461 360 488 q 538 406 491 435 q 612 335 586 377 q 637 225 637 292 m 468 1064 q 519 995 488 1033 q 584 921 551 957 q 642 860 617 885 l 642 842 l 505 842 q 425 893 468 863 q 346 961 382 924 q 268 894 309 924 q 191 842 227 865 l 53 842 l 53 860 q 112 921 79 886 q 176 995 145 957 q 227 1064 208 1033 l 468 1064 z "},"Ş":{"ha":765,"x_min":64,"x_max":710,"o":"m 710 275 q 667 122 710 187 q 543 22 625 57 q 345 -14 461 -14 q 244 -7 293 -14 q 150 13 195 0 q 64 46 104 26 l 64 241 q 210 185 134 210 q 361 160 286 160 q 444 174 412 160 q 490 211 475 187 q 504 265 504 235 q 479 329 504 302 q 410 378 454 355 q 311 428 366 401 q 236 468 277 444 q 159 525 195 491 q 99 607 122 559 q 75 724 75 656 q 116 876 75 812 q 232 972 157 939 q 411 1006 308 1006 q 558 988 488 1006 q 705 936 629 970 l 637 772 q 515 815 569 800 q 404 831 460 831 q 337 818 365 831 q 295 783 309 806 q 281 730 281 760 q 301 671 281 695 q 364 625 322 647 q 468 572 406 602 q 598 497 544 536 q 681 406 652 458 q 710 275 710 353 m 534 -170 q 488 -291 534 -248 q 324 -334 443 -334 q 269 -330 294 -334 q 225 -319 245 -326 l 225 -205 q 273 -215 245 -210 q 322 -220 302 -220 q 356 -211 342 -220 q 371 -178 371 -201 q 346 -133 371 -153 q 258 -104 321 -113 l 311 0 l 442 0 l 424 -41 q 477 -67 452 -50 q 518 -110 502 -85 q 534 -170 534 -136 z "},"ş":{"ha":690,"x_min":62,"x_max":637,"o":"m 637 225 q 601 95 637 148 q 493 14 565 41 q 314 -14 421 -14 q 178 -3 235 -14 q 64 31 121 7 l 64 201 q 196 156 125 174 q 321 138 267 138 q 407 156 381 138 q 433 203 433 174 q 423 237 433 222 q 378 272 412 252 q 269 322 343 291 q 152 382 198 352 q 84 455 106 413 q 62 561 62 496 q 144 719 62 666 q 363 772 226 772 q 497 758 433 772 q 629 713 562 744 l 567 564 q 461 604 511 588 q 359 619 411 619 q 291 607 314 619 q 268 570 268 595 q 280 537 268 551 q 326 506 292 523 q 427 461 360 488 q 538 406 491 435 q 612 335 586 377 q 637 225 637 292 m 507 -170 q 462 -291 507 -248 q 298 -334 416 -334 q 243 -330 267 -334 q 199 -319 218 -326 l 199 -205 q 247 -215 218 -210 q 296 -220 275 -220 q 330 -211 315 -220 q 345 -178 345 -201 q 319 -133 345 -153 q 232 -104 294 -113 l 285 0 l 416 0 l 397 -41 q 450 -67 425 -50 q 491 -110 475 -85 q 507 -170 507 -136 z "},"Š":{"ha":765,"x_min":64,"x_max":710,"o":"m 710 275 q 667 122 710 187 q 543 22 625 57 q 345 -14 461 -14 q 244 -7 293 -14 q 150 13 195 0 q 64 46 104 26 l 64 241 q 210 185 134 210 q 361 160 286 160 q 444 174 412 160 q 490 211 475 187 q 504 265 504 235 q 479 329 504 302 q 410 378 454 355 q 311 428 366 401 q 236 468 277 444 q 159 525 195 491 q 99 607 122 559 q 75 724 75 656 q 116 876 75 812 q 232 972 157 939 q 411 1006 308 1006 q 558 988 488 1006 q 705 936 629 970 l 637 772 q 515 815 569 800 q 404 831 460 831 q 337 818 365 831 q 295 783 309 806 q 281 730 281 760 q 301 671 281 695 q 364 625 322 647 q 468 572 406 602 q 598 497 544 536 q 681 406 652 458 q 710 275 710 353 m 277 1075 q 227 1144 258 1106 q 162 1217 195 1181 q 103 1279 129 1253 l 103 1297 l 241 1297 q 318 1245 277 1274 q 396 1178 359 1215 q 475 1245 432 1215 q 555 1297 518 1276 l 692 1297 l 692 1279 q 634 1218 667 1254 q 569 1144 601 1182 q 518 1075 538 1106 l 277 1075 z "},"š":{"ha":690,"x_min":54,"x_max":643,"o":"m 637 225 q 601 95 637 148 q 493 14 565 41 q 314 -14 421 -14 q 178 -3 235 -14 q 64 31 121 7 l 64 201 q 196 156 125 174 q 321 138 267 138 q 407 156 381 138 q 433 203 433 174 q 423 237 433 222 q 378 272 412 252 q 269 322 343 291 q 152 382 198 352 q 84 455 106 413 q 62 561 62 496 q 144 719 62 666 q 363 772 226 772 q 497 758 433 772 q 629 713 562 744 l 567 564 q 461 604 511 588 q 359 619 411 619 q 291 607 314 619 q 268 570 268 595 q 280 537 268 551 q 326 506 292 523 q 427 461 360 488 q 538 406 491 435 q 612 335 586 377 q 637 225 637 292 m 228 842 q 178 910 209 873 q 113 984 146 948 q 54 1046 80 1020 l 54 1064 l 192 1064 q 269 1011 228 1041 q 347 945 311 982 q 426 1012 383 982 q 506 1064 469 1042 l 643 1064 l 643 1046 q 585 985 618 1021 q 520 911 552 949 q 469 842 489 873 l 228 842 z "},"Ț":{"ha":804,"x_min":28,"x_max":777,"o":"m 507 0 l 297 0 l 297 817 l 28 817 l 28 991 l 777 991 l 777 817 l 507 817 l 507 0 m 519 -85 l 519 -98 q 489 -163 506 -129 q 451 -234 471 -197 q 407 -307 431 -270 l 286 -307 l 286 -289 q 302 -225 294 -262 q 318 -152 311 -189 q 328 -85 325 -115 l 519 -85 z "},"ț":{"ha":603,"x_min":32,"x_max":558,"o":"m 428 151 q 494 158 462 151 q 558 175 526 165 l 558 21 q 476 -4 525 6 q 368 -14 427 -14 q 247 8 300 -14 q 162 85 193 31 q 131 237 131 140 l 131 603 l 32 603 l 32 690 l 146 760 l 205 920 l 338 920 l 338 758 l 550 758 l 550 603 l 338 603 l 338 237 q 362 173 338 194 q 428 151 387 151 m 451 -85 l 451 -98 q 420 -163 437 -129 q 382 -234 403 -197 q 338 -307 362 -270 l 218 -307 l 218 -289 q 234 -225 226 -262 q 249 -152 242 -189 q 260 -85 256 -115 l 451 -85 z "},"Ť":{"ha":804,"x_min":28,"x_max":777,"o":"m 507 0 l 297 0 l 297 817 l 28 817 l 28 991 l 777 991 l 777 817 l 507 817 l 507 0 m 285 1075 q 235 1144 266 1106 q 170 1217 203 1181 q 111 1279 137 1253 l 111 1297 l 249 1297 q 326 1245 285 1274 q 404 1178 368 1215 q 483 1245 440 1215 q 563 1297 526 1276 l 700 1297 l 700 1279 q 642 1218 675 1254 q 577 1144 609 1182 q 526 1075 546 1106 l 285 1075 z "},"ť":{"ha":603,"x_min":32,"x_max":791,"o":"m 428 151 q 494 158 462 151 q 558 175 526 165 l 558 21 q 476 -4 525 6 q 368 -14 427 -14 q 247 8 300 -14 q 162 85 193 31 q 131 237 131 140 l 131 603 l 32 603 l 32 690 l 146 760 l 205 920 l 338 920 l 338 758 l 550 758 l 550 603 l 338 603 l 338 237 q 362 173 338 194 q 428 151 387 151 m 791 1055 l 791 1042 q 761 977 778 1011 q 723 906 743 943 q 679 833 703 870 l 558 833 l 558 851 q 570 897 564 871 q 582 951 576 923 q 593 1006 588 979 q 600 1055 597 1033 l 791 1055 z "},"Ŧ":{"ha":804,"x_min":28,"x_max":777,"o":"m 297 0 l 297 404 l 129 404 l 129 576 l 297 576 l 297 817 l 28 817 l 28 991 l 777 991 l 777 817 l 507 817 l 507 576 l 675 576 l 675 404 l 507 404 l 507 0 l 297 0 z "},"ŧ":{"ha":603,"x_min":32,"x_max":558,"o":"m 45 338 l 45 472 l 526 472 l 526 338 l 45 338 m 428 151 q 494 158 462 151 q 558 175 526 165 l 558 21 q 476 -4 525 6 q 368 -14 427 -14 q 247 8 300 -14 q 162 85 193 31 q 131 237 131 140 l 131 603 l 32 603 l 32 690 l 146 760 l 205 920 l 338 920 l 338 758 l 550 758 l 550 603 l 338 603 l 338 237 q 362 173 338 194 q 428 151 387 151 z "},"Ũ":{"ha":1050,"x_min":118,"x_max":932,"o":"m 932 991 l 932 350 q 887 165 932 248 q 750 35 842 83 q 521 -14 659 -14 q 221 87 324 -14 q 118 353 118 187 l 118 991 l 328 991 l 328 385 q 378 212 328 262 q 526 163 428 163 q 638 186 595 163 q 702 260 682 210 q 722 386 722 309 l 722 991 l 932 991 m 243 1074 q 262 1167 247 1128 q 303 1233 278 1207 q 360 1271 328 1258 q 427 1283 391 1283 q 482 1273 455 1283 q 535 1248 509 1262 q 586 1223 561 1234 q 636 1213 612 1213 q 676 1231 656 1213 q 704 1284 695 1249 l 805 1284 q 744 1126 797 1177 q 621 1075 691 1075 q 566 1086 593 1075 q 513 1111 539 1097 q 462 1135 487 1124 q 412 1146 437 1146 q 372 1128 391 1146 q 344 1074 353 1110 l 243 1074 z "},"ũ":{"ha":913,"x_min":104,"x_max":804,"o":"m 804 758 l 804 0 l 646 0 l 618 97 l 607 97 q 546 34 583 58 q 465 -2 509 9 q 374 -14 421 -14 q 232 15 292 -14 q 138 105 172 44 q 104 264 104 166 l 104 758 l 311 758 l 311 315 q 340 193 311 234 q 433 151 370 151 q 532 180 496 151 q 583 265 568 209 q 597 401 597 321 l 597 758 l 804 758 m 175 840 q 195 934 179 895 q 235 999 210 974 q 292 1037 260 1025 q 359 1050 323 1050 q 414 1039 387 1050 q 467 1015 441 1029 q 518 990 493 1000 q 568 979 544 979 q 608 997 589 979 q 636 1051 627 1015 l 737 1051 q 676 893 729 944 q 553 842 623 842 q 498 852 525 842 q 445 877 471 863 q 394 902 419 891 q 345 913 369 913 q 304 895 323 913 q 276 840 285 877 l 175 840 z "},"Ū":{"ha":1050,"x_min":118,"x_max":932,"o":"m 932 991 l 932 350 q 887 165 932 248 q 750 35 842 83 q 521 -14 659 -14 q 221 87 324 -14 q 118 353 118 187 l 118 991 l 328 991 l 328 385 q 378 212 328 262 q 526 163 428 163 q 638 186 595 163 q 702 260 682 210 q 722 386 722 309 l 722 991 l 932 991 m 755 1218 l 755 1075 l 296 1075 l 296 1218 l 755 1218 z "},"ū":{"ha":913,"x_min":104,"x_max":804,"o":"m 804 758 l 804 0 l 646 0 l 618 97 l 607 97 q 546 34 583 58 q 465 -2 509 9 q 374 -14 421 -14 q 232 15 292 -14 q 138 105 172 44 q 104 264 104 166 l 104 758 l 311 758 l 311 315 q 340 193 311 234 q 433 151 370 151 q 532 180 496 151 q 583 265 568 209 q 597 401 597 321 l 597 758 l 804 758 m 688 985 l 688 842 l 228 842 l 228 985 l 688 985 z "},"Ŭ":{"ha":1050,"x_min":118,"x_max":932,"o":"m 932 991 l 932 350 q 887 165 932 248 q 750 35 842 83 q 521 -14 659 -14 q 221 87 324 -14 q 118 353 118 187 l 118 991 l 328 991 l 328 385 q 378 212 328 262 q 526 163 428 163 q 638 186 595 163 q 702 260 682 210 q 722 386 722 309 l 722 991 l 932 991 m 795 1304 q 756 1185 791 1237 q 662 1104 721 1133 q 526 1075 604 1075 q 337 1137 407 1075 q 262 1304 268 1200 l 378 1304 q 402 1247 381 1265 q 455 1224 422 1230 q 528 1219 488 1219 q 593 1225 560 1219 q 650 1250 627 1232 q 677 1304 673 1268 l 795 1304 z "},"ŭ":{"ha":913,"x_min":104,"x_max":804,"o":"m 804 758 l 804 0 l 646 0 l 618 97 l 607 97 q 546 34 583 58 q 465 -2 509 9 q 374 -14 421 -14 q 232 15 292 -14 q 138 105 172 44 q 104 264 104 166 l 104 758 l 311 758 l 311 315 q 340 193 311 234 q 433 151 370 151 q 532 180 496 151 q 583 265 568 209 q 597 401 597 321 l 597 758 l 804 758 m 728 1071 q 688 952 723 1004 q 594 871 653 900 q 458 842 536 842 q 270 904 339 842 q 195 1071 200 966 l 310 1071 q 334 1014 313 1032 q 388 991 355 996 q 460 986 420 986 q 526 992 492 986 q 582 1017 559 998 q 610 1071 606 1035 l 728 1071 z "},"Ů":{"ha":1050,"x_min":118,"x_max":932,"o":"m 932 991 l 932 350 q 887 165 932 248 q 750 35 842 83 q 521 -14 659 -14 q 221 87 324 -14 q 118 353 118 187 l 118 991 l 328 991 l 328 385 q 378 212 328 262 q 526 163 428 163 q 638 186 595 163 q 702 260 682 210 q 722 386 722 309 l 722 991 l 932 991 m 526 1074 q 405 1117 451 1074 q 358 1235 358 1160 q 405 1353 358 1310 q 526 1396 451 1396 q 648 1353 598 1396 q 699 1236 699 1310 q 649 1117 699 1160 q 526 1074 599 1074 m 526 1169 q 573 1187 554 1169 q 591 1235 591 1204 q 573 1282 591 1265 q 526 1300 554 1300 q 479 1282 498 1300 q 460 1235 460 1265 q 477 1187 460 1204 q 526 1169 494 1169 z "},"ů":{"ha":913,"x_min":104,"x_max":804,"o":"m 804 758 l 804 0 l 646 0 l 618 97 l 607 97 q 546 34 583 58 q 465 -2 509 9 q 374 -14 421 -14 q 232 15 292 -14 q 138 105 172 44 q 104 264 104 166 l 104 758 l 311 758 l 311 315 q 340 193 311 234 q 433 151 370 151 q 532 180 496 151 q 583 265 568 209 q 597 401 597 321 l 597 758 l 804 758 m 458 840 q 337 883 383 840 q 290 1002 290 926 q 337 1119 290 1076 q 458 1162 383 1162 q 581 1120 530 1162 q 631 1003 631 1077 q 581 884 631 927 q 458 840 531 840 m 458 936 q 505 954 486 936 q 524 1002 524 971 q 505 1049 524 1031 q 458 1067 486 1067 q 411 1049 430 1067 q 393 1002 393 1031 q 409 954 393 971 q 458 936 426 936 z "},"Ű":{"ha":1050,"x_min":118,"x_max":932,"o":"m 932 991 l 932 350 q 887 165 932 248 q 750 35 842 83 q 521 -14 659 -14 q 221 87 324 -14 q 118 353 118 187 l 118 991 l 328 991 l 328 385 q 378 212 328 262 q 526 163 428 163 q 638 186 595 163 q 702 260 682 210 q 722 386 722 309 l 722 991 l 932 991 m 932 1297 l 932 1283 q 894 1238 921 1265 q 833 1180 867 1211 q 765 1122 799 1149 q 705 1075 731 1094 l 595 1075 l 595 1093 q 640 1156 615 1120 q 688 1229 665 1192 q 728 1297 712 1266 l 932 1297 m 663 1297 l 663 1283 q 625 1238 652 1265 q 564 1180 598 1211 q 496 1122 530 1149 q 436 1075 462 1094 l 326 1075 l 326 1093 q 370 1156 346 1120 q 418 1229 394 1192 q 458 1297 441 1266 l 663 1297 z "},"ű":{"ha":913,"x_min":104,"x_max":864,"o":"m 804 758 l 804 0 l 646 0 l 618 97 l 607 97 q 546 34 583 58 q 465 -2 509 9 q 374 -14 421 -14 q 232 15 292 -14 q 138 105 172 44 q 104 264 104 166 l 104 758 l 311 758 l 311 315 q 340 193 311 234 q 433 151 370 151 q 532 180 496 151 q 583 265 568 209 q 597 401 597 321 l 597 758 l 804 758 m 864 1064 l 864 1050 q 826 1004 853 1031 q 765 947 800 977 q 697 888 731 916 q 637 842 663 861 l 528 842 l 528 860 q 572 922 547 886 q 621 996 597 958 q 660 1064 644 1033 l 864 1064 m 595 1064 l 595 1050 q 557 1004 584 1031 q 496 947 530 977 q 428 888 462 916 q 368 842 394 861 l 258 842 l 258 860 q 302 922 278 886 q 350 996 326 958 q 390 1064 374 1033 l 595 1064 z "},"Ų":{"ha":1050,"x_min":118,"x_max":932,"o":"m 673 -139 q 690 -192 673 -174 q 730 -210 707 -210 q 772 -205 752 -210 q 806 -197 792 -201 l 806 -318 q 759 -329 784 -324 q 700 -334 734 -334 q 576 -289 622 -334 q 530 -168 530 -244 q 551 -78 530 -121 q 607 0 572 -35 q 684 60 642 36 l 814 79 q 734 -4 765 35 q 688 -76 703 -43 q 673 -139 673 -109 m 932 991 l 932 350 q 887 165 932 248 q 750 35 842 83 q 521 -14 659 -14 q 221 87 324 -14 q 118 353 118 187 l 118 991 l 328 991 l 328 385 q 378 212 328 262 q 526 163 428 163 q 638 186 595 163 q 702 260 682 210 q 722 386 722 309 l 722 991 l 932 991 z "},"ų":{"ha":913,"x_min":104,"x_max":804,"o":"m 804 758 l 804 0 l 646 0 l 618 97 l 607 97 q 546 34 583 58 q 465 -2 509 9 q 374 -14 421 -14 q 232 15 292 -14 q 138 105 172 44 q 104 264 104 166 l 104 758 l 311 758 l 311 315 q 340 193 311 234 q 433 151 370 151 q 532 180 496 151 q 583 265 568 209 q 597 401 597 321 l 597 758 l 804 758 m 660 -154 q 675 -196 660 -182 q 714 -210 690 -210 q 757 -205 736 -210 q 791 -197 779 -201 l 791 -318 q 745 -329 770 -324 q 686 -334 720 -334 q 563 -290 608 -334 q 517 -178 517 -246 q 537 -100 517 -137 q 592 -32 557 -63 q 669 24 627 0 l 760 0 q 686 -82 713 -45 q 660 -154 660 -119 z "},"Ŵ":{"ha":1343,"x_min":0,"x_max":1343,"o":"m 1343 991 l 1090 0 l 851 0 l 717 521 q 706 566 713 536 q 692 633 699 597 q 679 702 684 669 q 671 753 673 734 q 663 702 669 734 q 650 634 657 670 q 636 567 643 598 q 625 519 629 536 l 492 0 l 253 0 l 0 991 l 207 991 l 334 450 q 346 392 339 426 q 360 321 353 358 q 373 250 368 284 q 382 191 379 216 q 391 251 385 216 q 402 320 396 285 q 416 387 409 356 q 428 436 422 417 l 572 991 l 771 991 l 916 436 q 927 387 920 418 q 940 320 933 356 q 952 250 947 284 q 961 191 958 216 q 974 273 966 224 q 992 370 983 321 q 1010 450 1002 418 l 1136 991 l 1343 991 m 794 1297 q 845 1228 814 1266 q 910 1154 877 1190 q 968 1093 943 1118 l 968 1075 l 831 1075 q 751 1127 794 1097 q 672 1194 708 1157 q 594 1127 635 1157 q 517 1075 553 1098 l 379 1075 l 379 1093 q 438 1155 405 1119 q 503 1228 471 1190 q 553 1297 534 1266 l 794 1297 z "},"ŵ":{"ha":1189,"x_min":14,"x_max":1175,"o":"m 732 0 l 673 265 q 658 335 669 289 q 634 435 647 382 q 611 534 622 488 q 596 600 601 579 l 590 600 q 575 534 585 579 q 552 435 565 488 q 529 334 540 381 q 513 262 518 287 l 452 0 l 229 0 l 14 758 l 220 758 l 307 422 q 324 339 316 387 q 339 245 332 290 q 349 174 345 200 l 354 174 q 360 226 355 193 q 370 293 364 258 q 381 356 376 328 q 389 395 386 385 l 482 758 l 710 758 l 799 395 q 811 332 804 375 q 825 244 819 290 q 832 174 831 199 l 838 174 q 847 242 840 197 q 863 337 854 288 q 882 422 872 387 l 972 758 l 1175 758 l 957 0 l 732 0 m 716 1064 q 767 995 736 1033 q 832 921 799 957 q 890 860 865 885 l 890 842 l 753 842 q 673 893 716 863 q 594 961 630 924 q 516 894 557 924 q 439 842 475 865 l 301 842 l 301 860 q 360 921 327 886 q 425 995 393 957 q 475 1064 456 1033 l 716 1064 z "},"Ŷ":{"ha":867,"x_min":0,"x_max":867,"o":"m 433 583 l 640 991 l 867 991 l 538 386 l 538 0 l 329 0 l 329 379 l 0 991 l 228 991 l 433 583 m 555 1297 q 607 1228 575 1266 q 671 1154 638 1190 q 729 1093 705 1118 l 729 1075 l 592 1075 q 512 1127 555 1097 q 433 1194 469 1157 q 355 1127 397 1157 q 278 1075 314 1098 l 140 1075 l 140 1093 q 199 1155 166 1119 q 264 1228 233 1190 q 314 1297 295 1266 l 555 1297 z "},"ŷ":{"ha":790,"x_min":0,"x_max":790,"o":"m 0 758 l 227 758 l 370 332 q 381 290 376 311 q 389 247 386 269 q 395 200 393 224 l 399 200 q 410 269 403 237 q 428 332 417 300 l 568 758 l 790 758 l 469 -97 q 393 -228 440 -176 q 286 -307 347 -281 q 153 -334 225 -334 q 92 -330 117 -334 q 47 -322 66 -326 l 47 -158 q 83 -164 62 -161 q 129 -167 105 -167 q 203 -149 172 -167 q 256 -99 235 -130 q 289 -32 277 -68 l 301 5 l 0 758 m 518 1064 q 569 995 538 1033 q 634 921 601 957 q 692 860 667 885 l 692 842 l 555 842 q 475 893 518 863 q 396 961 432 924 q 318 894 359 924 q 241 842 277 865 l 103 842 l 103 860 q 162 921 129 886 q 227 995 195 957 q 277 1064 258 1033 l 518 1064 z "},"Ÿ":{"ha":867,"x_min":0,"x_max":867,"o":"m 433 583 l 640 991 l 867 991 l 538 386 l 538 0 l 329 0 l 329 379 l 0 991 l 228 991 l 433 583 m 200 1186 q 228 1256 200 1234 q 294 1278 255 1278 q 361 1256 333 1278 q 390 1186 390 1234 q 361 1118 390 1141 q 294 1096 333 1096 q 228 1118 255 1096 q 200 1186 200 1141 m 473 1186 q 501 1256 473 1234 q 569 1278 528 1278 q 636 1256 608 1278 q 665 1186 665 1234 q 636 1118 665 1141 q 569 1096 608 1096 q 501 1118 528 1096 q 473 1186 473 1141 z "},"Ź":{"ha":804,"x_min":33,"x_max":771,"o":"m 771 0 l 33 0 l 33 136 l 509 818 l 46 818 l 46 991 l 758 991 l 758 856 l 283 174 l 771 174 l 771 0 m 676 1297 l 676 1283 q 625 1236 656 1264 q 556 1178 593 1208 q 484 1121 519 1148 q 422 1075 449 1093 l 285 1075 l 285 1093 q 337 1155 307 1119 q 395 1228 366 1190 q 444 1297 425 1266 l 676 1297 z "},"ź":{"ha":677,"x_min":37,"x_max":636,"o":"m 636 0 l 37 0 l 37 122 l 389 600 l 58 600 l 58 758 l 624 758 l 624 624 l 282 158 l 636 158 l 636 0 m 605 1064 l 605 1050 q 553 1003 585 1031 q 485 945 522 975 q 413 887 448 915 q 351 842 378 860 l 214 842 l 214 860 q 266 921 236 886 q 324 995 295 957 q 373 1064 353 1033 l 605 1064 z "},"Ż":{"ha":804,"x_min":33,"x_max":771,"o":"m 771 0 l 33 0 l 33 136 l 509 818 l 46 818 l 46 991 l 758 991 l 758 856 l 283 174 l 771 174 l 771 0 m 412 1289 q 492 1267 458 1289 q 525 1187 525 1246 q 492 1108 525 1130 q 412 1086 458 1086 q 333 1108 366 1086 q 300 1187 300 1130 q 333 1267 300 1246 q 412 1289 366 1289 z "},"ż":{"ha":677,"x_min":37,"x_max":636,"o":"m 636 0 l 37 0 l 37 122 l 389 600 l 58 600 l 58 758 l 624 758 l 624 624 l 282 158 l 636 158 l 636 0 m 342 1055 q 421 1034 388 1055 q 454 954 454 1013 q 421 874 454 897 q 342 852 388 852 q 262 874 295 852 q 229 954 229 897 q 262 1034 229 1013 q 342 1055 295 1055 z "},"Ž":{"ha":804,"x_min":33,"x_max":771,"o":"m 771 0 l 33 0 l 33 136 l 509 818 l 46 818 l 46 991 l 758 991 l 758 856 l 283 174 l 771 174 l 771 0 m 292 1075 q 241 1144 273 1106 q 177 1217 210 1181 q 118 1279 144 1253 l 118 1297 l 256 1297 q 333 1245 292 1274 q 411 1178 374 1215 q 490 1245 447 1215 q 570 1297 533 1276 l 707 1297 l 707 1279 q 649 1218 682 1254 q 584 1144 616 1182 q 533 1075 553 1106 l 292 1075 z "},"ž":{"ha":677,"x_min":37,"x_max":636,"o":"m 636 0 l 37 0 l 37 122 l 389 600 l 58 600 l 58 758 l 624 758 l 624 624 l 282 158 l 636 158 l 636 0 m 221 842 q 171 910 202 873 q 106 984 140 948 q 47 1046 73 1020 l 47 1064 l 185 1064 q 262 1011 221 1041 q 340 945 304 982 q 419 1012 376 982 q 499 1064 463 1042 l 636 1064 l 636 1046 q 578 985 612 1021 q 514 911 545 949 q 463 842 482 873 l 221 842 z "},"ſ":{"ha":532,"x_min":109,"x_max":564,"o":"m 401 899 q 335 872 354 899 q 315 806 315 846 l 315 0 l 109 0 l 109 814 q 141 965 109 911 q 234 1041 174 1019 q 375 1063 294 1063 q 487 1053 441 1063 q 564 1031 532 1043 l 515 879 q 465 892 492 886 q 401 899 437 899 z "},"ƒ":{"ha":794,"x_min":134,"x_max":726,"o":"m 549 1006 q 654 996 611 1006 q 726 974 697 986 l 677 822 q 633 836 656 829 q 579 842 610 842 q 522 815 538 842 q 505 749 505 789 l 505 701 l 660 701 l 660 546 l 505 546 l 505 -82 q 480 -209 505 -151 q 401 -300 456 -266 q 258 -334 347 -334 q 191 -329 226 -334 q 134 -317 157 -323 l 134 -154 q 173 -164 155 -161 q 214 -167 191 -167 q 273 -143 248 -167 q 298 -52 298 -120 l 298 546 l 184 546 l 184 646 l 298 701 l 298 757 q 329 908 298 854 q 416 984 360 962 q 549 1006 473 1006 z "},"Ǻ":{"ha":958,"x_min":0,"x_max":958,"o":"m 0 0 l 339 892 q 317 936 324 911 q 310 990 310 961 q 356 1108 310 1065 q 478 1152 403 1152 q 600 1109 550 1152 q 650 991 650 1066 q 641 937 650 962 q 618 892 633 911 l 958 0 l 733 0 l 661 224 l 298 224 l 225 0 l 0 0 m 345 400 l 616 400 l 547 596 q 525 658 540 618 q 497 737 511 697 q 479 799 484 777 q 466 754 475 783 q 446 692 456 724 q 426 633 435 659 q 412 596 416 606 l 345 400 m 478 926 q 527 943 510 926 q 543 990 543 959 q 525 1038 543 1021 q 478 1055 506 1055 q 430 1038 448 1055 q 412 990 412 1021 q 430 944 412 961 q 478 926 447 926 m 396 1189 l 396 1200 q 437 1240 416 1217 q 479 1287 459 1263 q 514 1331 500 1311 l 746 1331 l 746 1322 q 710 1293 735 1310 q 652 1256 684 1275 q 588 1219 620 1236 q 533 1189 557 1201 l 396 1189 z "},"ǻ":{"ha":839,"x_min":58,"x_max":734,"o":"m 419 774 q 653 707 572 774 q 734 505 734 641 l 734 0 l 590 0 l 550 103 l 545 103 q 478 37 512 62 q 400 -1 444 11 q 293 -14 356 -14 q 173 12 226 -14 q 89 91 119 38 q 58 227 58 144 q 143 405 58 347 q 397 468 228 462 l 529 472 l 529 505 q 498 593 529 565 q 411 621 467 621 q 303 605 356 621 q 197 566 250 589 l 129 705 q 264 755 189 737 q 419 774 339 774 m 529 351 l 449 349 q 310 313 349 346 q 271 225 271 279 q 298 158 271 178 q 371 138 326 138 q 483 177 437 138 q 529 289 529 216 l 529 351 m 425 1039 q 378 1021 397 1039 q 359 974 359 1004 q 376 926 359 943 q 425 908 393 908 q 472 926 453 908 q 490 974 490 943 q 472 1021 490 1004 q 425 1039 453 1039 m 425 1135 q 512 1115 473 1135 q 574 1060 551 1096 q 597 975 597 1025 q 548 856 597 899 q 425 812 498 812 q 303 856 350 812 q 257 974 257 899 q 303 1092 257 1048 q 425 1135 350 1135 m 669 1331 l 669 1322 q 616 1281 655 1307 q 533 1231 577 1256 q 457 1189 488 1205 l 319 1189 l 319 1200 q 361 1240 339 1217 q 403 1287 382 1263 q 437 1331 423 1311 l 669 1331 z "},"Ǽ":{"ha":1322,"x_min":0,"x_max":1240,"o":"m 1240 0 l 648 0 l 648 236 l 315 236 l 214 0 l 0 0 l 444 991 l 1240 991 l 1240 819 l 859 819 l 859 602 l 1215 602 l 1215 429 l 859 429 l 859 174 l 1240 174 l 1240 0 m 392 412 l 648 412 l 648 812 l 562 812 l 392 412 m 969 1297 l 969 1283 q 918 1236 949 1264 q 849 1178 886 1208 q 777 1121 812 1148 q 715 1075 742 1093 l 578 1075 l 578 1093 q 630 1155 600 1119 q 688 1228 659 1190 q 737 1297 718 1266 l 969 1297 z "},"ǽ":{"ha":1274,"x_min":58,"x_max":1214,"o":"m 890 772 q 1059 732 986 772 q 1173 615 1132 692 q 1214 428 1214 538 l 1214 328 l 724 328 q 776 190 727 240 q 913 140 825 140 q 1044 155 981 140 q 1171 200 1107 170 l 1171 40 q 1052 -1 1114 12 q 901 -14 991 -14 q 785 2 840 -14 q 685 48 730 17 q 607 126 640 79 q 526 47 566 78 q 432 1 485 16 q 300 -14 378 -14 q 180 12 235 -14 q 92 91 125 38 q 58 227 58 144 q 95 359 58 307 q 204 437 132 411 q 386 468 277 464 l 515 472 l 515 529 q 485 598 515 576 q 403 621 455 621 q 298 606 349 621 q 196 568 247 592 l 129 705 q 262 755 189 737 q 415 774 336 774 q 550 752 492 774 q 647 685 608 730 q 750 751 692 729 q 890 772 809 772 m 515 351 l 439 349 q 308 313 345 346 q 271 225 271 279 q 297 158 271 178 q 366 138 323 138 q 442 155 408 138 q 496 207 476 173 q 515 289 515 241 l 515 351 m 886 625 q 775 587 817 625 q 728 465 734 548 l 1019 465 q 1003 547 1019 511 q 959 604 988 583 q 886 625 930 625 m 913 1064 l 913 1050 q 862 1003 894 1031 q 793 945 830 975 q 722 887 757 915 q 660 842 686 860 l 522 842 l 522 860 q 574 921 545 886 q 633 995 604 957 q 682 1064 662 1033 l 913 1064 z "},"Ǿ":{"ha":1105,"x_min":81,"x_max":1025,"o":"m 1025 497 q 996 289 1025 382 q 910 127 968 195 q 763 23 852 59 q 553 -14 674 -14 q 429 -2 486 -14 q 325 31 372 9 l 264 -61 l 154 12 l 215 104 q 114 272 146 172 q 81 498 81 372 q 131 767 81 652 q 287 944 182 881 q 554 1007 392 1007 q 681 995 623 1007 q 787 960 740 983 l 844 1044 l 953 974 l 893 885 q 992 720 960 819 q 1025 497 1025 621 m 804 497 q 796 608 804 557 q 770 699 787 659 l 431 189 q 486 170 456 176 q 553 163 516 163 q 698 203 642 163 q 779 318 753 243 q 804 497 804 393 m 301 497 q 310 382 301 435 q 339 289 319 330 l 682 802 q 624 824 656 816 q 554 832 592 832 q 409 792 465 832 q 327 676 353 751 q 301 497 301 602 m 825 1297 l 825 1283 q 773 1236 805 1264 q 705 1178 741 1208 q 633 1121 668 1148 q 571 1075 597 1093 l 433 1075 l 433 1093 q 485 1155 456 1119 q 544 1228 515 1190 q 593 1297 573 1266 l 825 1297 z "},"ǿ":{"ha":860,"x_min":62,"x_max":798,"o":"m 798 380 q 753 166 798 254 q 625 32 708 78 q 428 -14 542 -14 q 345 -6 385 -14 q 269 17 305 2 l 224 -52 l 119 20 l 165 87 q 89 212 116 138 q 62 380 62 285 q 161 671 62 569 q 432 772 260 772 q 520 763 478 772 q 600 737 563 754 l 637 793 l 741 720 l 701 663 q 772 542 747 613 q 798 380 798 471 m 273 380 q 277 319 273 347 q 286 268 280 291 l 501 590 q 469 602 487 597 q 429 606 450 606 q 310 549 347 606 q 273 380 273 493 m 586 380 q 584 432 586 408 q 578 476 582 456 l 368 163 q 397 155 382 157 q 431 153 413 153 q 520 178 486 153 q 570 255 554 204 q 586 380 586 306 m 699 1064 l 699 1050 q 647 1003 679 1031 q 578 945 615 975 q 507 887 542 915 q 445 842 471 860 l 307 842 l 307 860 q 359 921 330 886 q 418 995 389 957 q 467 1064 447 1033 l 699 1064 z "},"Ș":{"ha":765,"x_min":64,"x_max":710,"o":"m 710 275 q 667 122 710 187 q 543 22 625 57 q 345 -14 461 -14 q 244 -7 293 -14 q 150 13 195 0 q 64 46 104 26 l 64 241 q 210 185 134 210 q 361 160 286 160 q 444 174 412 160 q 490 211 475 187 q 504 265 504 235 q 479 329 504 302 q 410 378 454 355 q 311 428 366 401 q 236 468 277 444 q 159 525 195 491 q 99 607 122 559 q 75 724 75 656 q 116 876 75 812 q 232 972 157 939 q 411 1006 308 1006 q 558 988 488 1006 q 705 936 629 970 l 637 772 q 515 815 569 800 q 404 831 460 831 q 337 818 365 831 q 295 783 309 806 q 281 730 281 760 q 301 671 281 695 q 364 625 322 647 q 468 572 406 602 q 598 497 544 536 q 681 406 652 458 q 710 275 710 353 m 489 -85 l 489 -98 q 458 -163 475 -129 q 420 -234 441 -197 q 376 -307 400 -270 l 256 -307 l 256 -289 q 272 -225 264 -262 q 287 -152 280 -189 q 298 -85 294 -115 l 489 -85 z "},"ș":{"ha":690,"x_min":62,"x_max":637,"o":"m 637 225 q 601 95 637 148 q 493 14 565 41 q 314 -14 421 -14 q 178 -3 235 -14 q 64 31 121 7 l 64 201 q 196 156 125 174 q 321 138 267 138 q 407 156 381 138 q 433 203 433 174 q 423 237 433 222 q 378 272 412 252 q 269 322 343 291 q 152 382 198 352 q 84 455 106 413 q 62 561 62 496 q 144 719 62 666 q 363 772 226 772 q 497 758 433 772 q 629 713 562 744 l 567 564 q 461 604 511 588 q 359 619 411 619 q 291 607 314 619 q 268 570 268 595 q 280 537 268 551 q 326 506 292 523 q 427 461 360 488 q 538 406 491 435 q 612 335 586 377 q 637 225 637 292 m 463 -85 l 463 -98 q 432 -163 450 -129 q 395 -234 415 -197 q 351 -307 374 -270 l 230 -307 l 230 -289 q 246 -225 238 -262 q 261 -152 254 -189 q 272 -85 269 -115 l 463 -85 z "},"ˆ":{"ha":700,"x_min":56,"x_max":644,"o":"m 471 1064 q 522 995 490 1033 q 587 921 553 957 q 644 860 620 885 l 644 842 l 507 842 q 428 893 471 863 q 349 961 385 924 q 271 894 312 924 q 193 842 229 865 l 56 842 l 56 860 q 115 921 81 886 q 179 995 148 957 q 229 1064 210 1033 l 471 1064 z "},"ˇ":{"ha":700,"x_min":56,"x_max":644,"o":"m 229 842 q 179 910 210 873 q 115 984 148 948 q 56 1046 81 1020 l 56 1064 l 193 1064 q 271 1011 229 1041 q 349 945 312 982 q 428 1012 385 982 q 507 1064 471 1042 l 644 1064 l 644 1046 q 587 985 620 1021 q 522 911 553 949 q 471 842 490 873 l 229 842 z "},"ˉ":{"ha":571,"x_min":56,"x_max":515,"o":"m 515 985 l 515 842 l 56 842 l 56 985 l 515 985 z "},"˘":{"ha":644,"x_min":56,"x_max":589,"o":"m 589 1071 q 549 952 584 1004 q 455 871 514 900 q 319 842 397 842 q 131 904 200 842 q 56 1071 61 966 l 171 1071 q 195 1014 174 1032 q 249 991 216 996 q 321 986 281 986 q 387 992 353 986 q 443 1017 420 998 q 471 1071 467 1035 l 589 1071 z "},"˙":{"ha":336,"x_min":56,"x_max":281,"o":"m 168 1055 q 248 1034 214 1055 q 281 954 281 1013 q 248 874 281 897 q 168 852 214 852 q 89 874 121 852 q 56 954 56 897 q 89 1034 56 1013 q 168 1055 121 1055 z "},"˚":{"ha":452,"x_min":56,"x_max":396,"o":"m 224 840 q 102 883 149 840 q 56 1002 56 926 q 102 1119 56 1076 q 224 1162 149 1162 q 346 1120 296 1162 q 396 1003 396 1077 q 346 884 396 927 q 224 840 296 840 m 224 936 q 270 954 252 936 q 289 1002 289 971 q 270 1049 289 1031 q 224 1067 252 1067 q 177 1049 195 1067 q 158 1002 158 1031 q 175 954 158 971 q 224 936 191 936 z "},"˛":{"ha":386,"x_min":56,"x_max":330,"o":"m 199 -154 q 214 -196 199 -182 q 253 -210 229 -210 q 296 -205 275 -210 q 330 -197 317 -201 l 330 -318 q 283 -329 309 -324 q 225 -334 258 -334 q 101 -290 147 -334 q 56 -178 56 -246 q 76 -100 56 -137 q 131 -32 96 -63 q 208 24 165 0 l 298 0 q 225 -82 252 -45 q 199 -154 199 -119 z "},"˜":{"ha":673,"x_min":56,"x_max":618,"o":"m 56 840 q 75 934 60 895 q 116 999 91 974 q 173 1037 141 1025 q 240 1050 204 1050 q 295 1039 268 1050 q 348 1015 321 1029 q 399 990 374 1000 q 449 979 425 979 q 489 997 469 979 q 517 1051 508 1015 l 618 1051 q 557 893 610 944 q 433 842 504 842 q 379 852 406 842 q 326 877 352 863 q 275 902 300 891 q 225 913 250 913 q 185 895 204 913 q 157 840 165 877 l 56 840 z "},"˝":{"ha":717,"x_min":56,"x_max":661,"o":"m 661 1064 l 661 1050 q 624 1004 650 1031 q 563 947 597 977 q 494 888 528 916 q 435 842 460 861 l 325 842 l 325 860 q 369 922 345 886 q 418 996 394 958 q 457 1064 441 1033 l 661 1064 m 392 1064 l 392 1050 q 354 1004 381 1031 q 293 947 328 977 q 225 888 259 916 q 165 842 191 861 l 56 842 l 56 860 q 99 922 75 886 q 147 996 123 958 q 187 1064 171 1033 l 392 1064 z "},"΄":{"ha":802,"x_min":326,"x_max":574,"o":"m 326 842 l 326 863 q 342 918 334 887 q 358 982 351 949 q 372 1047 366 1015 q 382 1105 378 1079 l 574 1105 l 574 1089 q 539 1013 559 1053 q 496 929 519 972 q 447 842 473 886 l 326 842 z "},"΅":{"ha":802,"x_min":138,"x_max":686,"o":"m 561 1164 l 561 1150 q 528 1085 547 1120 q 484 1014 508 1050 q 435 942 460 978 l 342 942 l 342 960 q 358 1023 349 987 q 373 1097 366 1059 q 383 1164 380 1134 l 561 1164 m 225 1044 q 289 1023 264 1044 q 314 953 314 1001 q 289 885 314 907 q 225 863 264 863 q 162 885 186 863 q 138 953 138 907 q 162 1023 138 1001 q 225 1044 186 1044 m 597 1044 q 661 1023 635 1044 q 686 953 686 1001 q 661 885 686 907 q 597 863 635 863 q 533 885 557 863 q 509 953 509 907 q 533 1023 509 1001 q 597 1044 557 1044 z "},"Ά":{"ha":986,"x_min":14,"x_max":986,"o":"m 760 0 l 688 236 l 326 236 l 254 0 l 28 0 l 378 996 l 635 996 l 986 0 l 760 0 m 637 412 l 566 643 q 548 702 559 666 q 525 776 536 739 q 507 842 514 814 q 489 773 500 814 q 466 695 477 732 q 450 643 455 659 l 379 412 l 637 412 m 14 777 l 14 798 q 30 853 22 822 q 46 917 38 884 q 60 982 54 950 q 69 1040 66 1014 l 261 1040 l 261 1024 q 227 947 246 988 q 184 864 207 907 q 134 777 161 821 l 14 777 z "},"·":{"ha":396,"x_min":79,"x_max":317,"o":"m 79 656 q 114 745 79 720 q 199 771 149 771 q 282 745 247 771 q 317 656 317 720 q 282 568 317 595 q 199 541 247 541 q 114 568 149 541 q 79 656 79 595 z "},"Έ":{"ha":937,"x_min":0,"x_max":856,"o":"m 856 0 l 285 0 l 285 991 l 856 991 l 856 819 l 495 819 l 495 602 l 831 602 l 831 429 l 495 429 l 495 174 l 856 174 l 856 0 m 0 777 l 0 798 q 16 853 8 822 q 32 917 24 884 q 46 982 40 950 q 56 1040 52 1014 l 248 1040 l 248 1024 q 213 947 233 988 q 170 864 193 907 q 121 777 147 821 l 0 777 z "},"Ή":{"ha":1222,"x_min":0,"x_max":1097,"o":"m 1097 0 l 888 0 l 888 428 l 495 428 l 495 0 l 285 0 l 285 991 l 495 991 l 495 603 l 888 603 l 888 991 l 1097 991 l 1097 0 m 0 777 l 0 798 q 16 853 8 822 q 32 917 24 884 q 46 982 40 950 q 56 1040 52 1014 l 248 1040 l 248 1024 q 213 947 233 988 q 170 864 193 907 q 121 777 147 821 l 0 777 z "},"Ί":{"ha":625,"x_min":0,"x_max":500,"o":"m 290 0 l 290 991 l 500 991 l 500 0 l 290 0 m 0 777 l 0 798 q 16 853 8 822 q 32 917 24 884 q 46 982 40 950 q 56 1040 52 1014 l 248 1040 l 248 1024 q 213 947 233 988 q 170 864 193 907 q 121 777 147 821 l 0 777 z "},"Ό":{"ha":1190,"x_min":0,"x_max":1109,"o":"m 1109 497 q 1081 289 1109 382 q 995 127 1053 195 q 848 23 937 59 q 637 -14 759 -14 q 427 23 516 -14 q 280 127 338 59 q 194 289 222 195 q 165 498 165 383 q 216 767 165 652 q 372 944 267 881 q 639 1007 477 1007 q 904 944 800 1007 q 1059 766 1008 881 q 1109 497 1109 652 m 386 497 q 412 318 386 393 q 494 203 438 243 q 637 163 549 163 q 783 203 727 163 q 864 318 838 243 q 889 497 889 393 q 831 743 889 653 q 639 832 772 832 q 494 792 550 832 q 412 676 438 751 q 386 497 386 602 m 0 777 l 0 798 q 16 853 8 822 q 32 917 24 884 q 46 982 40 950 q 56 1040 52 1014 l 248 1040 l 248 1024 q 213 947 233 988 q 170 864 193 907 q 121 777 147 821 l 0 777 z "},"Ύ":{"ha":1128,"x_min":0,"x_max":1128,"o":"m 694 583 l 901 991 l 1128 991 l 799 386 l 799 0 l 590 0 l 590 379 l 261 991 l 489 991 l 694 583 m 0 777 l 0 798 q 16 853 8 822 q 32 917 24 884 q 46 982 40 950 q 56 1040 52 1014 l 248 1040 l 248 1024 q 213 947 233 988 q 170 864 193 907 q 121 777 147 821 l 0 777 z "},"Ώ":{"ha":1202,"x_min":0,"x_max":1164,"o":"m 656 832 q 519 800 576 832 q 431 704 462 767 q 400 547 400 640 q 417 400 400 467 q 473 280 433 333 q 581 189 512 227 l 581 0 l 147 0 l 147 176 l 399 176 q 285 278 334 216 q 210 419 237 340 q 184 591 184 498 q 241 811 184 718 q 405 956 299 904 q 656 1007 511 1007 q 907 956 801 1007 q 1070 810 1013 904 q 1128 590 1128 717 q 1101 418 1128 497 q 1025 278 1074 339 q 910 176 977 217 l 1164 176 l 1164 0 l 728 0 l 728 189 q 838 279 798 225 q 895 401 878 333 q 911 549 911 469 q 881 704 911 641 q 792 800 850 767 q 656 832 735 832 m 0 777 l 0 798 q 16 853 8 822 q 32 917 24 884 q 46 982 40 950 q 56 1040 52 1014 l 248 1040 l 248 1024 q 213 947 233 988 q 170 864 193 907 q 121 777 147 821 l 0 777 z "},"ΐ":{"ha":566,"x_min":-40,"x_max":536,"o":"m 315 758 l 315 237 q 340 173 315 194 q 406 151 365 151 q 472 158 440 151 q 536 175 504 165 l 536 21 q 459 -4 505 6 q 358 -14 412 -14 q 231 8 288 -14 q 141 85 174 31 q 109 237 109 140 l 109 758 l 315 758 m 383 1164 l 383 1150 q 350 1085 370 1120 q 307 1014 330 1050 q 257 942 283 978 l 164 942 l 164 960 q 180 1023 172 987 q 195 1097 189 1059 q 205 1164 202 1134 l 383 1164 m 47 1044 q 111 1023 86 1044 q 136 953 136 1001 q 111 885 136 907 q 47 863 86 863 q -16 885 8 863 q -40 953 -40 907 q -16 1023 -40 1001 q 47 1044 8 1044 m 420 1044 q 483 1023 458 1044 q 509 953 509 1001 q 483 885 509 907 q 420 863 458 863 q 355 885 379 863 q 331 953 331 907 q 355 1023 331 1001 q 420 1044 379 1044 z "},"Α":{"ha":958,"x_min":0,"x_max":958,"o":"m 732 0 l 660 236 l 298 236 l 227 0 l 0 0 l 350 996 l 607 996 l 958 0 l 732 0 m 610 412 l 538 643 q 520 702 531 666 q 497 776 509 739 q 479 842 486 814 q 461 773 473 814 q 438 695 449 732 q 422 643 427 659 l 351 412 l 610 412 z "},"Β":{"ha":933,"x_min":125,"x_max":860,"o":"m 125 991 l 433 991 q 733 936 631 991 q 835 741 835 880 q 817 639 835 684 q 765 564 799 593 q 682 526 731 535 l 682 519 q 772 485 732 509 q 836 413 812 460 q 860 288 860 366 q 816 133 860 197 q 690 34 772 68 q 496 0 608 0 l 125 0 l 125 991 m 335 599 l 457 599 q 584 628 549 599 q 619 713 619 656 q 577 794 619 770 q 446 819 536 819 l 335 819 l 335 599 m 335 432 l 335 174 l 472 174 q 604 210 567 174 q 642 309 642 247 q 625 373 642 345 q 571 416 609 401 q 465 432 532 432 l 335 432 z "},"Γ":{"ha":779,"x_min":125,"x_max":751,"o":"m 751 991 l 751 818 l 335 818 l 335 0 l 125 0 l 125 991 l 751 991 z "},"Δ":{"ha":914,"x_min":39,"x_max":875,"o":"m 576 996 l 875 119 l 875 0 l 39 0 l 39 121 l 339 996 l 576 996 m 661 175 l 490 696 q 479 733 487 706 q 465 788 471 761 q 457 823 458 815 q 450 788 456 815 q 435 733 443 761 q 424 694 427 705 l 253 175 l 661 175 z "},"Ε":{"ha":778,"x_min":125,"x_max":696,"o":"m 696 0 l 125 0 l 125 991 l 696 991 l 696 819 l 335 819 l 335 602 l 671 602 l 671 429 l 335 429 l 335 174 l 696 174 l 696 0 z "},"Ζ":{"ha":804,"x_min":33,"x_max":771,"o":"m 771 0 l 33 0 l 33 136 l 509 818 l 46 818 l 46 991 l 758 991 l 758 856 l 283 174 l 771 174 l 771 0 z "},"Η":{"ha":1063,"x_min":125,"x_max":937,"o":"m 937 0 l 728 0 l 728 428 l 335 428 l 335 0 l 125 0 l 125 991 l 335 991 l 335 603 l 728 603 l 728 991 l 937 991 l 937 0 z "},"Θ":{"ha":1105,"x_min":81,"x_max":1025,"o":"m 729 590 l 729 418 l 376 418 l 376 590 l 729 590 m 1025 497 q 996 289 1025 382 q 910 127 968 195 q 763 23 852 59 q 553 -14 674 -14 q 342 23 431 -14 q 196 127 254 59 q 109 289 138 195 q 81 498 81 383 q 131 767 81 652 q 287 944 182 881 q 554 1007 392 1007 q 820 944 715 1007 q 974 766 924 881 q 1025 497 1025 652 m 301 497 q 327 318 301 393 q 409 203 353 243 q 553 163 465 163 q 698 203 642 163 q 779 318 753 243 q 804 497 804 393 q 746 743 804 653 q 554 832 688 832 q 409 792 465 832 q 327 676 353 751 q 301 497 301 602 z "},"Ι":{"ha":460,"x_min":125,"x_max":335,"o":"m 125 0 l 125 991 l 335 991 l 335 0 l 125 0 z "},"Κ":{"ha":922,"x_min":125,"x_max":922,"o":"m 922 0 l 684 0 l 424 418 l 335 354 l 335 0 l 125 0 l 125 991 l 335 991 l 335 538 q 376 596 356 567 q 418 654 397 625 l 686 991 l 920 991 l 574 553 l 922 0 z "},"Λ":{"ha":903,"x_min":0,"x_max":903,"o":"m 566 991 l 903 0 l 690 0 l 505 596 q 488 658 499 616 q 467 744 477 700 q 452 815 456 789 q 437 742 447 787 q 416 656 427 698 q 400 595 406 615 l 212 0 l 0 0 l 336 991 l 566 991 z "},"Μ":{"ha":1310,"x_min":125,"x_max":1185,"o":"m 545 0 l 306 778 l 300 778 q 304 694 301 750 q 310 575 307 638 q 313 461 313 512 l 313 0 l 125 0 l 125 991 l 411 991 l 646 233 l 650 233 l 899 991 l 1185 991 l 1185 0 l 989 0 l 989 469 q 990 577 989 516 q 995 693 992 638 q 999 777 998 749 l 993 777 l 737 0 l 545 0 z "},"Ν":{"ha":1129,"x_min":125,"x_max":1004,"o":"m 1004 0 l 737 0 l 306 750 l 300 750 q 304 656 302 703 q 309 561 307 608 q 313 467 311 514 l 313 0 l 125 0 l 125 991 l 390 991 l 821 249 l 825 249 q 822 340 824 295 q 818 431 820 386 q 815 522 817 477 l 815 991 l 1004 991 l 1004 0 z "},"Ξ":{"ha":793,"x_min":56,"x_max":737,"o":"m 56 0 l 56 174 l 737 174 l 737 0 l 56 0 m 139 429 l 139 602 l 654 602 l 654 429 l 139 429 m 83 819 l 83 991 l 710 991 l 710 819 l 83 819 z "},"Ο":{"ha":1105,"x_min":81,"x_max":1025,"o":"m 1025 497 q 996 289 1025 382 q 910 127 968 195 q 763 23 852 59 q 553 -14 674 -14 q 342 23 431 -14 q 196 127 254 59 q 109 289 138 195 q 81 498 81 383 q 131 767 81 652 q 287 944 182 881 q 554 1007 392 1007 q 820 944 715 1007 q 974 766 924 881 q 1025 497 1025 652 m 301 497 q 327 318 301 393 q 409 203 353 243 q 553 163 465 163 q 698 203 642 163 q 779 318 753 243 q 804 497 804 393 q 746 743 804 653 q 554 832 688 832 q 409 792 465 832 q 327 676 353 751 q 301 497 301 602 z "},"Π":{"ha":1035,"x_min":125,"x_max":909,"o":"m 125 0 l 125 991 l 909 991 l 909 0 l 700 0 l 700 817 l 335 817 l 335 0 l 125 0 z "},"Ρ":{"ha":872,"x_min":125,"x_max":810,"o":"m 441 991 q 722 909 633 991 q 810 682 810 827 q 790 558 810 617 q 726 452 770 498 q 608 379 682 406 q 425 353 534 353 l 335 353 l 335 0 l 125 0 l 125 991 l 441 991 m 431 819 l 335 819 l 335 525 l 404 525 q 507 541 463 525 q 574 589 550 556 q 597 675 597 623 q 557 784 597 748 q 431 819 516 819 z "},"Σ":{"ha":823,"x_min":53,"x_max":777,"o":"m 53 0 l 53 165 l 372 519 l 61 831 l 61 991 l 736 991 l 736 819 l 437 819 q 387 820 412 819 q 336 822 361 821 q 285 827 311 824 l 593 521 l 269 165 q 366 172 317 170 q 461 174 414 174 l 777 174 l 777 0 l 53 0 z "},"Τ":{"ha":804,"x_min":28,"x_max":777,"o":"m 507 0 l 297 0 l 297 817 l 28 817 l 28 991 l 777 991 l 777 817 l 507 817 l 507 0 z "},"Υ":{"ha":867,"x_min":0,"x_max":867,"o":"m 433 583 l 640 991 l 867 991 l 538 386 l 538 0 l 329 0 l 329 379 l 0 991 l 228 991 l 433 583 z "},"Φ":{"ha":1194,"x_min":62,"x_max":1132,"o":"m 692 1006 l 692 884 q 950 827 854 880 q 1089 693 1046 775 q 1132 514 1132 610 q 1110 386 1132 451 q 1038 266 1088 321 q 903 176 987 211 q 692 139 818 142 l 692 -14 l 503 -14 l 503 139 q 289 177 374 142 q 154 267 204 212 q 83 387 104 322 q 62 514 62 452 q 86 652 62 587 q 161 768 109 717 q 297 850 213 819 q 503 884 381 880 l 503 1006 l 692 1006 m 503 720 q 359 688 412 715 q 283 617 306 661 q 260 515 260 572 q 285 406 260 453 q 365 332 311 359 q 503 301 418 305 l 503 720 m 692 720 l 692 301 q 830 332 777 305 q 909 406 884 359 q 935 515 935 453 q 911 617 935 572 q 835 688 888 661 q 692 720 782 715 z "},"Χ":{"ha":926,"x_min":0,"x_max":926,"o":"m 926 0 l 686 0 l 456 375 l 225 0 l 0 0 l 329 511 l 21 991 l 253 991 l 467 635 l 676 991 l 903 991 l 591 500 l 926 0 z "},"Ψ":{"ha":1217,"x_min":74,"x_max":1143,"o":"m 1143 991 l 1143 667 q 1121 505 1143 574 q 1047 389 1098 435 q 911 319 996 342 q 703 296 827 296 l 703 0 l 514 0 l 514 296 q 302 320 387 296 q 167 391 217 344 q 95 506 117 437 q 74 664 74 575 l 74 991 l 271 991 l 271 667 q 297 542 271 585 q 377 482 323 498 q 514 465 431 465 l 514 991 l 703 991 l 703 465 q 832 481 778 465 q 917 540 887 497 q 946 664 946 583 l 946 991 l 1143 991 z "},"Ω":{"ha":1092,"x_min":37,"x_max":1054,"o":"m 546 832 q 409 800 467 832 q 321 704 352 767 q 290 547 290 640 q 307 400 290 467 q 363 280 323 333 q 471 189 402 227 l 471 0 l 37 0 l 37 176 l 289 176 q 175 278 224 216 q 100 419 127 340 q 74 591 74 498 q 132 811 74 718 q 295 956 189 904 q 546 1007 401 1007 q 797 956 691 1007 q 960 810 903 904 q 1018 590 1018 717 q 991 418 1018 497 q 916 278 964 339 q 800 176 867 217 l 1054 176 l 1054 0 l 618 0 l 618 189 q 728 279 688 225 q 785 401 768 333 q 802 549 802 469 q 771 704 802 641 q 683 800 740 767 q 546 832 625 832 z "},"Ϊ":{"ha":460,"x_min":-3,"x_max":463,"o":"m 125 0 l 125 991 l 335 991 l 335 0 l 125 0 m -3 1186 q 25 1256 -3 1234 q 92 1278 52 1278 q 159 1256 130 1278 q 187 1186 187 1234 q 159 1118 187 1141 q 92 1096 130 1096 q 25 1118 52 1096 q -3 1186 -3 1141 m 271 1186 q 298 1256 271 1234 q 366 1278 326 1278 q 434 1256 405 1278 q 463 1186 463 1234 q 434 1118 463 1141 q 366 1096 405 1096 q 298 1118 326 1096 q 271 1186 271 1141 z "},"Ϋ":{"ha":867,"x_min":0,"x_max":867,"o":"m 433 583 l 640 991 l 867 991 l 538 386 l 538 0 l 329 0 l 329 379 l 0 991 l 228 991 l 433 583 m 200 1186 q 228 1256 200 1234 q 294 1278 255 1278 q 361 1256 333 1278 q 390 1186 390 1234 q 361 1118 390 1141 q 294 1096 333 1096 q 228 1118 255 1096 q 200 1186 200 1141 m 473 1186 q 501 1256 473 1234 q 569 1278 528 1278 q 636 1256 608 1278 q 665 1186 665 1234 q 636 1118 665 1141 q 569 1096 608 1096 q 501 1118 528 1096 q 473 1186 473 1141 z "},"ά":{"ha":899,"x_min":62,"x_max":868,"o":"m 422 151 q 513 174 479 151 q 562 246 547 197 q 578 370 576 294 l 578 378 q 544 547 578 488 q 419 606 510 606 q 309 547 345 606 q 273 375 273 488 q 310 208 273 264 q 422 151 347 151 m 359 -14 q 144 85 227 -14 q 62 376 62 184 q 147 671 62 570 q 375 771 231 771 q 507 743 456 771 q 593 657 559 714 l 603 657 q 621 709 609 681 q 648 758 632 737 l 819 758 q 798 680 809 728 q 779 572 787 631 q 771 452 771 513 l 771 240 q 788 177 771 193 q 828 160 805 160 q 850 162 838 160 q 868 167 863 165 l 868 4 q 845 -4 861 0 q 810 -11 829 -8 q 775 -14 791 -14 q 663 11 705 -14 q 596 100 620 35 l 582 100 q 531 43 562 68 q 459 2 501 17 q 359 -14 416 -14 m 368 842 l 368 863 q 384 918 376 887 q 400 982 392 949 q 414 1047 408 1015 q 423 1105 420 1079 l 615 1105 l 615 1089 q 581 1013 600 1053 q 538 929 561 972 q 488 842 515 886 l 368 842 z "},"έ":{"ha":771,"x_min":53,"x_max":720,"o":"m 570 467 l 570 323 l 456 323 q 341 313 385 323 q 277 282 297 302 q 257 231 257 261 q 275 186 257 205 q 333 157 293 168 q 439 146 373 146 q 597 164 524 146 q 718 204 671 182 l 718 39 q 591 1 666 15 q 424 -14 517 -14 q 140 47 228 -14 q 53 210 53 108 q 103 335 53 293 q 237 392 154 376 l 237 399 q 129 461 165 416 q 93 574 93 506 q 138 690 93 646 q 258 753 182 733 q 424 772 333 772 q 582 757 503 772 q 720 715 661 741 l 656 566 q 552 603 606 586 q 429 619 499 619 q 316 602 353 619 q 278 549 278 585 q 323 485 278 504 q 465 467 369 467 l 570 467 m 359 842 l 359 863 q 376 918 368 887 q 392 982 384 949 q 406 1047 399 1015 q 415 1105 412 1079 l 607 1105 l 607 1089 q 572 1013 592 1053 q 530 929 553 972 q 480 842 507 886 l 359 842 z "},"ή":{"ha":913,"x_min":109,"x_max":808,"o":"m 539 772 q 681 744 621 772 q 775 653 741 715 q 808 494 808 592 l 808 -334 l 602 -334 l 602 443 q 572 566 602 524 q 479 607 543 607 q 380 578 416 607 q 330 493 345 549 q 315 357 315 437 l 315 0 l 109 0 l 109 758 l 267 758 l 294 661 l 306 661 q 367 725 330 701 q 447 761 403 749 q 539 772 492 772 m 395 842 l 395 863 q 412 918 404 887 q 428 982 420 949 q 441 1047 435 1015 q 451 1105 448 1079 l 643 1105 l 643 1089 q 608 1013 628 1053 q 566 929 589 972 q 516 842 543 886 l 395 842 z "},"ί":{"ha":566,"x_min":109,"x_max":536,"o":"m 315 758 l 315 237 q 340 173 315 194 q 406 151 365 151 q 472 158 440 151 q 536 175 504 165 l 536 21 q 459 -4 505 6 q 358 -14 412 -14 q 231 8 288 -14 q 141 85 174 31 q 109 237 109 140 l 109 758 l 315 758 m 147 842 l 147 863 q 163 918 155 887 q 179 982 172 949 q 193 1047 187 1015 q 203 1105 199 1079 l 395 1105 l 395 1089 q 360 1013 380 1053 q 317 929 340 972 q 268 842 294 886 l 147 842 z "},"ΰ":{"ha":896,"x_min":97,"x_max":822,"o":"m 446 -12 q 234 35 310 -12 q 127 164 158 83 q 97 346 97 245 l 97 758 l 304 758 l 304 339 q 340 196 304 240 q 453 153 376 153 q 574 212 534 153 q 615 416 615 272 q 602 587 615 507 q 567 758 589 667 l 775 758 q 801 643 791 698 q 817 532 811 588 q 822 411 822 476 q 727 90 822 193 q 446 -12 631 -12 m 598 1164 l 598 1150 q 565 1085 585 1120 q 522 1014 545 1050 q 472 942 498 978 l 379 942 l 379 960 q 395 1023 387 987 q 410 1097 404 1059 q 420 1164 417 1134 l 598 1164 m 262 1044 q 326 1023 301 1044 q 351 953 351 1001 q 326 885 351 907 q 262 863 301 863 q 199 885 223 863 q 175 953 175 907 q 199 1023 175 1001 q 262 1044 223 1044 m 635 1044 q 698 1023 673 1044 q 724 953 724 1001 q 698 885 724 907 q 635 863 673 863 q 570 885 594 863 q 546 953 546 907 q 570 1023 546 1001 q 635 1044 594 1044 z "},"α":{"ha":899,"x_min":62,"x_max":868,"o":"m 422 151 q 513 174 479 151 q 562 246 547 197 q 578 370 576 294 l 578 378 q 544 547 578 488 q 419 606 510 606 q 309 547 345 606 q 273 375 273 488 q 310 208 273 264 q 422 151 347 151 m 359 -14 q 144 85 227 -14 q 62 376 62 184 q 147 671 62 570 q 375 771 231 771 q 507 743 456 771 q 593 657 559 714 l 603 657 q 621 709 609 681 q 648 758 632 737 l 819 758 q 798 680 809 728 q 779 572 787 631 q 771 452 771 513 l 771 240 q 788 177 771 193 q 828 160 805 160 q 850 162 838 160 q 868 167 863 165 l 868 4 q 845 -4 861 0 q 810 -11 829 -8 q 775 -14 791 -14 q 663 11 705 -14 q 596 100 620 35 l 582 100 q 531 43 562 68 q 459 2 501 17 q 359 -14 416 -14 z "},"β":{"ha":917,"x_min":109,"x_max":868,"o":"m 471 1063 q 648 1033 570 1063 q 769 944 725 1004 q 814 796 814 885 q 762 637 814 696 q 615 562 710 578 l 615 558 q 801 481 733 544 q 868 293 868 419 q 827 127 868 196 q 711 22 786 58 q 536 -14 637 -14 q 413 -3 469 -14 q 315 29 357 8 l 315 -334 l 109 -334 l 109 743 q 156 926 109 855 q 286 1029 204 996 q 471 1063 368 1063 m 465 901 q 390 886 425 901 q 336 832 356 871 q 315 724 315 794 l 315 199 q 397 164 349 177 q 484 151 445 151 q 612 194 570 151 q 654 311 654 236 q 631 402 654 368 q 567 450 607 435 q 478 464 527 464 l 429 464 l 429 628 l 465 628 q 572 668 538 628 q 607 771 607 707 q 568 869 607 837 q 465 901 529 901 z "},"γ":{"ha":789,"x_min":1,"x_max":789,"o":"m 789 758 l 509 12 q 472 -106 487 -43 q 449 -228 457 -168 q 441 -334 441 -287 l 222 -334 q 231 -237 222 -295 q 256 -114 240 -178 q 290 8 271 -49 l 1 758 l 216 758 l 328 424 q 355 336 340 387 q 380 239 369 286 q 396 168 392 193 l 400 168 q 411 230 402 189 q 434 320 420 271 q 463 414 448 369 l 574 758 l 789 758 z "},"δ":{"ha":860,"x_min":62,"x_max":798,"o":"m 476 1063 q 643 1042 571 1063 q 789 987 715 1022 l 707 842 q 586 890 645 871 q 468 909 528 909 q 391 889 413 909 q 368 842 368 869 q 389 794 368 817 q 451 744 410 770 q 555 686 493 718 q 692 593 639 644 q 772 481 746 542 q 798 347 798 420 q 751 143 798 223 q 622 25 705 63 q 427 -14 538 -14 q 239 23 321 -14 q 110 129 157 59 q 62 297 62 198 q 98 457 62 393 q 194 561 133 522 q 329 623 254 601 q 250 684 287 650 q 191 761 213 718 q 168 854 168 803 q 253 1009 168 956 q 476 1063 337 1063 m 450 538 q 372 501 413 528 q 303 427 332 474 q 275 306 275 379 q 293 228 275 262 q 345 173 311 193 q 428 153 379 153 q 513 173 478 153 q 567 235 549 194 q 586 334 586 275 q 549 455 586 406 q 450 538 511 505 z "},"ε":{"ha":771,"x_min":53,"x_max":720,"o":"m 570 467 l 570 323 l 456 323 q 341 313 385 323 q 277 282 297 302 q 257 231 257 261 q 275 186 257 205 q 333 157 293 168 q 439 146 373 146 q 597 164 524 146 q 718 204 671 182 l 718 39 q 591 1 666 15 q 424 -14 517 -14 q 140 47 228 -14 q 53 210 53 108 q 103 335 53 293 q 237 392 154 376 l 237 399 q 129 461 165 416 q 93 574 93 506 q 138 690 93 646 q 258 753 182 733 q 424 772 333 772 q 582 757 503 772 q 720 715 661 741 l 656 566 q 552 603 606 586 q 429 619 499 619 q 316 602 353 619 q 278 549 278 585 q 323 485 278 504 q 465 467 369 467 l 570 467 z "},"ζ":{"ha":692,"x_min":62,"x_max":685,"o":"m 685 -25 q 655 -147 685 -85 q 591 -257 626 -209 l 383 -257 q 433 -184 410 -221 q 470 -113 456 -146 q 484 -57 484 -80 q 475 -34 484 -45 q 440 -14 466 -24 q 361 5 414 -4 q 201 60 268 22 q 98 162 134 98 q 62 317 62 225 q 93 486 62 406 q 178 641 124 567 q 301 784 232 715 q 449 916 371 852 q 403 909 432 911 q 345 905 374 906 q 298 904 316 904 l 102 904 l 102 1055 l 681 1055 l 681 932 q 462 726 543 819 q 340 561 380 634 q 288 429 300 487 q 275 326 275 371 q 298 226 275 259 q 364 178 321 193 q 465 151 407 163 q 596 110 548 135 q 665 51 644 84 q 685 -25 685 17 z "},"η":{"ha":913,"x_min":109,"x_max":808,"o":"m 539 772 q 681 744 621 772 q 775 653 741 715 q 808 494 808 592 l 808 -334 l 602 -334 l 602 443 q 572 566 602 524 q 479 607 543 607 q 380 578 416 607 q 330 493 345 549 q 315 357 315 437 l 315 0 l 109 0 l 109 758 l 267 758 l 294 661 l 306 661 q 367 725 330 701 q 447 761 403 749 q 539 772 492 772 z "},"θ":{"ha":859,"x_min":62,"x_max":796,"o":"m 796 525 q 759 236 796 356 q 642 51 722 115 q 428 -14 561 -14 q 152 129 242 -14 q 62 525 62 272 q 99 814 62 694 q 216 999 135 935 q 428 1063 296 1063 q 705 922 613 1063 q 796 525 796 781 m 428 136 q 544 215 507 136 q 583 452 581 293 l 273 452 q 312 216 276 295 q 428 136 348 136 m 429 913 q 316 836 351 913 q 275 606 281 759 l 583 606 q 542 836 578 759 q 429 913 506 913 z "},"ι":{"ha":566,"x_min":109,"x_max":536,"o":"m 315 758 l 315 237 q 340 173 315 194 q 406 151 365 151 q 472 158 440 151 q 536 175 504 165 l 536 21 q 459 -4 505 6 q 358 -14 412 -14 q 231 8 288 -14 q 141 85 174 31 q 109 237 109 140 l 109 758 l 315 758 z "},"κ":{"ha":861,"x_min":109,"x_max":861,"o":"m 843 758 l 545 411 l 861 0 l 625 0 l 412 289 l 315 228 l 315 0 l 109 0 l 109 758 l 315 758 l 315 559 q 314 477 315 518 q 311 395 313 435 l 314 395 q 361 452 338 424 q 410 510 385 481 l 623 758 l 843 758 z "},"λ":{"ha":854,"x_min":5,"x_max":847,"o":"m 5 0 l 326 717 l 302 779 q 240 871 273 851 q 151 890 207 890 q 114 888 132 890 q 82 882 96 885 l 82 1053 q 115 1058 95 1056 q 157 1062 135 1061 q 195 1064 178 1064 q 339 1036 283 1064 q 432 952 395 1007 q 496 821 468 898 l 686 297 q 726 210 707 239 q 762 170 744 180 q 800 160 781 160 q 823 162 810 160 q 847 167 835 164 l 847 7 q 814 -3 836 1 q 769 -11 793 -8 q 728 -14 745 -14 q 634 5 671 -14 q 572 59 596 24 q 530 140 547 94 l 465 325 q 450 369 457 347 q 436 412 443 391 q 424 451 429 433 q 415 485 419 470 l 411 485 q 387 406 401 448 q 359 329 373 363 l 220 0 l 5 0 z "},"μ":{"ha":917,"x_min":109,"x_max":808,"o":"m 808 758 l 808 0 l 652 0 l 623 102 l 612 102 q 570 38 594 64 q 514 -1 545 12 q 443 -14 483 -14 q 368 2 401 -14 q 313 47 334 18 l 309 47 q 312 4 311 33 q 314 -59 313 -26 q 315 -117 315 -92 l 315 -334 l 109 -334 l 109 758 l 315 758 l 315 315 q 345 193 315 234 q 439 151 375 151 q 536 180 500 151 q 587 265 572 209 q 602 401 602 321 l 602 758 l 808 758 z "},"ν":{"ha":827,"x_min":4,"x_max":772,"o":"m 4 758 l 216 758 l 364 338 q 380 288 371 317 q 397 231 389 259 q 411 183 406 202 l 416 183 q 502 336 469 253 q 549 523 534 418 q 564 758 564 627 l 772 758 q 747 480 772 608 q 656 234 721 351 q 475 0 591 117 l 289 0 l 4 758 z "},"ξ":{"ha":692,"x_min":62,"x_max":685,"o":"m 62 297 q 87 407 62 358 q 154 491 111 455 q 254 549 197 526 l 254 555 q 174 590 208 567 q 123 647 141 612 q 106 728 106 681 q 126 812 106 777 q 190 872 147 848 q 301 913 233 897 q 230 909 269 911 q 160 905 192 907 q 117 904 129 904 l 102 904 l 102 1055 l 647 1055 l 647 913 l 596 913 q 489 902 540 913 q 397 870 437 891 q 334 816 357 848 q 311 741 311 784 q 350 651 311 682 q 498 621 389 621 l 611 621 l 611 478 l 497 478 q 370 459 419 478 q 298 404 321 441 q 275 311 275 367 q 298 221 275 252 q 364 177 321 191 q 465 151 407 163 q 596 110 548 135 q 665 51 644 84 q 685 -25 685 17 q 655 -147 685 -85 q 591 -257 626 -209 l 383 -257 q 433 -184 410 -221 q 470 -113 456 -146 q 484 -57 484 -80 q 475 -34 484 -45 q 440 -14 466 -24 q 361 5 414 -4 q 201 59 268 22 q 98 155 134 96 q 62 297 62 214 z "},"ο":{"ha":860,"x_min":62,"x_max":798,"o":"m 798 380 q 772 212 798 286 q 698 89 747 139 q 582 12 650 38 q 428 -14 513 -14 q 281 12 348 -14 q 165 89 214 38 q 89 212 116 139 q 62 380 62 286 q 107 594 62 507 q 235 727 152 682 q 432 772 317 772 q 621 727 538 772 q 750 594 703 682 q 798 380 798 507 m 273 380 q 290 255 273 306 q 340 178 306 204 q 431 153 375 153 q 520 178 486 153 q 570 255 554 204 q 586 380 586 306 q 570 506 586 456 q 519 581 554 555 q 429 606 485 606 q 310 549 347 606 q 273 380 273 493 z "},"π":{"ha":1026,"x_min":17,"x_max":978,"o":"m 882 149 q 928 155 906 149 q 970 172 950 161 l 970 24 q 904 -2 945 9 q 819 -14 862 -14 q 667 39 724 -14 q 611 208 611 92 l 611 600 l 382 600 l 382 0 l 175 0 l 175 600 l 17 600 l 17 689 l 138 758 l 978 758 l 978 600 l 818 600 l 818 216 q 836 165 818 182 q 882 149 854 149 z "},"ρ":{"ha":859,"x_min":82,"x_max":796,"o":"m 796 379 q 758 166 796 254 q 649 32 720 78 q 482 -14 578 -14 q 379 1 429 -14 q 292 39 330 16 l 279 39 q 287 -46 283 7 q 290 -143 290 -99 l 290 -334 l 82 -334 l 82 380 q 124 593 82 505 q 248 726 167 680 q 443 772 328 772 q 625 726 545 772 q 750 592 705 680 q 796 379 796 505 m 439 606 q 327 555 364 606 q 290 390 290 505 l 290 211 q 359 167 319 182 q 439 153 398 153 q 550 205 516 153 q 583 379 583 258 q 550 553 583 500 q 439 606 516 606 z "},"ς":{"ha":692,"x_min":62,"x_max":685,"o":"m 441 772 q 566 758 504 772 q 684 718 628 744 l 624 561 q 526 593 572 581 q 436 606 479 606 q 312 539 351 606 q 273 340 273 473 q 297 245 273 278 q 365 197 321 212 q 465 168 408 181 q 596 124 548 151 q 665 62 644 98 q 685 -16 685 27 q 655 -142 685 -77 q 591 -257 626 -207 l 383 -257 q 433 -180 410 -219 q 470 -105 456 -140 q 484 -46 484 -70 q 475 -22 484 -33 q 440 0 466 -11 q 361 21 414 11 q 236 60 291 35 q 142 125 180 86 q 83 216 103 164 q 62 335 62 269 q 110 597 62 502 q 242 732 157 692 q 441 772 328 772 z "},"σ":{"ha":907,"x_min":62,"x_max":879,"o":"m 808 322 q 766 151 808 227 q 639 31 723 75 q 433 -14 555 -14 q 239 30 322 -14 q 109 159 155 73 q 62 370 62 244 q 114 595 62 509 q 262 720 166 681 q 490 760 358 760 l 879 760 l 879 608 l 686 608 q 772 486 736 555 q 808 322 808 417 m 275 370 q 292 256 275 304 q 344 180 309 207 q 436 153 379 153 q 558 208 521 153 q 596 354 596 264 q 586 454 596 410 q 557 537 576 499 q 510 608 538 574 l 476 608 q 323 556 372 608 q 275 370 275 504 z "},"τ":{"ha":747,"x_min":28,"x_max":694,"o":"m 694 758 l 694 603 l 425 603 l 425 237 q 450 173 425 194 q 515 151 475 151 q 582 158 549 151 q 646 175 614 165 l 646 21 q 568 -4 614 6 q 468 -14 522 -14 q 341 8 397 -14 q 251 85 284 31 q 218 237 218 140 l 218 603 l 28 603 l 28 689 l 147 758 l 694 758 z "},"υ":{"ha":896,"x_min":97,"x_max":822,"o":"m 446 -12 q 234 35 310 -12 q 127 164 158 83 q 97 346 97 245 l 97 758 l 304 758 l 304 339 q 340 196 304 240 q 453 153 376 153 q 574 212 534 153 q 615 416 615 272 q 602 587 615 507 q 567 758 589 667 l 775 758 q 801 643 791 698 q 817 532 811 588 q 822 411 822 476 q 727 90 822 193 q 446 -12 631 -12 z "},"φ":{"ha":1100,"x_min":62,"x_max":1038,"o":"m 218 774 l 368 676 q 286 533 315 604 q 257 371 257 463 q 281 254 257 300 q 348 183 306 208 q 440 149 389 159 l 440 498 q 517 701 440 632 q 711 770 593 770 q 885 725 812 770 q 998 598 958 681 q 1038 401 1038 515 q 981 184 1038 272 q 831 50 924 97 q 632 -8 739 2 l 632 -334 l 440 -334 l 440 -8 q 247 46 333 4 q 112 169 161 89 q 62 375 62 250 q 105 591 62 494 q 218 774 149 688 m 714 619 q 654 592 675 619 q 632 500 632 566 l 632 149 q 742 188 695 155 q 813 276 788 221 q 839 400 839 330 q 827 510 839 460 q 788 589 815 559 q 714 619 761 619 z "},"χ":{"ha":822,"x_min":-33,"x_max":831,"o":"m 163 768 q 269 748 229 768 q 335 685 309 728 q 383 574 361 642 l 433 424 l 623 758 l 831 758 l 522 241 l 654 -81 q 683 -129 668 -111 q 718 -153 699 -146 q 762 -160 737 -160 q 793 -158 777 -160 q 831 -151 809 -156 l 831 -313 q 772 -328 802 -323 q 699 -334 743 -334 q 595 -311 637 -334 q 522 -245 552 -289 q 471 -135 492 -201 l 400 86 l 187 -334 l -33 -334 l 307 267 l 216 505 q 172 576 198 557 q 114 595 146 595 q 80 592 100 595 q 36 582 59 589 l 36 747 q 96 762 66 755 q 163 768 126 768 z "},"ψ":{"ha":1162,"x_min":97,"x_max":1089,"o":"m 684 1054 l 684 147 q 805 179 758 155 q 876 254 852 203 q 899 392 899 305 q 883 573 899 484 q 844 758 868 662 l 1036 758 q 1076 571 1063 661 q 1089 390 1089 482 q 1035 162 1089 248 q 889 35 981 75 q 684 -12 797 -6 l 684 -334 l 492 -334 l 492 -12 q 287 31 376 -8 q 148 154 198 70 q 97 376 97 237 l 97 758 l 294 758 l 294 371 q 313 245 294 292 q 375 174 332 197 q 492 146 418 151 l 492 1054 l 684 1054 z "},"ω":{"ha":1198,"x_min":74,"x_max":1125,"o":"m 1048 758 q 1092 631 1075 692 q 1117 506 1109 570 q 1125 368 1125 443 q 1091 170 1125 256 q 989 35 1057 84 q 819 -14 921 -14 q 680 25 731 -14 q 603 129 629 63 l 596 129 q 519 25 570 63 q 379 -14 468 -14 q 210 35 278 -14 q 108 170 142 84 q 74 368 74 256 q 82 506 74 443 q 107 631 90 570 q 150 758 123 692 l 349 758 q 284 572 305 667 q 264 375 264 478 q 295 211 264 274 q 396 147 326 147 q 461 167 438 147 q 494 224 485 186 q 504 317 504 262 l 504 517 l 694 517 l 694 317 q 704 224 694 262 q 738 167 714 186 q 803 147 762 147 q 879 176 850 147 q 921 256 907 205 q 935 372 935 307 q 914 571 935 475 q 850 758 894 667 l 1048 758 z "},"ϊ":{"ha":566,"x_min":-9,"x_max":536,"o":"m 315 758 l 315 237 q 340 173 315 194 q 406 151 365 151 q 472 158 440 151 q 536 175 504 165 l 536 21 q 459 -4 505 6 q 358 -14 412 -14 q 231 8 288 -14 q 141 85 174 31 q 109 237 109 140 l 109 758 l 315 758 m -9 953 q 18 1023 -9 1001 q 85 1044 45 1044 q 152 1023 123 1044 q 180 953 180 1001 q 152 885 180 907 q 85 863 123 863 q 18 885 45 863 q -9 953 -9 907 m 264 953 q 291 1023 264 1001 q 359 1044 319 1044 q 427 1023 398 1044 q 456 953 456 1001 q 427 885 456 907 q 359 863 398 863 q 291 885 319 863 q 264 953 264 907 z "},"ϋ":{"ha":896,"x_min":97,"x_max":822,"o":"m 446 -12 q 234 35 310 -12 q 127 164 158 83 q 97 346 97 245 l 97 758 l 304 758 l 304 339 q 340 196 304 240 q 453 153 376 153 q 574 212 534 153 q 615 416 615 272 q 602 587 615 507 q 567 758 589 667 l 775 758 q 801 643 791 698 q 817 532 811 588 q 822 411 822 476 q 727 90 822 193 q 446 -12 631 -12 m 206 953 q 234 1023 206 1001 q 300 1044 261 1044 q 368 1023 339 1044 q 396 953 396 1001 q 368 885 396 907 q 300 863 339 863 q 234 885 261 863 q 206 953 206 907 m 479 953 q 507 1023 479 1001 q 575 1044 534 1044 q 643 1023 614 1044 q 671 953 671 1001 q 643 885 671 907 q 575 863 614 863 q 507 885 534 863 q 479 953 479 907 z "},"ό":{"ha":860,"x_min":62,"x_max":798,"o":"m 798 380 q 772 212 798 286 q 698 89 747 139 q 582 12 650 38 q 428 -14 513 -14 q 281 12 348 -14 q 165 89 214 38 q 89 212 116 139 q 62 380 62 286 q 107 594 62 507 q 235 727 152 682 q 432 772 317 772 q 621 727 538 772 q 750 594 703 682 q 798 380 798 507 m 273 380 q 290 255 273 306 q 340 178 306 204 q 431 153 375 153 q 520 178 486 153 q 570 255 554 204 q 586 380 586 306 q 570 506 586 456 q 519 581 554 555 q 429 606 485 606 q 310 549 347 606 q 273 380 273 493 m 354 842 l 354 863 q 370 918 362 887 q 386 982 378 949 q 400 1047 394 1015 q 410 1105 406 1079 l 602 1105 l 602 1089 q 567 1013 587 1053 q 524 929 547 972 q 475 842 501 886 l 354 842 z "},"ύ":{"ha":896,"x_min":97,"x_max":822,"o":"m 446 -12 q 234 35 310 -12 q 127 164 158 83 q 97 346 97 245 l 97 758 l 304 758 l 304 339 q 340 196 304 240 q 453 153 376 153 q 574 212 534 153 q 615 416 615 272 q 602 587 615 507 q 567 758 589 667 l 775 758 q 801 643 791 698 q 817 532 811 588 q 822 411 822 476 q 727 90 822 193 q 446 -12 631 -12 m 362 842 l 362 863 q 378 918 370 887 q 394 982 387 949 q 408 1047 402 1015 q 418 1105 414 1079 l 610 1105 l 610 1089 q 575 1013 595 1053 q 532 929 555 972 q 483 842 509 886 l 362 842 z "},"ώ":{"ha":1198,"x_min":74,"x_max":1125,"o":"m 1048 758 q 1092 631 1075 692 q 1117 506 1109 570 q 1125 368 1125 443 q 1091 170 1125 256 q 989 35 1057 84 q 819 -14 921 -14 q 680 25 731 -14 q 603 129 629 63 l 596 129 q 519 25 570 63 q 379 -14 468 -14 q 210 35 278 -14 q 108 170 142 84 q 74 368 74 256 q 82 506 74 443 q 107 631 90 570 q 150 758 123 692 l 349 758 q 284 572 305 667 q 264 375 264 478 q 295 211 264 274 q 396 147 326 147 q 461 167 438 147 q 494 224 485 186 q 504 317 504 262 l 504 517 l 694 517 l 694 317 q 704 224 694 262 q 738 167 714 186 q 803 147 762 147 q 879 176 850 147 q 921 256 907 205 q 935 372 935 307 q 914 571 935 475 q 850 758 894 667 l 1048 758 m 529 842 l 529 863 q 545 918 537 887 q 561 982 553 949 q 575 1047 569 1015 q 585 1105 581 1079 l 777 1105 l 777 1089 q 742 1013 762 1053 q 699 929 722 972 q 650 842 676 886 l 529 842 z "},"Ё":{"ha":778,"x_min":125,"x_max":696,"o":"m 696 0 l 125 0 l 125 991 l 696 991 l 696 819 l 335 819 l 335 602 l 671 602 l 671 429 l 335 429 l 335 174 l 696 174 l 696 0 m 185 1186 q 213 1256 185 1234 q 279 1278 240 1278 q 347 1256 318 1278 q 375 1186 375 1234 q 347 1118 375 1141 q 279 1096 318 1096 q 213 1118 240 1096 q 185 1186 185 1141 m 458 1186 q 486 1256 458 1234 q 554 1278 513 1278 q 622 1256 593 1278 q 650 1186 650 1234 q 622 1118 650 1141 q 554 1096 593 1096 q 486 1118 513 1096 q 458 1186 458 1141 z "},"Ђ":{"ha":1118,"x_min":28,"x_max":1044,"o":"m 768 -12 q 697 -6 733 -12 q 631 14 662 1 l 631 187 q 692 166 662 174 q 747 158 722 158 q 790 164 770 158 q 822 193 810 170 q 835 262 835 215 l 835 349 q 807 433 835 409 q 714 457 779 457 l 486 457 l 486 0 l 277 0 l 277 817 l 28 817 l 28 991 l 783 991 l 783 817 l 486 817 l 486 632 l 722 632 q 961 562 878 632 q 1044 364 1044 491 l 1044 277 q 975 62 1044 136 q 768 -12 905 -12 z "},"Ѓ":{"ha":779,"x_min":125,"x_max":751,"o":"m 751 991 l 751 818 l 335 818 l 335 0 l 125 0 l 125 991 l 751 991 m 719 1297 l 719 1283 q 667 1236 699 1264 q 599 1178 635 1208 q 527 1121 562 1148 q 465 1075 492 1093 l 328 1075 l 328 1093 q 379 1155 350 1119 q 438 1228 409 1190 q 487 1297 467 1266 l 719 1297 z "},"Є":{"ha":940,"x_min":81,"x_max":892,"o":"m 571 831 q 467 815 515 831 q 384 767 420 799 q 328 690 349 736 q 302 586 307 645 l 732 586 l 732 414 l 301 414 q 325 307 305 353 q 378 227 344 260 q 461 178 412 195 q 574 161 510 161 q 708 175 640 161 q 854 214 775 189 l 854 37 q 715 -2 783 10 q 561 -14 646 -14 q 290 50 396 -14 q 132 228 183 113 q 81 494 81 342 q 113 701 81 607 q 210 863 146 794 q 367 968 273 931 q 581 1006 460 1006 q 744 987 669 1006 q 892 936 819 968 l 817 765 q 699 811 755 791 q 571 831 643 831 z "},"Ѕ":{"ha":765,"x_min":64,"x_max":710,"o":"m 710 275 q 667 122 710 187 q 543 22 625 57 q 345 -14 461 -14 q 244 -7 293 -14 q 150 13 195 0 q 64 46 104 26 l 64 241 q 210 185 134 210 q 361 160 286 160 q 444 174 412 160 q 490 211 475 187 q 504 265 504 235 q 479 329 504 302 q 410 378 454 355 q 311 428 366 401 q 236 468 277 444 q 159 525 195 491 q 99 607 122 559 q 75 724 75 656 q 116 876 75 812 q 232 972 157 939 q 411 1006 308 1006 q 558 988 488 1006 q 705 936 629 970 l 637 772 q 515 815 569 800 q 404 831 460 831 q 337 818 365 831 q 295 783 309 806 q 281 730 281 760 q 301 671 281 695 q 364 625 322 647 q 468 572 406 602 q 598 497 544 536 q 681 406 652 458 q 710 275 710 353 z "},"І":{"ha":460,"x_min":125,"x_max":335,"o":"m 125 0 l 125 991 l 335 991 l 335 0 l 125 0 z "},"Ї":{"ha":460,"x_min":-3,"x_max":463,"o":"m 125 0 l 125 991 l 335 991 l 335 0 l 125 0 m -3 1186 q 25 1256 -3 1234 q 92 1278 52 1278 q 159 1256 130 1278 q 187 1186 187 1234 q 159 1118 187 1141 q 92 1096 130 1096 q 25 1118 52 1096 q -3 1186 -3 1141 m 271 1186 q 298 1256 271 1234 q 366 1278 326 1278 q 434 1256 405 1278 q 463 1186 463 1234 q 434 1118 463 1141 q 366 1096 405 1096 q 298 1118 326 1096 q 271 1186 271 1141 z "},"Ј":{"ha":460,"x_min":-103,"x_max":335,"o":"m 21 -292 q -51 -287 -20 -292 q -103 -277 -81 -283 l -103 -102 q -57 -111 -81 -106 q -4 -115 -32 -115 q 62 -101 33 -115 q 108 -49 91 -87 q 125 62 125 -10 l 125 991 l 335 991 l 335 64 q 295 -142 335 -64 q 185 -256 256 -220 q 21 -292 114 -292 z "}}}
